<svg width="35" height="22" viewBox="0 0 35 22" fill="none" xmlns="http://www.w3.org/2000/svg">
<rect x="0.5" y="0.5" width="34" height="21" rx="10.5" stroke="#DC0533"/>
<path d="M11.85 10.2475V9.46H18.9675V10.2475H11.85ZM11.85 12.0625V11.275H18.9675V12.0625H11.85ZM18.1725 16.1725C17.1775 16.1725 16.265 15.9325 15.435 15.4525C14.61 14.9675 13.955 14.31 13.47 13.48C12.99 12.645 12.75 11.7275 12.75 10.7275C12.75 9.7275 12.99 8.8125 13.47 7.9825C13.955 7.1475 14.61 6.49 15.435 6.01C16.265 5.53 17.1775 5.29 18.1725 5.29C18.8575 5.29 19.5025 5.4075 20.1075 5.6425C20.7125 5.8725 21.2575 6.195 21.7425 6.61L21.075 7.5325C20.68 7.2075 20.23 6.95 19.725 6.76C19.225 6.57 18.7075 6.475 18.1725 6.475C17.4175 6.475 16.72 6.6625 16.08 7.0375C15.445 7.4125 14.94 7.9275 14.565 8.5825C14.19 9.2325 14.0025 9.95 14.0025 10.735C14.0025 11.52 14.19 12.2375 14.565 12.8875C14.94 13.5325 15.445 14.0425 16.08 14.4175C16.72 14.7925 17.4175 14.98 18.1725 14.98C18.7075 14.98 19.2175 14.8875 19.7025 14.7025C20.1875 14.5125 20.6475 14.24 21.0825 13.885L21.7425 14.8225C21.2475 15.2425 20.6975 15.5725 20.0925 15.8125C19.4925 16.0525 18.8525 16.1725 18.1725 16.1725Z" fill="#DC0533"/>
</svg>
