<svg width="50" height="50" viewBox="0 0 50 50" fill="none" xmlns="http://www.w3.org/2000/svg">
<circle cx="25" cy="25" r="24.5" stroke="#DC0533"/>
<path fill-rule="evenodd" clip-rule="evenodd" d="M20.3337 16.8188C21.1378 16.7546 21.9011 16.4383 22.5149 15.915C23.2083 15.3245 24.0892 15.0002 24.9999 15.0002C25.9107 15.0002 26.7916 15.3245 27.4849 15.915C28.0988 16.4383 28.8621 16.7546 29.6662 16.8188C30.5742 16.8913 31.4267 17.285 32.0709 17.9291C32.715 18.5732 33.1086 19.4257 33.1812 20.3338C33.2449 21.1375 33.5612 21.9013 34.0849 22.515C34.6755 23.2083 34.9998 24.0893 34.9998 25C34.9998 25.9107 34.6755 26.7917 34.0849 27.485C33.5617 28.0989 33.2454 28.8622 33.1812 29.6663C33.1086 30.5743 32.715 31.4268 32.0709 32.0709C31.4267 32.7151 30.5742 33.1087 29.6662 33.1813C28.8621 33.2455 28.0988 33.5617 27.4849 34.085C26.7916 34.6755 25.9107 34.9998 24.9999 34.9998C24.0892 34.9998 23.2083 34.6755 22.5149 34.085C21.9011 33.5617 21.1378 33.2455 20.3337 33.1813C19.4257 33.1087 18.5732 32.7151 17.929 32.0709C17.2849 31.4268 16.8913 30.5743 16.8187 29.6663C16.7545 28.8622 16.4382 28.0989 15.9149 27.485C15.3244 26.7917 15.0001 25.9107 15.0001 25C15.0001 24.0893 15.3244 23.2083 15.9149 22.515C16.4382 21.9011 16.7545 21.1378 16.8187 20.3338C16.8913 19.4257 17.2849 18.5732 17.929 17.9291C18.5732 17.285 19.4257 16.8913 20.3337 16.8188ZM29.6337 23.3838C29.8614 23.148 29.9874 22.8323 29.9845 22.5045C29.9817 22.1768 29.8502 21.8632 29.6185 21.6315C29.3867 21.3997 29.0732 21.2683 28.7454 21.2654C28.4177 21.2626 28.1019 21.3886 27.8662 21.6163L23.7499 25.7325L22.1337 24.1163C21.8979 23.8886 21.5822 23.7626 21.2544 23.7654C20.9267 23.7683 20.6132 23.8997 20.3814 24.1315C20.1497 24.3632 20.0182 24.6768 20.0154 25.0045C20.0125 25.3323 20.1385 25.648 20.3662 25.8838L22.8662 28.3838C23.1006 28.6181 23.4185 28.7497 23.7499 28.7497C24.0814 28.7497 24.3993 28.6181 24.6337 28.3838L29.6337 23.3838Z" fill="#1E1E1E"/>
</svg>
