<svg width="50" height="70" viewBox="0 0 50 70" fill="none" xmlns="http://www.w3.org/2000/svg">
<path d="M7.84899 7.74497L7.84902 7.74494C12.3959 3.26745 18.5651 0.75 25.0003 0.75C31.4354 0.75 37.6047 3.26745 42.1515 7.74494C46.698 12.222 49.25 18.2918 49.25 24.6184C49.25 30.9449 46.698 37.0147 42.1515 41.4918L25.0003 58.3814L7.84902 41.4918L7.84899 41.4917C5.59759 39.2749 3.81229 36.6437 2.59446 33.7487C1.37665 30.8537 0.75 27.7512 0.75 24.6184C0.75 21.4855 1.37665 18.383 2.59446 15.488C3.81229 12.593 5.59759 9.9618 7.84899 7.74497Z" fill="#EF3124" stroke="white" stroke-width="1.5"/>
<path d="M17.3025 33.7301H32.8689V36.9812H17.3025V33.7301ZM21.9328 26.0572H28.0729L29.1091 29.3261H32.5137L27.9189 15.5849C27.4749 14.2655 26.9597 13.2076 25.2012 13.2076C23.4426 13.2076 22.9038 14.2477 22.442 15.5849L17.6341 29.3201H20.8255L21.9328 26.0572ZM25.0472 16.7736H25.1242L27.1906 23.3114H22.8683L25.0472 16.7736Z" fill="white"/>
<ellipse cx="25.0001" cy="66.6981" rx="14.4737" ry="3.30189" fill="#EF3124"/>
</svg>
