<svg width="151" height="40" viewBox="0 0 151 40" fill="none" xmlns="http://www.w3.org/2000/svg">
<rect width="151" height="40" rx="20" fill="#F2F2F2"/>
<path d="M49.878 14.3718H49.1746V12.3794H49.7775C50.28 11.9809 50.5815 11.184 50.5815 10.0882V7.09961H54.6014V12.3794H55.3049V14.3718H54.6014V13.0767H49.9785V14.3718H49.878ZM51.285 10.0882C51.285 10.9847 51.084 11.7817 50.682 12.3794H53.6969V7.79694H51.1845V10.0882H51.285Z" fill="#DC0533" stroke="#DC0533" stroke-width="0.173913" stroke-miterlimit="10"/>
<path d="M61.2343 12.2798C60.6314 12.8775 59.9279 13.1763 59.0234 13.1763C58.1189 13.1763 57.4154 12.8775 56.8125 12.2798C56.2095 11.6821 55.908 10.9847 55.908 10.0882C55.908 9.19161 56.2095 8.49428 56.8125 7.89657C57.4154 7.29886 58.1189 7 59.0234 7C59.9279 7 60.6314 7.29886 61.2343 7.89657C61.8373 8.49428 62.1388 9.19161 62.1388 10.0882C62.1388 10.9847 61.8373 11.6821 61.2343 12.2798ZM57.4154 11.7817C57.8174 12.1802 58.4204 12.479 59.0234 12.479C59.6264 12.479 60.2294 12.2798 60.6314 11.7817C61.0333 11.3832 61.3348 10.7855 61.3348 10.0882C61.3348 9.39084 61.1338 8.79313 60.6314 8.39466C60.2294 7.99619 59.6264 7.69733 59.0234 7.69733C58.4204 7.69733 57.8174 7.89657 57.4154 8.39466C57.0135 8.79313 56.712 9.39084 56.712 10.0882C56.712 10.7855 56.913 11.3832 57.4154 11.7817Z" fill="#DC0533" stroke="#DC0533" stroke-width="0.173913" stroke-miterlimit="10"/>
<path d="M66.058 13.1763C65.1536 13.1763 64.4501 12.8775 63.8471 12.2798C63.2441 11.6821 62.9426 10.9847 62.9426 10.0882C62.9426 9.19161 63.2441 8.49428 63.8471 7.89657C64.4501 7.29886 65.1536 7 66.058 7C66.9625 7 67.666 7.29886 68.269 7.99619L67.7665 8.49428C67.3645 7.99618 66.7615 7.69733 66.058 7.69733C65.3546 7.69733 64.8521 7.89657 64.3496 8.39466C63.8471 8.79313 63.6461 9.39084 63.6461 10.0882C63.6461 10.7855 63.8471 11.3832 64.3496 11.7817C64.7516 12.1802 65.3546 12.479 66.058 12.479C66.7615 12.479 67.3645 12.1802 67.867 11.5825L68.3695 12.0805C68.068 12.3794 67.7665 12.6783 67.3645 12.8775C66.9625 13.0767 66.5605 13.1763 66.058 13.1763Z" fill="#DC0533" stroke="#DC0533" stroke-width="0.173913" stroke-miterlimit="10"/>
<path d="M71.5855 13.0767H70.7815V7.79694H69.0731V7.09961H73.1934V7.79694H71.485V13.0767H71.5855Z" fill="#DC0533" stroke="#DC0533" stroke-width="0.173913" stroke-miterlimit="10"/>
<path d="M78.5197 7.09961L76.2082 12.1802C75.9067 12.8775 75.4043 13.276 74.8013 13.276C74.6003 13.276 74.3993 13.276 74.1983 13.1763L74.3993 12.479C74.4998 12.5786 74.7008 12.5786 74.8013 12.5786C75.0023 12.5786 75.1028 12.5786 75.2033 12.479C75.3038 12.3794 75.4043 12.2798 75.5047 12.0805L75.7057 11.5824L73.6958 7.19923H74.6003L76.1077 10.5863L77.6152 7.09961H78.5197Z" fill="#DC0533" stroke="#DC0533" stroke-width="0.173913" stroke-miterlimit="10"/>
<path d="M79.4243 13.0767V7.09961H83.7456V13.0767H82.9417V7.79694H80.1277V13.0767H79.4243Z" fill="#DC0533" stroke="#DC0533" stroke-width="0.173913" stroke-miterlimit="10"/>
<path d="M85.1525 13.0767V7.09961H85.9564V9.68969H88.9714V7.09961H89.7754V13.0767H88.9714V10.387H85.9564V13.0767H85.1525Z" fill="#DC0533" stroke="#DC0533" stroke-width="0.173913" stroke-miterlimit="10"/>
<path d="M96.1068 12.2798C95.5038 12.8775 94.8003 13.1763 93.8958 13.1763C92.9914 13.1763 92.2879 12.8775 91.6849 12.2798C91.0819 11.6821 90.7804 10.9847 90.7804 10.0882C90.7804 9.19161 91.0819 8.49428 91.6849 7.89657C92.2879 7.29886 92.9914 7 93.8958 7C94.8003 7 95.5038 7.29886 96.1068 7.89657C96.7098 8.49428 97.0113 9.19161 97.0113 10.0882C96.9108 10.9847 96.6093 11.6821 96.1068 12.2798ZM92.1874 11.7817C92.5894 12.1802 93.1924 12.479 93.7953 12.479C94.3983 12.479 95.0013 12.2798 95.4033 11.7817C95.8053 11.3832 96.1068 10.7855 96.1068 10.0882C96.1068 9.39084 95.9058 8.79313 95.4033 8.39466C95.0013 7.99619 94.3983 7.69733 93.7953 7.69733C93.1924 7.69733 92.5894 7.89657 92.1874 8.39466C91.7854 8.79313 91.4839 9.39084 91.4839 10.0882C91.4839 10.7855 91.7854 11.3832 92.1874 11.7817Z" fill="#DC0533" stroke="#DC0533" stroke-width="0.173913" stroke-miterlimit="10"/>
<path d="M100.127 13.0767V7.09961H102.338C102.84 7.09961 103.242 7.29885 103.544 7.5977C103.845 7.89656 104.046 8.29503 104.046 8.69351C104.046 8.99236 103.946 9.1916 103.845 9.49045C103.745 9.68969 103.544 9.88893 103.242 9.98855C103.544 10.0882 103.745 10.2874 103.946 10.4866C104.147 10.6859 104.247 10.9847 104.247 11.3832C104.247 11.8813 104.046 12.2798 103.745 12.5786C103.343 12.8775 102.941 13.0767 102.438 13.0767H100.127ZM100.931 9.68969H102.338C102.639 9.68969 102.84 9.59007 103.041 9.39084C103.242 9.1916 103.343 8.99236 103.343 8.79312C103.343 8.59389 103.142 8.29503 103.041 8.09579C102.84 7.89656 102.639 7.79694 102.338 7.79694H100.931V9.68969ZM100.931 12.3794H102.539C102.84 12.3794 103.041 12.2798 103.242 12.0805C103.443 11.8813 103.544 11.6821 103.544 11.3832C103.544 11.184 103.443 10.8851 103.242 10.6859C103.041 10.4866 102.84 10.387 102.539 10.387H101.031V12.3794H100.931Z" fill="#DC0533" stroke="#DC0533" stroke-width="0.173913" stroke-miterlimit="10"/>
<mask id="path-11-inside-1_499_1783" fill="white">
<path d="M75.1702 22.4497C72.844 22.4497 71.0024 24.1538 71.0024 26.5207C71.0024 28.7929 72.844 30.5917 75.1702 30.5917C77.4965 30.5917 79.3381 28.8876 79.3381 26.5207C79.3381 24.0592 77.4965 22.4497 75.1702 22.4497ZM75.1702 28.8876C73.9102 28.8876 72.844 27.8462 72.844 26.426C72.844 25.0059 73.9102 23.9645 75.1702 23.9645C76.4303 23.9645 77.4965 24.9112 77.4965 26.426C77.4965 27.8462 76.4303 28.8876 75.1702 28.8876ZM66.156 22.4497C63.8298 22.4497 61.9882 24.1538 61.9882 26.5207C61.9882 28.7929 63.8298 30.5917 66.156 30.5917C68.4823 30.5917 70.3239 28.8876 70.3239 26.5207C70.3239 24.0592 68.4823 22.4497 66.156 22.4497ZM66.156 28.8876C64.896 28.8876 63.8298 27.8462 63.8298 26.426C63.8298 25.0059 64.896 23.9645 66.156 23.9645C67.4161 23.9645 68.4823 24.9112 68.4823 26.426C68.4823 27.8462 67.4161 28.8876 66.156 28.8876ZM55.3972 23.6805V25.3846H59.565C59.4681 26.3314 59.0804 27.0888 58.5957 27.5621C58.0142 28.1302 57.0449 28.7929 55.3972 28.7929C52.7801 28.7929 50.8416 26.8047 50.8416 24.2485C50.8416 21.6923 52.8771 19.7041 55.3972 19.7041C56.7541 19.7041 57.8203 20.2722 58.5957 20.9349L59.8558 19.7041C58.7896 18.7574 57.4326 18 55.4941 18C52.0047 18 49 20.8402 49 24.2485C49 27.6568 52.0047 30.497 55.4941 30.497C57.4326 30.497 58.7896 29.929 59.9527 28.6982C61.1158 27.5621 61.5035 25.9527 61.5035 24.7219C61.5035 24.3432 61.5035 23.9645 61.4066 23.6805H55.3972ZM99.4019 25.0059C99.0142 24.0592 98.0449 22.4497 95.9125 22.4497C93.7801 22.4497 92.0355 24.0592 92.0355 26.5207C92.0355 28.7929 93.7801 30.5917 96.1064 30.5917C97.948 30.5917 99.1111 29.4556 99.4988 28.7929L98.1418 27.8462C97.6572 28.5089 97.0756 28.9822 96.1064 28.9822C95.1371 28.9822 94.5556 28.6035 94.0709 27.7515L99.5957 25.4793L99.4019 25.0059ZM93.7801 26.3314C93.7801 24.8166 95.0402 23.9645 95.9125 23.9645C96.591 23.9645 97.2695 24.3432 97.4634 24.8166L93.7801 26.3314ZM89.2246 30.213H91.0662V18.3787H89.2246V30.213ZM86.3168 23.3018C85.8321 22.8284 85.0567 22.355 84.0875 22.355C82.052 22.355 80.1135 24.1538 80.1135 26.426C80.1135 28.6982 81.9551 30.4024 84.0875 30.4024C85.0567 30.4024 85.8322 29.929 86.2199 29.4556H86.3168V30.0237C86.3168 31.5385 85.4445 32.3905 84.0875 32.3905C83.0213 32.3905 82.2459 31.6331 82.052 30.9704L80.5012 31.6331C80.9858 32.6746 82.1489 34 84.1844 34C86.3168 34 88.0615 32.7692 88.0615 29.8343V22.6391H86.3168V23.3018ZM84.1844 28.8876C82.9244 28.8876 81.8582 27.8462 81.8582 26.426C81.8582 25.0059 82.9244 23.9645 84.1844 23.9645C85.4444 23.9645 86.4137 25.0059 86.4137 26.426C86.4137 27.8462 85.4444 28.8876 84.1844 28.8876ZM107.835 18.3787H103.473V30.213H105.314V25.7633H107.835C109.87 25.7633 111.809 24.3432 111.809 22.071C111.809 19.7988 109.87 18.3787 107.835 18.3787ZM107.931 24.0592H105.314V19.9882H107.931C109.288 19.9882 110.064 21.1243 110.064 21.9763C109.967 23.0178 109.191 24.0592 107.931 24.0592ZM119.078 22.355C117.721 22.355 116.364 22.9231 115.879 24.1538L117.527 24.8166C117.915 24.1538 118.496 23.9645 119.175 23.9645C120.144 23.9645 121.017 24.5325 121.113 25.4793V25.574C120.823 25.3846 120.047 25.1006 119.272 25.1006C117.527 25.1006 115.783 26.0473 115.783 27.7515C115.783 29.3609 117.236 30.4024 118.787 30.4024C120.047 30.4024 120.629 29.8343 121.113 29.2663H121.21V30.213H122.955V25.6686C122.761 23.5858 121.113 22.355 119.078 22.355ZM118.884 28.8876C118.303 28.8876 117.43 28.6035 117.43 27.8462C117.43 26.8994 118.496 26.6154 119.369 26.6154C120.144 26.6154 120.532 26.8047 121.017 26.9941C120.823 28.1302 119.853 28.8876 118.884 28.8876ZM129.061 22.6391L127.026 27.7515H126.929L124.797 22.6391H122.858L126.057 29.8343L124.215 33.8106H126.057L131 22.6391H129.061ZM112.778 30.213H114.619V18.3787H112.778V30.213Z"/>
</mask>
<path d="M75.1702 22.4497C72.844 22.4497 71.0024 24.1538 71.0024 26.5207C71.0024 28.7929 72.844 30.5917 75.1702 30.5917C77.4965 30.5917 79.3381 28.8876 79.3381 26.5207C79.3381 24.0592 77.4965 22.4497 75.1702 22.4497ZM75.1702 28.8876C73.9102 28.8876 72.844 27.8462 72.844 26.426C72.844 25.0059 73.9102 23.9645 75.1702 23.9645C76.4303 23.9645 77.4965 24.9112 77.4965 26.426C77.4965 27.8462 76.4303 28.8876 75.1702 28.8876ZM66.156 22.4497C63.8298 22.4497 61.9882 24.1538 61.9882 26.5207C61.9882 28.7929 63.8298 30.5917 66.156 30.5917C68.4823 30.5917 70.3239 28.8876 70.3239 26.5207C70.3239 24.0592 68.4823 22.4497 66.156 22.4497ZM66.156 28.8876C64.896 28.8876 63.8298 27.8462 63.8298 26.426C63.8298 25.0059 64.896 23.9645 66.156 23.9645C67.4161 23.9645 68.4823 24.9112 68.4823 26.426C68.4823 27.8462 67.4161 28.8876 66.156 28.8876ZM55.3972 23.6805V25.3846H59.565C59.4681 26.3314 59.0804 27.0888 58.5957 27.5621C58.0142 28.1302 57.0449 28.7929 55.3972 28.7929C52.7801 28.7929 50.8416 26.8047 50.8416 24.2485C50.8416 21.6923 52.8771 19.7041 55.3972 19.7041C56.7541 19.7041 57.8203 20.2722 58.5957 20.9349L59.8558 19.7041C58.7896 18.7574 57.4326 18 55.4941 18C52.0047 18 49 20.8402 49 24.2485C49 27.6568 52.0047 30.497 55.4941 30.497C57.4326 30.497 58.7896 29.929 59.9527 28.6982C61.1158 27.5621 61.5035 25.9527 61.5035 24.7219C61.5035 24.3432 61.5035 23.9645 61.4066 23.6805H55.3972ZM99.4019 25.0059C99.0142 24.0592 98.0449 22.4497 95.9125 22.4497C93.7801 22.4497 92.0355 24.0592 92.0355 26.5207C92.0355 28.7929 93.7801 30.5917 96.1064 30.5917C97.948 30.5917 99.1111 29.4556 99.4988 28.7929L98.1418 27.8462C97.6572 28.5089 97.0756 28.9822 96.1064 28.9822C95.1371 28.9822 94.5556 28.6035 94.0709 27.7515L99.5957 25.4793L99.4019 25.0059ZM93.7801 26.3314C93.7801 24.8166 95.0402 23.9645 95.9125 23.9645C96.591 23.9645 97.2695 24.3432 97.4634 24.8166L93.7801 26.3314ZM89.2246 30.213H91.0662V18.3787H89.2246V30.213ZM86.3168 23.3018C85.8321 22.8284 85.0567 22.355 84.0875 22.355C82.052 22.355 80.1135 24.1538 80.1135 26.426C80.1135 28.6982 81.9551 30.4024 84.0875 30.4024C85.0567 30.4024 85.8322 29.929 86.2199 29.4556H86.3168V30.0237C86.3168 31.5385 85.4445 32.3905 84.0875 32.3905C83.0213 32.3905 82.2459 31.6331 82.052 30.9704L80.5012 31.6331C80.9858 32.6746 82.1489 34 84.1844 34C86.3168 34 88.0615 32.7692 88.0615 29.8343V22.6391H86.3168V23.3018ZM84.1844 28.8876C82.9244 28.8876 81.8582 27.8462 81.8582 26.426C81.8582 25.0059 82.9244 23.9645 84.1844 23.9645C85.4444 23.9645 86.4137 25.0059 86.4137 26.426C86.4137 27.8462 85.4444 28.8876 84.1844 28.8876ZM107.835 18.3787H103.473V30.213H105.314V25.7633H107.835C109.87 25.7633 111.809 24.3432 111.809 22.071C111.809 19.7988 109.87 18.3787 107.835 18.3787ZM107.931 24.0592H105.314V19.9882H107.931C109.288 19.9882 110.064 21.1243 110.064 21.9763C109.967 23.0178 109.191 24.0592 107.931 24.0592ZM119.078 22.355C117.721 22.355 116.364 22.9231 115.879 24.1538L117.527 24.8166C117.915 24.1538 118.496 23.9645 119.175 23.9645C120.144 23.9645 121.017 24.5325 121.113 25.4793V25.574C120.823 25.3846 120.047 25.1006 119.272 25.1006C117.527 25.1006 115.783 26.0473 115.783 27.7515C115.783 29.3609 117.236 30.4024 118.787 30.4024C120.047 30.4024 120.629 29.8343 121.113 29.2663H121.21V30.213H122.955V25.6686C122.761 23.5858 121.113 22.355 119.078 22.355ZM118.884 28.8876C118.303 28.8876 117.43 28.6035 117.43 27.8462C117.43 26.8994 118.496 26.6154 119.369 26.6154C120.144 26.6154 120.532 26.8047 121.017 26.9941C120.823 28.1302 119.853 28.8876 118.884 28.8876ZM129.061 22.6391L127.026 27.7515H126.929L124.797 22.6391H122.858L126.057 29.8343L124.215 33.8106H126.057L131 22.6391H129.061ZM112.778 30.213H114.619V18.3787H112.778V30.213Z" fill="#DC0533" stroke="#DC0533" stroke-width="2" mask="url(#path-11-inside-1_499_1783)"/>
<path fill-rule="evenodd" clip-rule="evenodd" d="M20.3474 7.731L32.3758 19.9461L20.3028 32.2065C20.1134 31.928 20 31.5893 20 31.2117L20 8.78833C20 8.38196 20.1313 8.02063 20.3474 7.731ZM36.8955 15.3563L33.0024 19.3099L21.0457 7.16766C21.5474 6.93661 22.1571 6.92891 22.7045 7.2419L36.8955 15.3563ZM37.7651 24.1465L33.6289 19.9461L37.6972 15.8147L42.3122 18.4536C43.5142 19.1409 43.5142 20.8591 42.3122 21.5464L37.7651 24.1465ZM36.9634 24.6049L22.7045 32.7581C22.1308 33.0862 21.4885 33.0619 20.974 32.7974L33.0024 20.5824L36.9634 24.6049Z" fill="#DC0533"/>
</svg>
