<svg width="50" height="50" viewBox="0 0 50 50" fill="none" xmlns="http://www.w3.org/2000/svg">
<circle cx="25" cy="25" r="24.5" stroke="#DC0533"/>
<path fill-rule="evenodd" clip-rule="evenodd" d="M14 18.5C14 16.8431 15.3431 15.5 17 15.5H33C34.6569 15.5 36 16.8431 36 18.5V27.5C36 27.8506 35.9398 28.1872 35.8293 28.5H36C37.1046 28.5 38 29.3954 38 30.5V31.5C38 32.6046 37.1046 33.5 36 33.5H14C12.8954 33.5 12 32.6046 12 31.5V30.5C12 29.3954 12.8954 28.5 14 28.5H14.1707C14.0602 28.1872 14 27.8506 14 27.5V18.5ZM17 28.5H33C33.5523 28.5 34 28.0523 34 27.5V18.5C34 17.9477 33.5523 17.5 33 17.5H17C16.4477 17.5 16 17.9477 16 18.5V27.5C16 28.0523 16.4477 28.5 17 28.5ZM29.3038 19.9536C29.6943 20.3442 29.6943 20.9773 29.3038 21.3679L24.6254 26.0462C24.2349 26.4367 23.6018 26.4367 23.2112 26.0462L20.6965 23.5315C20.306 23.141 20.306 22.5078 20.6965 22.1173C21.0871 21.7268 21.7202 21.7268 22.1108 22.1173L23.9183 23.9249L27.8896 19.9536C28.2801 19.5631 28.9133 19.5631 29.3038 19.9536Z" fill="#1E1E1E"/>
</svg>
