<svg width="50" height="50" viewBox="0 0 50 50" fill="none" xmlns="http://www.w3.org/2000/svg">
<circle cx="25" cy="25" r="24.5" stroke="#DC0533"/>
<path d="M35.244 22.654V20.9802C35.245 19.5386 34.9647 18.111 34.419 16.7789C33.8732 15.4467 33.0728 14.2362 32.0634 13.2165C31.054 12.1968 29.8555 11.3879 28.5363 10.836C27.217 10.2841 25.803 10 24.375 10C22.947 10 21.533 10.2841 20.2138 10.836C18.8945 11.3879 17.696 12.1968 16.6866 13.2165C15.6772 14.2362 14.8768 15.4467 14.3311 16.7789C13.7853 18.111 13.505 19.5386 13.506 20.9802V22.654C12.8375 22.9409 12.2672 23.4199 11.8661 24.0314C11.465 24.6428 11.2508 25.3598 11.25 26.0931V28.9521C11.2511 29.9426 11.6414 30.8921 12.3351 31.5924C13.0289 32.2927 13.9695 32.6867 14.9506 32.6878H15.4333C16.006 32.6871 16.555 32.4572 16.9599 32.0485C17.3648 31.6397 17.5926 31.0855 17.5932 30.5074V24.5377C17.5926 23.9597 17.3648 23.4055 16.9599 22.9967C16.555 22.588 16.006 22.3581 15.4333 22.3574H15.3372V20.9802C15.3372 18.5605 16.2894 16.2399 17.9843 14.5289C19.6792 12.8179 21.978 11.8567 24.375 11.8567C26.772 11.8567 29.0708 12.8179 30.7657 14.5289C32.4606 16.2399 33.4128 18.5605 33.4128 20.9802V22.3574H33.3166C32.744 22.3581 32.195 22.588 31.7901 22.9967C31.3852 23.4055 31.1574 23.9597 31.1568 24.5377V30.5074C31.1575 31.0183 31.3356 31.5128 31.6602 31.9047C31.9848 32.2967 32.4353 32.5614 32.9332 32.6527C32.7328 33.4865 32.2724 34.2333 31.62 34.7832C30.9675 35.3331 30.1574 35.6569 29.3089 35.7071C29.2426 35.6102 29.1678 35.5194 29.0853 35.436C28.9072 35.255 28.6953 35.1116 28.4619 35.0139C28.2285 34.9162 27.9782 34.8662 27.7255 34.8668L25.8525 34.8662C25.3424 34.8661 24.8531 35.0706 24.4924 35.4346C24.1316 35.7987 23.9289 36.2925 23.9288 36.8075C23.9287 37.3224 24.1313 37.8163 24.4919 38.1805C24.8526 38.5446 25.3418 38.7493 25.8519 38.7493L27.7242 38.75H27.7249C28.1059 38.7495 28.4783 38.635 28.7948 38.4209C29.1113 38.2067 29.3578 37.9027 29.5031 37.5471C30.8209 37.4485 32.0659 36.8987 33.0322 35.9888C33.9984 35.0788 34.6281 33.8632 34.8171 32.543C35.5894 32.319 36.2688 31.8476 36.7527 31.1999C37.2366 30.5522 37.4989 29.7633 37.5 28.9521V26.0931C37.4992 25.3598 37.285 24.6428 36.8839 24.0314C36.4828 23.4199 35.9125 22.9409 35.244 22.654Z" fill="#1E1E1E"/>
</svg>
