<svg width="50" height="50" viewBox="0 0 50 50" fill="none" xmlns="http://www.w3.org/2000/svg">
<circle cx="25" cy="25" r="24.5" stroke="#DC0533"/>
<path fill-rule="evenodd" clip-rule="evenodd" d="M18.2662 13.4584C20.0522 11.7013 22.4746 10.7142 25.0005 10.7142C27.5263 10.7142 29.9487 11.7013 31.7348 13.4584C33.5208 15.2154 34.5242 17.5985 34.5242 20.0834C34.5242 22.5682 33.5208 24.9513 31.7348 26.7083L25.0005 33.3333L18.2662 26.7083C17.3818 25.8383 16.6802 24.8055 16.2016 23.6688C15.7229 22.5321 15.4766 21.3137 15.4766 20.0834C15.4766 18.853 15.7229 17.6346 16.2016 16.4979C16.6802 15.3612 17.3818 14.3284 18.2662 13.4584ZM25.0005 22.7601C25.7221 22.7601 26.4142 22.4781 26.9245 21.9761C27.4347 21.4741 27.7214 20.7933 27.7214 20.0834C27.7214 19.3734 27.4347 18.6926 26.9245 18.1906C26.4142 17.6886 25.7221 17.4066 25.0005 17.4066C24.2788 17.4066 23.5868 17.6886 23.0765 18.1906C22.5662 18.6926 22.2796 19.3734 22.2796 20.0834C22.2796 20.7933 22.5662 21.4741 23.0765 21.9761C23.5868 22.4781 24.2788 22.7601 25.0005 22.7601Z" fill="#1E1E1E"/>
<ellipse cx="25.0003" cy="39.2857" rx="8.33333" ry="2.38095" fill="#1E1E1E"/>
</svg>
