<svg width="50" height="50" viewBox="0 0 50 50" fill="none" xmlns="http://www.w3.org/2000/svg">
<circle cx="25" cy="25" r="24.5" stroke="#DC0533"/>
<path d="M24.9997 25.5465C27.9795 25.5465 30.4034 22.3838 30.4034 19.4042C30.4034 16.4246 27.9795 14 24.9997 14C22.0198 14 19.5957 16.4246 19.5957 19.4042C19.5962 22.3836 22.0201 25.5465 24.9997 25.5465Z" fill="#1E1E1E"/>
<path d="M29.0562 25.6019C28.008 26.4006 26.7003 26.8757 25.2838 26.8757H24.715C23.2983 26.8757 21.9904 26.4003 20.9424 25.6019C17.5198 26.1552 14.9062 29.1217 14.9062 32.7001C14.9062 34.6659 19.425 36.26 24.9994 36.26C30.5735 36.26 35.0926 34.6659 35.0926 32.7001C35.0926 29.1217 32.4788 26.1552 29.0562 25.6019Z" fill="#1E1E1E"/>
</svg>
