<svg width="40" height="40" viewBox="0 0 40 40" fill="none" xmlns="http://www.w3.org/2000/svg">
<g id="delivery">
<circle id="Ellipse 192" cx="20" cy="20" r="19.5" stroke="#DC0533"/>
<g id="truck">
<path id="Vector" d="M18 26.5C18 26.8978 17.842 27.2794 17.5607 27.5607C17.2794 27.842 16.8978 28 16.5 28C16.1022 28 15.7206 27.842 15.4393 27.5607C15.158 27.2794 15 26.8978 15 26.5C15 26.1022 15.158 25.7206 15.4393 25.4393C15.7206 25.158 16.1022 25 16.5 25C16.8978 25 17.2794 25.158 17.5607 25.4393C17.842 25.7206 18 26.1022 18 26.5ZM25 26.5C25 26.8978 24.842 27.2794 24.5607 27.5607C24.2794 27.842 23.8978 28 23.5 28C23.1022 28 22.7206 27.842 22.4393 27.5607C22.158 27.2794 22 26.8978 22 26.5C22 26.1022 22.158 25.7206 22.4393 25.4393C22.7206 25.158 23.1022 25 23.5 25C23.8978 25 24.2794 25.158 24.5607 25.4393C24.842 25.7206 25 26.1022 25 26.5Z" fill="#18181B"/>
<path id="Vector_2" d="M13 14C12.7348 14 12.4804 14.1054 12.2929 14.2929C12.1054 14.4804 12 14.7348 12 15V25C12 25.2652 12.1054 25.5196 12.2929 25.7071C12.4804 25.8946 12.7348 26 13 26H14.05C14.1648 25.4349 14.4714 24.9268 14.9179 24.5618C15.3644 24.1969 15.9233 23.9975 16.5 23.9975C17.0767 23.9975 17.6356 24.1969 18.0821 24.5618C18.5286 24.9268 18.8352 25.4349 18.95 26H20C20.2652 26 20.5196 25.8946 20.7071 25.7071C20.8946 25.5196 21 25.2652 21 25V15C21 14.7348 20.8946 14.4804 20.7071 14.2929C20.5196 14.1054 20.2652 14 20 14H13ZM24 17C23.7348 17 23.4804 17.1054 23.2929 17.2929C23.1054 17.4804 23 17.7348 23 18V24.05C23.3217 23.9843 23.6533 23.9826 23.9757 24.045C24.2981 24.1074 24.605 24.2328 24.879 24.4139C25.1529 24.5949 25.3885 24.8282 25.5723 25.1004C25.756 25.3725 25.8844 25.6782 25.95 26H27C27.2652 26 27.5196 25.8946 27.7071 25.7071C27.8946 25.5196 28 25.2652 28 25V20C27.9999 19.7348 27.8946 19.4805 27.707 19.293L25.707 17.293C25.5195 17.1055 25.2652 17.0001 25 17H24Z" fill="#18181B"/>
</g>
</g>
</svg>
