<svg width="54" height="54" viewBox="0 0 54 54" fill="none" xmlns="http://www.w3.org/2000/svg">
<rect width="54" height="54" rx="10" fill="#DD0533"/>
<path d="M24.9268 18.9297L21.8363 25.5709L26.8679 27.7313L26.8319 31.1922L10.7998 33.4125V43.2001C10.7998 43.2001 22.5268 43.0386 29.858 36.0331C36.0167 30.1503 32.7156 25.2384 27.5515 25.7997C27.4103 25.8111 27.3846 25.6818 27.5731 25.6357C30.5788 24.9753 36.2108 25.083 38.1389 31.2525C39.978 37.1357 35.5304 43.2001 35.5304 43.2001H43.1998V10.8L24.9268 18.9297Z" fill="#DC0533"/>
<path d="M10.7998 43.2001H10.8083C11.1652 43.1935 22.6425 42.9296 29.8587 36.0334C36.017 30.1501 32.7162 25.2386 27.5523 25.8011C27.4111 25.8113 27.3854 25.6832 27.5723 25.6355C30.5782 24.9751 36.2099 25.0831 38.1379 31.254C39.9766 37.1357 35.5308 43.2001 35.5308 43.2001H43.1998V10.8L24.9265 18.9294L21.8357 25.571L26.8675 27.7323L26.8328 31.192L10.7998 33.4128V43.2001Z" fill="white"/>
<path d="M24.1393 18.0395C17.9855 23.9852 21.2847 28.9466 26.4474 28.3781C26.5897 28.3695 26.613 28.4972 26.4257 28.5467C23.4214 29.2141 17.7885 29.1024 15.8606 22.8702C14.0215 16.9275 18.4692 10.8 18.4692 10.8H10.7998V35.9115C15.7468 36.7404 20.1626 36.4527 25.4375 33.9224C30.712 31.3924 30.8588 27.0085 26.876 27.0085C23.1397 27.0085 21.9181 24.4316 25.9163 21.2418C31.1382 17.0799 43.1998 18.7724 43.1998 18.7724V10.8C43.1998 10.8 31.4735 10.9629 24.1393 18.0395Z" fill="#DC0533"/>
<path d="M10.7998 10.8V35.9105C15.7451 36.741 20.1622 36.453 25.4371 33.9215C30.7136 31.39 30.8572 27.0079 26.876 27.0079C23.1393 27.0079 21.9177 24.4298 25.9163 21.2413C31.1378 17.0797 43.1998 18.7721 43.1998 18.7721V10.8C43.1998 10.8 31.4731 10.9613 24.1393 18.0392C17.9839 23.9847 21.2847 28.9459 26.4457 28.3775C26.5897 28.3672 26.6114 28.4966 26.4257 28.5461C23.4214 29.2134 17.7885 29.1017 15.8602 22.8698C14.0215 16.9272 18.4676 10.8 18.4676 10.8H10.7998Z" fill="white"/>
</svg>
