<svg width="50" height="50" viewBox="0 0 50 50" fill="none" xmlns="http://www.w3.org/2000/svg">
<circle cx="25" cy="25" r="24.5" stroke="#DC0533"/>
<path d="M29.3881 36.1873C32.3564 33.219 34 29.2694 34 25.05C34 20.8306 32.3564 16.8811 29.3881 13.9127C28.7012 13.2259 27.6218 13.2259 26.9349 13.9127C26.5915 14.2562 26.4198 14.6978 26.4198 15.1393C26.4198 15.5809 26.5915 16.0224 26.9349 16.3659C29.2654 18.6718 30.5411 21.7628 30.5411 25.05C30.5411 28.3372 29.2654 31.4282 26.9349 33.7342C26.2481 34.421 26.2481 35.5004 26.9349 36.1873C27.6218 36.8742 28.7257 36.8742 29.3881 36.1873Z" fill="#1E1E1E"/>
<path d="M24.7513 18.5247C24.0644 17.8378 22.9851 17.8378 22.2982 18.5247C21.9547 18.8681 21.783 19.3097 21.783 19.7513C21.783 20.1928 21.9547 20.6344 22.2982 20.9778C24.5551 23.2347 24.5551 26.8899 22.3227 29.1223C21.6358 29.7846 21.6358 30.8885 22.3227 31.5754C23.0096 32.2623 24.089 32.2623 24.7758 31.5754C28.3574 27.9693 28.3574 22.1308 24.7513 18.5247Z" fill="#1E1E1E"/>
<path d="M15.5523 25.0744C15.5523 26.5648 16.7604 27.7729 18.2508 27.7729C19.7411 27.7729 20.9492 26.5648 20.9492 25.0744C20.9492 23.5841 19.7411 22.376 18.2508 22.376C16.7604 22.376 15.5523 23.5841 15.5523 25.0744Z" fill="#1E1E1E"/>
</svg>
