<svg width="22" height="24" viewBox="0 0 22 24" fill="none" xmlns="http://www.w3.org/2000/svg">
<path fill-rule="evenodd" clip-rule="evenodd" d="M9.64306 19.0902L12.2831 20.6369V23.0412C12.2831 23.7779 11.4986 24.2386 10.8706 23.8706L0 17.5012V5.00397L10.8241 11.3463C11.7267 11.8753 12.2831 12.8537 12.2831 13.913V16.6192L10.454 15.5474C9.51241 14.9958 8.33636 15.6865 8.33636 16.7914C8.33636 17.7399 8.83452 18.6163 9.64306 19.0902ZM9.76507 18.045C9.50542 17.8935 9.34537 17.6125 9.34537 17.3082V17.0058C9.34537 16.5368 9.84446 16.243 10.2447 16.4765C10.5043 16.6278 10.6644 16.9087 10.6644 17.213V17.5154C10.6644 17.9846 10.1653 18.2784 9.76507 18.045Z" fill="#AF59C1"/>
<path fill-rule="evenodd" clip-rule="evenodd" d="M9.71631 0.959021V1.69591L18.4512 6.81398C19.3845 7.3609 19.9599 8.37294 19.9599 9.46809V17.8008L20.5871 18.1684C21.215 18.5364 21.9996 18.0756 21.9996 17.3389V8.2108C21.9996 7.1517 21.4432 6.17291 20.5404 5.64411L11.1287 0.129296C10.5006 -0.238495 9.71631 0.222131 9.71631 0.959021Z" fill="#DE492A"/>
<path fill-rule="evenodd" clip-rule="evenodd" d="M6.47949 2.86407V3.58321L15.2238 8.70651C16.1573 9.25362 16.7324 10.2655 16.7324 11.3606V19.7113L17.3504 20.0735C17.9783 20.4415 18.7628 19.9806 18.7628 19.2439V10.1158C18.7628 9.05655 18.2064 8.07796 17.3038 7.54915L7.89204 2.03434C7.26395 1.66636 6.47949 2.12718 6.47949 2.86407Z" fill="#F99D1C"/>
<path fill-rule="evenodd" clip-rule="evenodd" d="M3.23877 4.76106V5.48376L11.9783 10.6044C12.9116 11.1514 13.4869 12.1632 13.4869 13.2584V21.6055L14.1097 21.9707C14.7376 22.3384 15.5221 21.8778 15.5221 21.1409V12.0128C15.5221 10.9537 14.9656 9.97495 14.063 9.44615L4.65132 3.93153C4.02323 3.56355 3.23877 4.02417 3.23877 4.76106Z" fill="#37C2DC"/>
</svg>
