<svg width="50" height="50" viewBox="0 0 50 50" fill="none" xmlns="http://www.w3.org/2000/svg">
<circle cx="25" cy="25" r="24.5" stroke="#DC0533"/>
<path d="M35.3373 18.3298L25.7133 12.2086C25.4932 12.0704 25.2477 12 24.9999 12C24.7521 12 24.5066 12.0704 24.2866 12.2086L14.6626 18.3298C14.1347 18.6644 13.8845 19.3265 14.0512 19.9474C14.2179 20.5706 14.7575 21 15.3757 21H34.6242C35.2401 21 35.7821 20.5708 35.9488 19.9474C36.1156 19.3265 35.8654 18.6644 35.3375 18.3298H35.3373ZM24.9999 18.8391C24.0504 18.8391 23.2817 18.0339 23.2817 17.0396C23.2817 16.0453 24.0506 15.2402 24.9999 15.2402C25.9494 15.2402 26.7182 16.0454 26.7182 17.0396C26.7182 18.0339 25.9494 18.8391 24.9999 18.8391Z" fill="#1E1E1E"/>
<path d="M26 22H28V32H26V22Z" fill="#1E1E1E"/>
<path d="M30 22H32V32H30V22Z" fill="#1E1E1E"/>
<path d="M22 22H24V32H22V22Z" fill="#1E1E1E"/>
<path d="M18 22H20V32H18V22Z" fill="#1E1E1E"/>
<rect x="14" y="33" width="22" height="2" rx="1" fill="#1E1E1E"/>
<rect x="12" y="36" width="26" height="2" rx="1" fill="#1E1E1E"/>
</svg>
