<svg width="28" height="28" viewBox="0 0 28 28" fill="none" xmlns="http://www.w3.org/2000/svg">
<g clip-path="url(#clip0_5663_5385)">
<path d="M4.83968 19.1537L4.22414 18.5382C5.68117 14.709 8.10862 10.4517 12.0604 6.49989C16.3863 2.17398 21.3255 0.0501676 26.4588 1.48593C27.4254 6.15007 25.7708 11.5584 21.4449 15.8843C17.4931 19.8361 13.1525 22.1804 9.30562 23.6197L8.79103 23.1051M4.83968 19.1537L2.6966 21.7907L6.15404 25.2482L8.79103 23.1051M4.83968 19.1537L6.81536 21.1294M8.79103 23.1051L6.81536 21.1294M6.81536 21.1294L13.123 14.8217" stroke="currentColor" stroke-width="1.8" stroke-linecap="round"/>
<path d="M11.8881 6.67213L7.83708 6.91043C7.74092 6.91608 7.64844 6.9494 7.57076 7.00636L1.19594 11.6812C0.845362 11.9383 0.967265 12.4895 1.39357 12.5747L6.45497 13.587" stroke="currentColor" stroke-width="1.8" stroke-linecap="round"/>
<path d="M21.2565 16.0403L21.0182 20.0913C21.0125 20.1874 20.9792 20.2799 20.9222 20.3576L16.2474 26.7324C15.9903 27.083 15.4391 26.9611 15.3539 26.5348L14.3416 21.4734" stroke="currentColor" stroke-width="1.8" stroke-linecap="round"/>
<circle cx="19.791" cy="8.15401" r="2.95571" transform="rotate(45 19.791 8.15401)" stroke="currentColor" stroke-width="1.8"/>
</g>
<defs>
<clipPath id="clip0_5663_5385">
<rect width="28" height="28" fill="white"/>
</clipPath>
</defs>
</svg>
