<svg width="50" height="60" viewBox="0 0 50 60" fill="none" xmlns="http://www.w3.org/2000/svg">
<path d="M7.85152 7.81114L7.85155 7.81111C12.3989 3.29046 18.5674 0.75 25.0003 0.75C31.4331 0.75 37.6016 3.29046 42.149 7.81111C46.6962 12.3316 49.25 18.4618 49.25 24.8528C49.25 31.2438 46.6962 37.374 42.149 41.8945L25.0003 58.9425L7.85155 41.8945L7.85152 41.8945C5.59979 39.6562 3.81384 36.9992 2.59544 34.0752C1.37704 31.1512 0.75 28.0175 0.75 24.8528C0.75 21.6882 1.37704 18.5544 2.59544 15.6304C3.81384 12.7065 5.59979 10.0494 7.85152 7.81114Z" fill="#EF3124" stroke="white" stroke-width="1.5"/>
<path d="M17.3025 33.7301H32.8689V36.9812H17.3025V33.7301ZM21.9328 26.0572H28.0729L29.1091 29.3261H32.5137L27.9189 15.5849C27.4749 14.2655 26.9597 13.2076 25.2012 13.2076C23.4426 13.2076 22.9038 14.2477 22.442 15.5849L17.6341 29.3201H20.8255L21.9328 26.0572ZM25.0472 16.7736H25.1242L27.1906 23.3114H22.8683L25.0472 16.7736Z" fill="white"/>
</svg>
