<svg width="40" height="40" viewBox="0 0 40 40" fill="none" xmlns="http://www.w3.org/2000/svg">
<circle cx="20" cy="20" r="19.5" stroke="#DC0533"/>
<path d="M18.433 17.4179C18.588 17.3149 18.779 17.2219 19 17.1509V18.8489C18.7997 18.7861 18.609 18.6963 18.433 18.5819C18.07 18.3399 18 18.1139 18 17.9999C18 17.8859 18.07 17.6599 18.433 17.4179ZM21 22.8489V21.1509C21.22 21.2219 21.412 21.3149 21.567 21.4179C21.931 21.6609 22 21.8859 22 21.9999C22 22.1139 21.93 22.3399 21.567 22.5819C21.391 22.6963 21.2003 22.7861 21 22.8489Z" fill="#18181B"/>
<path fill-rule="evenodd" clip-rule="evenodd" d="M20 28C22.1217 28 24.1566 27.1571 25.6569 25.6569C27.1571 24.1566 28 22.1217 28 20C28 17.8783 27.1571 15.8434 25.6569 14.3431C24.1566 12.8429 22.1217 12 20 12C17.8783 12 15.8434 12.8429 14.3431 14.3431C12.8429 15.8434 12 17.8783 12 20C12 22.1217 12.8429 24.1566 14.3431 25.6569C15.8434 27.1571 17.8783 28 20 28ZM21 15C21 14.7348 20.8946 14.4804 20.7071 14.2929C20.5196 14.1054 20.2652 14 20 14C19.7348 14 19.4804 14.1054 19.2929 14.2929C19.1054 14.4804 19 14.7348 19 15V15.092C18.4027 15.1983 17.8328 15.4234 17.324 15.754C16.602 16.234 16 17.009 16 18C16 18.99 16.602 19.765 17.324 20.246C17.804 20.566 18.378 20.791 19 20.908V22.849C18.609 22.722 18.32 22.532 18.157 22.345C18.0724 22.2412 17.9678 22.1554 17.8494 22.0928C17.7311 22.0302 17.6013 21.992 17.4679 21.9804C17.3345 21.9689 17.2001 21.9843 17.0728 22.0257C16.9454 22.0671 16.8276 22.1336 16.7265 22.2214C16.6253 22.3091 16.5428 22.4163 16.4839 22.5365C16.4249 22.6568 16.3907 22.7876 16.3833 22.9214C16.3759 23.0551 16.3954 23.1889 16.4407 23.3149C16.486 23.441 16.5562 23.5566 16.647 23.655C17.209 24.304 18.06 24.731 19 24.908V25C19 25.2652 19.1054 25.5196 19.2929 25.7071C19.4804 25.8946 19.7348 26 20 26C20.2652 26 20.5196 25.8946 20.7071 25.7071C20.8946 25.5196 21 25.2652 21 25V24.908C21.5973 24.8017 22.1672 24.5766 22.676 24.246C23.398 23.766 24 22.991 24 22C24 21.01 23.398 20.235 22.676 19.754C22.1672 19.4234 21.5973 19.1983 21 19.092V17.151C21.391 17.278 21.68 17.468 21.843 17.655C21.9284 17.7563 22.0331 17.8396 22.1509 17.9002C22.2688 17.9607 22.3975 17.9972 22.5296 18.0075C22.6617 18.0178 22.7945 18.0018 22.9204 17.9604C23.0462 17.9189 23.1626 17.8529 23.2627 17.7661C23.3628 17.6793 23.4447 17.5735 23.5035 17.4548C23.5624 17.3361 23.5971 17.2069 23.6056 17.0747C23.6141 16.9424 23.5962 16.8098 23.553 16.6846C23.5098 16.5593 23.4422 16.4439 23.354 16.345C22.791 15.696 21.941 15.269 21 15.092V15Z" fill="#18181B"/>
</svg>
