<svg width="40" height="40" viewBox="0 0 40 40" fill="none" xmlns="http://www.w3.org/2000/svg">
<circle cx="20" cy="20" r="19.5" stroke="#DC0533"/>
<path d="M23 16C23 16.7956 22.6839 17.5587 22.1213 18.1213C21.5587 18.6839 20.7956 19 20 19C19.2044 19 18.4413 18.6839 17.8787 18.1213C17.3161 17.5587 17 16.7956 17 16C17 15.2044 17.3161 14.4413 17.8787 13.8787C18.4413 13.3161 19.2044 13 20 13C20.7956 13 21.5587 13.3161 22.1213 13.8787C22.6839 14.4413 23 15.2044 23 16ZM28 18C28 18.5304 27.7893 19.0391 27.4142 19.4142C27.0391 19.7893 26.5304 20 26 20C25.4696 20 24.9609 19.7893 24.5858 19.4142C24.2107 19.0391 24 18.5304 24 18C24 17.4696 24.2107 16.9609 24.5858 16.5858C24.9609 16.2107 25.4696 16 26 16C26.5304 16 27.0391 16.2107 27.4142 16.5858C27.7893 16.9609 28 17.4696 28 18ZM24 25C24 23.9391 23.5786 22.9217 22.8284 22.1716C22.0783 21.4214 21.0609 21 20 21C18.9391 21 17.9217 21.4214 17.1716 22.1716C16.4214 22.9217 16 23.9391 16 25V28H24V25ZM16 18C16 18.5304 15.7893 19.0391 15.4142 19.4142C15.0391 19.7893 14.5304 20 14 20C13.4696 20 12.9609 19.7893 12.5858 19.4142C12.2107 19.0391 12 18.5304 12 18C12 17.4696 12.2107 16.9609 12.5858 16.5858C12.9609 16.2107 13.4696 16 14 16C14.5304 16 15.0391 16.2107 15.4142 16.5858C15.7893 16.9609 16 17.4696 16 18ZM26 28V25C26.0014 23.9833 25.7433 22.983 25.25 22.094C25.6933 21.9805 26.1568 21.9698 26.6049 22.0627C27.053 22.1556 27.474 22.3496 27.8357 22.6299C28.1974 22.9102 28.4903 23.2695 28.6921 23.6802C28.8939 24.091 28.9992 24.5424 29 25V28H26ZM14.75 22.094C14.2567 22.983 13.9986 23.9833 14 25V28H11V25C10.9998 24.542 11.1045 24.0901 11.3059 23.6789C11.5074 23.2676 11.8004 22.9079 12.1624 22.6274C12.5244 22.3469 12.9458 22.153 13.3943 22.0605C13.8428 21.9681 14.3066 21.9795 14.75 22.094Z" fill="#18181B"/>
</svg>
