<svg width="50" height="60" viewBox="0 0 50 60" fill="none" xmlns="http://www.w3.org/2000/svg">
<path d="M7.85152 7.81114L7.85155 7.81111C12.3989 3.29046 18.5674 0.75 25.0003 0.75C31.4331 0.75 37.6016 3.29046 42.149 7.81111C46.6962 12.3316 49.25 18.4618 49.25 24.8528C49.25 31.2438 46.6962 37.374 42.149 41.8945L25.0003 58.9425L7.85155 41.8945L7.85152 41.8945C5.59979 39.6562 3.81384 36.9992 2.59544 34.0752C1.37704 31.1512 0.75 28.0175 0.75 24.8528C0.75 21.6882 1.37704 18.5544 2.59544 15.6304C3.81384 12.7065 5.59979 10.0494 7.85152 7.81114Z" fill="#0A2973" stroke="white" stroke-width="1.5"/>
<path fill-rule="evenodd" clip-rule="evenodd" d="M19.1855 18.8408L18.0372 22.0126H33.9501L35.0984 18.8408H19.1855ZM17.4627 23.5978L16.3144 26.7688H32.2273L33.3756 23.5978H17.4627ZM15.7435 28.3547L14.5952 31.5258H30.5081L31.6556 28.3547H15.7435Z" fill="#1495FD"/>
</svg>
