<svg width="50" height="70" viewBox="0 0 50 70" fill="none" xmlns="http://www.w3.org/2000/svg">
<path d="M7.84899 7.74497L7.84902 7.74494C12.3959 3.26745 18.5651 0.75 25.0003 0.75C31.4354 0.75 37.6047 3.26745 42.1515 7.74494C46.698 12.222 49.25 18.2918 49.25 24.6184C49.25 30.9449 46.698 37.0147 42.1515 41.4918L25.0003 58.3814L7.84902 41.4918L7.84899 41.4917C5.59759 39.2749 3.81229 36.6437 2.59446 33.7487C1.37665 30.8537 0.75 27.7512 0.75 24.6184C0.75 21.4855 1.37665 18.383 2.59446 15.488C3.81229 12.593 5.59759 9.9618 7.84899 7.74497Z" fill="#0A2973" stroke="white" stroke-width="1.5"/>
<ellipse cx="25.0001" cy="66.6981" rx="14.4737" ry="3.30189" fill="#0A2973"/>
<path fill-rule="evenodd" clip-rule="evenodd" d="M19.1855 18.8408L18.0372 22.0126H33.9501L35.0984 18.8408H19.1855ZM17.4627 23.5978L16.3144 26.7688H32.2273L33.3756 23.5978H17.4627ZM15.7435 28.3547L14.5952 31.5258H30.5081L31.6556 28.3547H15.7435Z" fill="#1495FD"/>
</svg>
