<svg width="40" height="40" viewBox="0 0 40 40" fill="none" xmlns="http://www.w3.org/2000/svg">
<circle cx="20" cy="20" r="19.5" stroke="#DC0533"/>
<g clip-path="url(#clip0_612_5655)">
<path d="M18.454 20.1833H16.5321C16.5125 20.1833 16.5027 20.1931 16.4929 20.2129C16.4438 21.0921 16.2771 22.0306 16.0418 22.8011C16.0418 22.811 16.0418 22.8208 16.0516 22.8307C16.0614 22.8406 16.0712 22.8406 16.081 22.8406H16.738C16.7576 22.8406 16.7674 22.8307 16.7674 22.8208C16.9537 22.2281 17.1008 21.4576 17.1596 20.8056H17.7872V22.811C17.7872 22.8307 17.8068 22.8505 17.8264 22.8505H18.454C18.4736 22.8505 18.4932 22.8307 18.4932 22.811V20.2129C18.4932 20.1931 18.4736 20.1833 18.454 20.1833ZM26.5828 20.1833H25.9552C25.9356 20.1833 25.916 20.203 25.916 20.2228V22.2281C25.7787 22.2676 25.6415 22.2874 25.4846 22.2874C25.0727 22.2874 24.9747 22.159 24.9747 21.6058V20.2228C24.9747 20.203 24.9551 20.1833 24.9355 20.1833H24.3177C24.2981 20.1833 24.2785 20.203 24.2785 20.2228V21.6749C24.2785 22.5838 24.5825 22.9295 25.3571 22.9295C25.7983 22.9295 26.2984 22.811 26.5926 22.7023C26.6024 22.6924 26.6122 22.6825 26.6122 22.6727V20.2228C26.622 20.1931 26.6024 20.1833 26.5828 20.1833ZM13.2865 20.1833H12.6491C12.6295 20.1833 12.6197 20.1931 12.6197 20.2129C12.5216 20.608 12.3157 21.2798 12.0411 21.9812L11.4038 20.2129C11.394 20.203 11.3842 20.1931 11.3744 20.1931H10.7272C10.7174 20.1931 10.7076 20.203 10.6978 20.2129C10.688 20.2228 10.688 20.2327 10.6978 20.2425L11.6587 22.89C11.5607 23.0974 11.4724 23.2654 11.3842 23.4234C11.3155 23.542 11.2567 23.6605 11.1979 23.7791C11.1881 23.7889 11.1881 23.7988 11.1979 23.8087C11.2077 23.8186 11.2175 23.8284 11.2273 23.8284H11.9235C11.9333 23.8284 11.9529 23.8186 11.9529 23.8087C12.0706 23.5815 12.2176 23.2654 12.3549 22.9394C12.7668 21.9713 13.0903 21.0625 13.3355 20.2327C13.3355 20.2228 13.3355 20.2129 13.3257 20.203C13.3061 20.1833 13.2963 20.1833 13.2865 20.1833ZM15.5711 22.2281C15.5711 22.2182 15.5613 22.2084 15.5515 22.2084H15.5221C15.3652 22.2676 15.0809 22.3072 14.8848 22.3072C14.4435 22.3072 14.2376 22.1886 14.2376 21.5169C14.2376 20.9736 14.3062 20.7266 14.8848 20.7266C15.0515 20.7266 15.1985 20.7463 15.3946 20.8056C15.4143 20.8056 15.4241 20.8056 15.4339 20.7859C15.5025 20.6476 15.5908 20.4796 15.6888 20.2722V20.2425C15.6888 20.2327 15.679 20.2228 15.6692 20.2228C15.4143 20.1438 15.1103 20.0944 14.8357 20.0944C13.9238 20.0944 13.512 20.529 13.512 21.507C13.512 22.4948 13.9238 22.9394 14.8357 22.9394C15.0613 22.9394 15.5221 22.89 15.7378 22.8011C15.7575 22.7912 15.7673 22.7714 15.7575 22.7517L15.5711 22.2281ZM21.5427 20.1833H20.9054C20.8858 20.1833 20.876 20.1931 20.876 20.2129C20.7779 20.6179 20.572 21.2798 20.2974 21.9812L19.6601 20.2129C19.6503 20.203 19.6405 20.1931 19.6306 20.1931H18.9835C18.9737 20.1931 18.9639 20.203 18.9541 20.2129C18.9443 20.2228 18.9443 20.2327 18.9541 20.2425L19.915 22.89C19.817 23.0974 19.7287 23.2654 19.6405 23.4234C19.5718 23.542 19.513 23.6605 19.4541 23.7889C19.4443 23.7988 19.4443 23.8087 19.4541 23.8186C19.464 23.8284 19.4738 23.8383 19.4836 23.8383H20.1798C20.1896 23.8383 20.2092 23.8284 20.2092 23.8186C20.3268 23.5914 20.4739 23.2752 20.6112 22.9493C21.0132 21.9812 21.3466 21.0723 21.5918 20.2425C21.5918 20.2327 21.5918 20.2228 21.582 20.2129C21.5623 20.1833 21.5525 20.1833 21.5427 20.1833ZM23.8961 20.1833H22.0428C22.0232 20.1833 22.0036 20.203 22.0036 20.2228V22.8208C22.0036 22.8406 22.0232 22.8604 22.0428 22.8604H22.6704C22.69 22.8604 22.7096 22.8406 22.7096 22.8208V20.8155H23.6803C23.6902 20.8155 23.7098 20.8056 23.7098 20.7957C23.7882 20.6179 23.8568 20.4302 23.9353 20.2425V20.2129C23.9157 20.1833 23.9059 20.1833 23.8961 20.1833Z" fill="#1E1E1E"/>
<path d="M14.0317 16.1912C13.1296 16.1912 12.7766 16.5863 12.7766 17.5841C12.7766 18.6016 13.1296 18.9967 14.0317 18.9967C14.9436 18.9967 15.2966 18.6016 15.2966 17.5841C15.2966 16.5765 14.9436 16.1912 14.0317 16.1912ZM14.0317 18.4139C13.6199 18.4139 13.4924 18.3052 13.4924 17.594C13.4924 16.8432 13.6297 16.774 14.0317 16.774C14.4435 16.774 14.5808 16.8432 14.5808 17.594C14.5808 18.3052 14.4533 18.4139 14.0317 18.4139ZM17.8068 18.3052C17.8068 18.2953 17.797 18.2855 17.7872 18.2855H17.7578C17.6009 18.3447 17.3165 18.3842 17.1204 18.3842C16.6792 18.3842 16.4733 18.2657 16.4733 17.594C16.4733 17.0506 16.5419 16.8037 17.1204 16.8037C17.2871 16.8037 17.4342 16.8234 17.6303 16.8827C17.6499 16.8827 17.6597 16.8827 17.6695 16.8629C17.7382 16.7246 17.8264 16.5567 17.9245 16.3493V16.3196C17.9245 16.3097 17.9147 16.2999 17.9049 16.2999C17.6499 16.2208 17.346 16.1714 17.0714 16.1714C16.1595 16.1714 15.7477 16.6061 15.7477 17.5841C15.7477 18.5719 16.1595 19.0165 17.0714 19.0165C17.2969 19.0165 17.7578 18.9671 17.9735 18.8782C17.9931 18.8683 18.0029 18.8485 17.9931 18.8288L17.8068 18.3052ZM12.5805 16.2604H10.7272C10.7076 16.2604 10.688 16.2801 10.688 16.2999V18.8979C10.688 18.9177 10.7076 18.9374 10.7272 18.9374H11.3548C11.3744 18.9374 11.394 18.9177 11.394 18.8979V16.8827H12.3549C12.3647 16.8827 12.3844 16.8728 12.3844 16.8629C12.4628 16.6851 12.5314 16.4974 12.6099 16.3097V16.2801C12.6001 16.2702 12.5903 16.2604 12.5805 16.2604Z" fill="#1E1E1E"/>
<path d="M29.5146 22.5734V22.5338C29.5146 22.5141 29.5146 22.4844 29.5244 22.4647C29.5539 22.0992 29.5735 21.6546 29.5931 21.141V21.1015C29.6029 20.7557 29.6127 20.3803 29.6127 19.9951C29.6127 19.6098 29.6029 19.2344 29.5931 18.8887V18.8491C29.5735 18.3453 29.5539 17.8909 29.5244 17.5254C29.5244 17.5057 29.5244 17.476 29.5146 17.4563V17.4168C29.5146 17.3772 29.5048 17.3476 29.5048 17.3081V17.2686C29.4754 16.8833 29.4558 16.6462 29.446 16.6265C29.446 16.587 29.4362 16.5474 29.4362 16.5178V16.4882C29.4264 16.419 29.4166 16.3598 29.397 16.2906C29.397 16.2807 29.397 16.2708 29.3872 16.261C29.2205 15.4608 28.7792 14.5816 28.2301 13.9198C28.0144 13.6629 27.7889 13.4357 27.5535 13.2579C27.5339 13.2381 27.2594 13.0406 26.8279 12.7343C26.3278 12.3886 25.612 11.9045 24.7982 11.4304C23.3469 10.5709 22.0624 9.96834 21.8859 9.89919C21.8761 9.89919 21.8761 9.88931 21.8761 9.88931C21.4937 9.72137 21.0328 9.60283 20.5327 9.55344C20.4347 9.54356 20.3366 9.53368 20.2386 9.53368C20.1405 9.5238 20.0523 9.5238 19.964 9.5238H19.8267C19.16 9.54356 18.5422 9.6621 18.0519 9.88931C17.9833 9.91895 16.6792 10.5215 15.1985 11.4007L15.1397 11.4304C13.6198 12.3293 12.4333 13.2184 12.3843 13.2579C12.0117 13.5345 11.6783 13.8901 11.3743 14.3445C11.3057 14.4433 11.3057 14.7002 11.5999 14.7002H12.3549C12.6785 14.7002 12.7569 14.5026 13.1197 14.2359C13.5218 13.9395 14.316 13.3468 15.7672 12.4775C16.8164 11.8551 17.797 11.3612 18.2775 11.134C18.2873 11.134 18.2971 11.1241 18.3069 11.1241C18.3069 11.1241 18.3167 11.1241 18.3167 11.1142C18.3167 11.1142 18.3265 11.1142 18.3265 11.1044C18.3363 11.1044 18.3461 11.0945 18.3461 11.0945C18.3559 11.0945 18.3657 11.0846 18.3755 11.0846C18.4932 11.0253 18.5716 10.9957 18.5716 10.9957C18.905 10.8475 19.3757 10.7487 19.8758 10.7389H20.0719C20.219 10.7389 20.366 10.7487 20.5033 10.7685C20.8073 10.808 21.0819 10.8673 21.3074 10.9661C21.327 10.9759 21.3564 10.9858 21.376 10.9957C21.376 10.9957 21.3858 11.0056 21.4152 11.0155C21.6408 11.1142 22.8567 11.6971 24.1804 12.4775C24.9649 12.9418 25.661 13.4061 26.1415 13.7419C26.5632 14.0383 26.8181 14.226 26.8279 14.2359C27.0142 14.3742 27.2005 14.5717 27.377 14.7891C27.8183 15.362 28.1811 16.1424 28.2399 16.745C28.2399 16.7549 28.2693 16.992 28.2987 17.397C28.2987 17.4266 28.2987 17.4464 28.3085 17.476V17.5353C28.3085 17.5748 28.3184 17.6044 28.3184 17.644V17.6835C28.3184 17.7032 28.3184 17.7329 28.3282 17.7526C28.3282 17.802 28.338 17.8514 28.338 17.9008C28.338 17.9304 28.338 17.9601 28.3478 17.9897V18.0095C28.3478 18.049 28.3478 18.0786 28.3576 18.1181V18.1972C28.387 18.7108 28.4066 19.3233 28.4066 19.9654C28.4066 20.6075 28.387 21.22 28.3576 21.7337V21.8127C28.3576 21.8522 28.3576 21.8819 28.3478 21.9214V21.9411C28.3478 21.9708 28.3478 22.0004 28.338 22.03C28.338 22.0794 28.3282 22.1288 28.3282 22.1782C28.3282 22.2078 28.3282 22.2276 28.3184 22.2474V22.2869C28.3184 22.3264 28.3085 22.356 28.3085 22.3955V22.4548C28.3085 22.4844 28.3085 22.5141 28.2987 22.5338C28.2693 22.9389 28.2399 23.1858 28.2399 23.1858C28.1811 23.7884 27.8183 24.5688 27.377 25.1418C27.2005 25.369 27.0142 25.5567 26.8279 25.695C26.8181 25.695 26.5632 25.8925 26.1415 26.1889C25.661 26.5248 24.955 26.9891 24.1804 27.4534C22.8567 28.2436 21.631 28.8166 21.4152 28.9154L21.376 28.9351C21.3564 28.945 21.327 28.9549 21.3074 28.9648C21.0819 29.0537 20.8073 29.1228 20.5033 29.1623C20.366 29.1821 20.219 29.192 20.0719 29.192H19.8758C19.3757 29.1821 18.905 29.0932 18.5716 28.9351C18.5716 28.9351 18.503 28.9055 18.3755 28.8462C18.3657 28.8363 18.3461 28.8363 18.3363 28.8265C18.3265 28.8166 18.3167 28.8166 18.3069 28.8067C18.2971 28.8067 18.2971 28.7968 18.2873 28.7968C18.2775 28.7968 18.2677 28.787 18.2578 28.787C18.248 28.7771 18.2382 28.7771 18.2186 28.7672H18.2088C17.7087 28.5696 16.7674 28.0955 15.7672 27.5027C14.3062 26.6433 13.5218 26.0407 13.1197 25.7444C12.7569 25.4776 12.6785 25.2801 12.3549 25.2801H11.5999C11.3057 25.2801 11.3057 25.5369 11.3743 25.6357C11.6783 26.0901 12.0117 26.4457 12.3843 26.7223C12.4333 26.7619 13.6296 27.6509 15.1397 28.5499C15.2181 28.5993 15.2966 28.6487 15.3848 28.6882C16.787 29.4982 17.9931 30.0514 18.0617 30.0909C18.5422 30.3082 19.1698 30.4367 19.8365 30.4564H19.9738C20.0621 30.4564 20.1503 30.4564 20.2386 30.4465C20.3366 30.4465 20.4347 30.4367 20.5327 30.4268C21.0328 30.3774 21.5035 30.2589 21.8761 30.0909C21.8761 30.0909 21.8859 30.0909 21.8859 30.081C22.0526 30.002 23.3469 29.3994 24.7884 28.5499C25.6022 28.0658 26.318 27.5917 26.8181 27.2459C27.2495 26.9397 27.5241 26.7421 27.5437 26.7223C27.779 26.5445 28.0046 26.3173 28.2203 26.0605C28.7694 25.3986 29.2107 24.5194 29.3774 23.7193C29.3774 23.7094 29.3774 23.6995 29.3872 23.6896C29.397 23.6205 29.4166 23.5513 29.4264 23.4921V23.4624C29.4362 23.4229 29.4362 23.3834 29.4362 23.3538C29.4362 23.334 29.4656 23.0969 29.495 22.7117V22.6721C29.5146 22.6425 29.5146 22.6129 29.5146 22.5734Z" fill="#1E1E1E"/>
</g>
<defs>
<clipPath id="clip0_612_5655">
<rect width="20.9524" height="20.9524" fill="white" transform="translate(9.52393 9.5238)"/>
</clipPath>
</defs>
</svg>
