<svg width="40" height="40" viewBox="0 0 40 40" fill="none" xmlns="http://www.w3.org/2000/svg">
<circle cx="20" cy="20" r="19.5" stroke="#DC0533"/>
<path d="M27.3245 13.4757C26.9944 13.1457 26.5468 12.9604 26.0802 12.9604C25.6135 12.9604 25.1659 13.1457 24.8358 13.4757L18.1602 20.1514V22.64H20.6488L27.3245 15.9643C27.6544 15.6343 27.8398 15.1867 27.8398 14.72C27.8398 14.2533 27.6544 13.8057 27.3245 13.4757Z" fill="#1E1E1E"/>
<path fill-rule="evenodd" clip-rule="evenodd" d="M13.7598 16.48C13.7598 16.0133 13.9452 15.5656 14.2753 15.2355C14.6053 14.9055 15.053 14.72 15.5198 14.72H19.0398C19.2732 14.72 19.497 14.8127 19.662 14.9778C19.8271 15.1428 19.9198 15.3666 19.9198 15.6C19.9198 15.8334 19.8271 16.0573 19.662 16.2223C19.497 16.3873 19.2732 16.48 19.0398 16.48H15.5198V25.28H24.3198V21.76C24.3198 21.5266 24.4125 21.3028 24.5775 21.1378C24.7425 20.9727 24.9664 20.88 25.1998 20.88C25.4332 20.88 25.657 20.9727 25.822 21.1378C25.9871 21.3028 26.0798 21.5266 26.0798 21.76V25.28C26.0798 25.7468 25.8943 26.1945 25.5643 26.5245C25.2342 26.8546 24.7865 27.04 24.3198 27.04H15.5198C15.053 27.04 14.6053 26.8546 14.2753 26.5245C13.9452 26.1945 13.7598 25.7468 13.7598 25.28V16.48Z" fill="#1E1E1E"/>
</svg>
