<svg width="50" height="50" viewBox="0 0 50 50" fill="none" xmlns="http://www.w3.org/2000/svg">
<circle cx="25" cy="25" r="24.5" stroke="#DC0533"/>
<path d="M33.6673 15.1667H16.334V17.3334L22.6282 22.0567C20.718 22.6866 19.136 24.0491 18.23 25.8449C17.324 27.6407 17.1681 29.7227 17.7965 31.6334C18.1074 32.5799 18.6019 33.4558 19.2516 34.211C19.9013 34.9662 20.6936 35.586 21.5831 36.0347C22.4725 36.4835 23.4418 36.7525 24.4353 36.8263C25.4288 36.9001 26.4271 36.7774 27.3732 36.465C28.8903 35.9663 30.2114 35.0014 31.1479 33.7078C32.0844 32.4142 32.5886 30.8579 32.5886 29.2609C32.5886 27.6638 32.0844 26.1075 31.1479 24.8139C30.2114 23.5203 28.8903 22.5554 27.3732 22.0567L33.6673 17.3334V15.1667ZM28.1857 34.125L25.0007 32.2617L21.8157 34.125L22.6607 30.5175L19.8548 28.0909L23.549 27.7767L25.0007 24.375L26.4523 27.7767L30.1465 28.0909L27.3407 30.5175L28.1857 34.125Z" fill="#1E1E1E"/>
</svg>
