<svg width="20" height="24" viewBox="0 0 20 24" fill="none" xmlns="http://www.w3.org/2000/svg">
<path d="M13.6019 3.84601C12.7295 4.85364 11.3335 5.64839 9.93757 5.53485C9.76308 4.17243 10.4465 2.72485 11.2463 1.83076C12.1187 0.794748 13.6455 0.0567677 14.8815 0C15.0269 1.41919 14.4598 2.81 13.6019 3.84601ZM14.867 5.8045C12.8458 5.69096 11.1154 6.92566 10.1557 6.92566C9.18143 6.92566 7.71279 5.86127 6.11327 5.88965C4.03389 5.91803 2.09993 7.06758 1.03843 8.89834C-1.14273 12.5599 0.471327 17.9812 2.57978 20.9615C3.6122 22.4374 4.84819 24.0553 6.47679 23.9985C8.01815 23.9418 8.62887 23.0193 10.4901 23.0193C12.3659 23.0193 12.904 23.9985 14.5326 23.9702C16.2193 23.9418 17.2808 22.4942 18.3132 21.0182C19.4911 19.3436 19.9709 17.7115 20 17.6264C19.9709 17.598 16.7428 16.3917 16.7137 12.7585C16.6846 9.72147 19.2584 8.27389 19.3747 8.18874C17.9206 6.08834 15.6522 5.86127 14.867 5.8045Z" fill="black"/>
</svg>
