<svg width="40" height="40" viewBox="0 0 40 40" fill="none" xmlns="http://www.w3.org/2000/svg">
<g id="star">
<circle id="Ellipse 768" cx="20" cy="20" r="19.5" stroke="#DC0533"/>
<g id="star_2">
<path id="Vector" d="M18.8479 11.8246C19.2111 10.7251 20.7886 10.7251 21.1505 11.8246L22.4459 15.7545C22.525 15.9939 22.6789 16.2024 22.8854 16.3503C23.092 16.4983 23.3407 16.5781 23.596 16.5782H27.7872C28.9603 16.5782 29.4469 18.0585 28.499 18.739L25.1093 21.1671C24.9023 21.3152 24.7482 21.5241 24.669 21.7638C24.5898 22.0036 24.5897 22.2619 24.6686 22.5018L25.964 26.4317C26.3272 27.5312 25.05 28.4468 24.0996 27.7663L20.7099 25.3382C20.5031 25.1902 20.2541 25.1104 19.9986 25.1104C19.7431 25.1104 19.4942 25.1902 19.2874 25.3382L15.8977 27.7663C14.9485 28.4468 13.6725 27.5312 14.0345 26.4317L15.3299 22.5018C15.4088 22.2619 15.4086 22.0036 15.3295 21.7638C15.2503 21.5241 15.0962 21.3152 14.8892 21.1671L11.5007 18.7402C10.5528 18.0597 11.0406 16.5794 12.2125 16.5794H16.4025C16.658 16.5795 16.907 16.4998 17.1138 16.3519C17.3206 16.2039 17.4746 15.9953 17.5538 15.7557L18.8492 11.8258L18.8479 11.8246Z" fill="#18181B"/>
</g>
</g>
</svg>
