<svg xmlns="http://www.w3.org/2000/svg" width="36" height="36" fill="none"><path fill="#2C2C2C" fill-rule="evenodd" d="M12.474 0h11.052C33.612 0 36 2.388 36 12.474v11.052C36 33.612 33.612 36 23.526 36H12.474C2.388 36 0 33.612 0 23.526V12.474C0 2.388 2.388 0 12.474 0Z" clip-rule="evenodd"/><path fill="#797979" fill-rule="evenodd" d="M22.064 25.406c1.05.462 1.443-.507 1.443-.507l2.777-14.046c-.022-.946-1.29-.374-1.29-.374L9.45 16.622s-.743.264-.677.726c.065.462.655.683.655.683l3.913 1.32s1.18 3.897 1.421 4.646c.219.726.416.748.416.748.218.088.415-.066.415-.066l2.536-2.311 3.934 3.038Zm1.39-12.065s.547-.33.525 0c0 0 .087.044-.197.352-.262.265-6.449 5.856-7.28 6.605a.232.232 0 0 0-.109.198l-.24 2.07c-.044.22-.328.242-.394.044l-1.027-3.39a.325.325 0 0 1 .131-.375l8.591-5.504Z" clip-rule="evenodd"/></svg>