<svg width="50" height="50" viewBox="0 0 50 50" fill="none" xmlns="http://www.w3.org/2000/svg">
<circle cx="25" cy="25" r="24.5" stroke="#DC0533"/>
<g clip-path="url(#clip0_2547_29685)">
<rect x="13.9746" y="15.0112" width="11.542" height="17.7713" rx="5.771" stroke="black" stroke-width="3"/>
<path d="M29.2203 34.2109V21.3589H33.3243C34.9803 21.3589 36.1863 21.6949 36.9423 22.3669C37.7103 23.0389 38.0943 23.9629 38.0943 25.1389C38.0943 25.8349 37.9383 26.4889 37.6263 27.1009C37.3143 27.7129 36.7923 28.2049 36.0603 28.5769C35.3403 28.9489 34.3563 29.1349 33.1083 29.1349H31.9383V34.2109H29.2203ZM27.7803 32.2849V30.5389H34.7103V32.2849H27.7803ZM27.7803 29.1349V26.9029H33.0543V29.1349H27.7803ZM32.8383 26.9029C33.3543 26.9029 33.7983 26.8489 34.1703 26.7409C34.5423 26.6209 34.8303 26.4349 35.0343 26.1829C35.2383 25.9309 35.3403 25.6129 35.3403 25.2289C35.3403 24.6769 35.1663 24.2689 34.8183 24.0049C34.4703 23.7289 33.9243 23.5909 33.1803 23.5909H31.9383V26.9029H32.8383Z" fill="black"/>
</g>
<defs>
<clipPath id="clip0_2547_29685">
<rect width="26.1905" height="26.1905" fill="white" transform="translate(11.9043 11.9048)"/>
</clipPath>
</defs>
</svg>
