<svg width="40" height="40" viewBox="0 0 40 40" fill="none" xmlns="http://www.w3.org/2000/svg">
<g id="history">
<circle id="Ellipse 768" cx="20" cy="20" r="19.5" stroke="#DC0533"/>
<g id="book-open">
<path id="Vector" d="M18.875 14.9181C17.6484 14.3119 16.3017 13.9979 14.9375 14C13.5256 14 12.1891 14.3311 11 14.9181V26.3366C12.2266 25.7305 13.5733 25.4165 14.9375 25.4185C16.8151 25.4185 18.5578 26.0009 20 27C21.4918 25.9669 23.2565 25.4156 25.0625 25.4185C26.4744 25.4185 27.8109 25.7497 29 26.3366V14.9181C27.7734 14.3119 26.4267 13.9979 25.0625 14C23.6506 14 22.3141 14.3311 21.125 14.9181V23.1348C21.125 23.4377 21.0065 23.7281 20.7955 23.9422C20.5845 24.1564 20.2984 24.2767 20 24.2767C19.7016 24.2767 19.4155 24.1564 19.2045 23.9422C18.9935 23.7281 18.875 23.4377 18.875 23.1348V14.9181Z" fill="#1E1E1E"/>
</g>
</g>
</svg>
