<svg width="50" height="70" viewBox="0 0 50 70" fill="none" xmlns="http://www.w3.org/2000/svg">
<path d="M7.84899 7.74496L7.84902 7.74494C12.3959 3.26745 18.5651 0.75 25.0003 0.75C31.4354 0.75 37.6047 3.26745 42.1515 7.74494C46.698 12.222 49.25 18.2918 49.25 24.6183C49.25 30.9449 46.698 37.0146 42.1515 41.4918L25.0003 58.3813L7.84902 41.4918L7.84899 41.4917C5.59759 39.2749 3.81229 36.6437 2.59446 33.7487C1.37665 30.8537 0.75 27.7512 0.75 24.6183C0.75 21.4855 1.37665 18.383 2.59446 15.488C3.81229 12.593 5.59759 9.96179 7.84899 7.74496Z" fill="#00B4E3" stroke="white" stroke-width="1.5"/>
<path fill-rule="evenodd" clip-rule="evenodd" d="M33.1861 25.5083C33.1861 28.4066 31.6607 30.9997 29.2201 32.3217L28.6608 32.576C28.4574 32.6777 28.254 32.7285 28.0506 32.7285C27.6439 32.7285 27.3896 32.576 27.1862 32.2709C27.0337 32.0167 26.9828 31.7624 27.0337 31.4574C27.1354 31.0506 27.4405 30.8472 27.5422 30.7963C28.9659 30.1353 29.932 28.6608 29.932 27.0845V22.8643C29.932 21.2372 29.0167 19.7626 27.593 19.1525C27.593 19.1525 27.1862 18.9491 27.0845 18.4406C27.0337 18.1355 27.0845 17.8813 27.2371 17.627C27.4405 17.322 27.7455 17.1694 28.1015 17.1694C28.3049 17.1694 28.5082 17.2203 28.6608 17.322C28.6608 17.322 29.1693 17.5762 29.2201 17.5762C31.6607 18.8474 33.1861 21.4914 33.1861 24.3897V25.5083ZM22.5083 30.7455C22.61 30.7963 22.9151 30.9997 23.0168 31.4065C23.0676 31.7116 23.0168 31.9658 22.9151 32.2201C22.7117 32.5251 22.4066 32.6777 22.0507 32.6777C21.8473 32.6777 21.6439 32.6268 21.4406 32.5251L20.8304 32.3217C18.3898 31.0506 16.8643 28.4066 16.8643 25.5083V24.288C16.8643 21.3897 18.3898 18.7965 20.8304 17.4745L21.3897 17.2203C21.5931 17.1186 21.7965 17.0677 21.9999 17.0677C22.4066 17.0677 22.7117 17.2203 22.8643 17.5254C23.0168 17.7796 23.0676 18.0338 22.966 18.3389C22.8643 18.7965 22.4575 18.9999 22.4575 19.0508C21.0338 19.7118 20.1185 21.1355 20.1185 22.7626V26.9828C20.1185 28.6608 21.0338 30.1353 22.5083 30.7455ZM24.9998 13C18.3898 13 13 18.3389 13 24.8981C13 31.4574 18.3898 36.7963 24.9998 36.7963C31.6607 36.7963 36.9996 31.4574 36.9996 24.8981C37.0505 18.3389 31.6607 13 24.9998 13Z" fill="white"/>
<ellipse cx="25" cy="66.6981" rx="14.4737" ry="3.30188" fill="#00B4E3"/>
</svg>
