<svg width="151" height="40" viewBox="0 0 151 40" fill="none" xmlns="http://www.w3.org/2000/svg">
<rect width="151" height="40" rx="20" fill="#F2F2F2"/>
<path d="M54.878 14.3718H54.1746V12.3795H54.7775C55.28 11.981 55.5815 11.184 55.5815 10.0882V7.09967H59.6014V12.3795H60.3049V14.3718H59.6014V13.0768H54.9785V14.3718H54.878ZM56.285 10.0882C56.285 10.9848 56.084 11.7817 55.682 12.3795H58.6969V7.797H56.1845V10.0882H56.285Z" fill="#DC0533" stroke="#DC0533" stroke-width="0.173913" stroke-miterlimit="10"/>
<path d="M66.2343 12.2798C65.6313 12.8776 64.9278 13.1764 64.0234 13.1764C63.1189 13.1764 62.4154 12.8776 61.8124 12.2798C61.2095 11.6821 60.908 10.9848 60.908 10.0882C60.908 9.19167 61.2095 8.49434 61.8124 7.89663C62.4154 7.29892 63.1189 7.00006 64.0234 7.00006C64.9278 7.00006 65.6313 7.29892 66.2343 7.89663C66.8373 8.49434 67.1388 9.19167 67.1388 10.0882C67.1388 10.9848 66.8373 11.6821 66.2343 12.2798ZM62.4154 11.7817C62.8174 12.1802 63.4204 12.4791 64.0234 12.4791C64.6264 12.4791 65.2293 12.2798 65.6313 11.7817C66.0333 11.3833 66.3348 10.7856 66.3348 10.0882C66.3348 9.39091 66.1338 8.79319 65.6313 8.39472C65.2293 7.99625 64.6264 7.69739 64.0234 7.69739C63.4204 7.69739 62.8174 7.89663 62.4154 8.39472C62.0134 8.79319 61.7119 9.39091 61.7119 10.0882C61.7119 10.7856 61.9129 11.3833 62.4154 11.7817Z" fill="#DC0533" stroke="#DC0533" stroke-width="0.173913" stroke-miterlimit="10"/>
<path d="M71.058 13.1764C70.1536 13.1764 69.4501 12.8776 68.8471 12.2798C68.2441 11.6821 67.9426 10.9848 67.9426 10.0882C67.9426 9.19167 68.2441 8.49434 68.8471 7.89663C69.4501 7.29892 70.1536 7.00006 71.058 7.00006C71.9625 7.00006 72.666 7.29892 73.269 7.99625L72.7665 8.49434C72.3645 7.99625 71.7615 7.69739 71.058 7.69739C70.3546 7.69739 69.8521 7.89663 69.3496 8.39472C68.8471 8.79319 68.6461 9.39091 68.6461 10.0882C68.6461 10.7856 68.8471 11.3833 69.3496 11.7817C69.7516 12.1802 70.3546 12.4791 71.058 12.4791C71.7615 12.4791 72.3645 12.1802 72.867 11.5825L73.3695 12.0806C73.068 12.3795 72.7665 12.6783 72.3645 12.8776C71.9625 13.0768 71.5605 13.1764 71.058 13.1764Z" fill="#DC0533" stroke="#DC0533" stroke-width="0.173913" stroke-miterlimit="10"/>
<path d="M76.5855 13.0768H75.7815V7.797H74.0731V7.09967H78.1934V7.797H76.485V13.0768H76.5855Z" fill="#DC0533" stroke="#DC0533" stroke-width="0.173913" stroke-miterlimit="10"/>
<path d="M83.5197 7.09967L81.2082 12.1802C80.9067 12.8775 80.4043 13.276 79.8013 13.276C79.6003 13.276 79.3993 13.276 79.1983 13.1764L79.3993 12.4791C79.4998 12.5787 79.7008 12.5787 79.8013 12.5787C80.0023 12.5787 80.1028 12.5787 80.2033 12.4791C80.3038 12.3795 80.4043 12.2798 80.5047 12.0806L80.7057 11.5825L78.6958 7.19929H79.6003L81.1077 10.5863L82.6152 7.09967H83.5197Z" fill="#DC0533" stroke="#DC0533" stroke-width="0.173913" stroke-miterlimit="10"/>
<path d="M84.4243 13.0768V7.09967H88.7456V13.0768H87.9417V7.797H85.1277V13.0768H84.4243Z" fill="#DC0533" stroke="#DC0533" stroke-width="0.173913" stroke-miterlimit="10"/>
<path d="M90.1525 13.0768V7.09967H90.9564V9.68975H93.9714V7.09967H94.7754V13.0768H93.9714V10.3871H90.9564V13.0768H90.1525Z" fill="#DC0533" stroke="#DC0533" stroke-width="0.173913" stroke-miterlimit="10"/>
<path d="M101.107 12.2798C100.504 12.8776 99.8004 13.1764 98.8959 13.1764C97.9914 13.1764 97.2879 12.8776 96.6849 12.2798C96.0819 11.6821 95.7805 10.9848 95.7805 10.0882C95.7805 9.19167 96.0819 8.49434 96.6849 7.89663C97.2879 7.29892 97.9914 7.00006 98.8959 7.00006C99.8004 7.00006 100.504 7.29892 101.107 7.89663C101.71 8.49434 102.011 9.19167 102.011 10.0882C101.911 10.9848 101.609 11.6821 101.107 12.2798ZM97.1874 11.7817C97.5894 12.1802 98.1924 12.4791 98.7954 12.4791C99.3984 12.4791 100.001 12.2798 100.403 11.7817C100.805 11.3833 101.107 10.7856 101.107 10.0882C101.107 9.39091 100.906 8.79319 100.403 8.39472C100.001 7.99625 99.3984 7.69739 98.7954 7.69739C98.1924 7.69739 97.5894 7.89663 97.1874 8.39472C96.7854 8.79319 96.4839 9.39091 96.4839 10.0882C96.4839 10.7856 96.7854 11.3833 97.1874 11.7817Z" fill="#DC0533" stroke="#DC0533" stroke-width="0.173913" stroke-miterlimit="10"/>
<path d="M105.127 13.0768V7.09967H107.338C107.84 7.09967 108.242 7.29891 108.544 7.59776C108.845 7.89662 109.046 8.29509 109.046 8.69357C109.046 8.99242 108.946 9.19166 108.845 9.49051C108.745 9.68975 108.544 9.88899 108.242 9.98861C108.544 10.0882 108.745 10.2875 108.946 10.4867C109.147 10.6859 109.247 10.9848 109.247 11.3833C109.247 11.8814 109.046 12.2798 108.745 12.5787C108.343 12.8775 107.941 13.0768 107.438 13.0768H105.127ZM105.931 9.68975H107.338C107.639 9.68975 107.84 9.59013 108.041 9.3909C108.242 9.19166 108.343 8.99242 108.343 8.79319C108.343 8.59395 108.142 8.29509 108.041 8.09586C107.84 7.89662 107.639 7.797 107.338 7.797H105.931V9.68975ZM105.931 12.3795H107.539C107.84 12.3795 108.041 12.2798 108.242 12.0806C108.443 11.8814 108.544 11.6821 108.544 11.3833C108.544 11.184 108.443 10.8852 108.242 10.6859C108.041 10.4867 107.84 10.3871 107.539 10.3871H106.031V12.3795H105.931Z" fill="#DC0533" stroke="#DC0533" stroke-width="0.173913" stroke-miterlimit="10"/>
<path fill-rule="evenodd" clip-rule="evenodd" d="M39.8219 7.00002H28.3687C22.9734 7.00002 21 8.95905 21 14.3151V25.685C21 31.0409 22.9734 33 28.3686 33H39.8183C45.2135 33 47.1905 31.0409 47.1905 25.685V14.3151C47.1905 8.95905 45.2168 7.00002 39.8219 7.00002ZM26.1865 20.0024H26.881V23.4016H26.1865V22.021H24.6177V23.4016H23.9229V20.0024H24.6177V21.3735H26.1865V20.0024ZM30.1001 21.948C30.1001 22.5006 29.8238 22.7959 29.3218 22.7959C28.817 22.7959 28.5391 22.4923 28.5391 21.9244V20.0042H27.8443V21.948C27.8443 22.9041 28.3794 23.4524 29.3123 23.4524C30.2543 23.4524 30.7946 22.8938 30.7946 21.9197V20.0022H30.1001V21.948ZM38.1294 22.3397L37.3521 20.0022H36.785L36.0077 22.3397L35.2512 20.0039H34.5117L35.7052 23.4014H36.2804L37.059 21.1696L37.8374 23.4014H38.4175L39.608 20.0039H38.8876L38.1294 22.3397ZM40.8536 21.9386H42.117V21.3197H40.8536V20.624H42.6877V20.0044H40.1679V23.3994H42.7539V22.7802H40.8536V21.9386ZM43.5821 23.3971H44.2677V20.0023H43.5821V23.3971ZM32.1678 22.6919L31.8562 23.3996H31.147L32.6553 20.0024H33.2682L34.7707 23.3996H34.0422L33.7348 22.6919H32.1678ZM32.4262 22.079H33.4765L32.9498 20.8624L32.4262 22.079ZM29.7357 11.3464C29.7357 13.7328 31.6914 15.6742 34.0951 15.6742C36.499 15.6742 38.4548 13.7328 38.4548 11.3464H37.8388C37.8388 13.3954 36.1594 15.0628 34.0951 15.0628C32.031 15.0628 30.3516 13.3954 30.3516 11.3464H29.7357Z" fill="#DC0533"/>
<path d="M54.1746 29.6961L58.4473 18.4583H60.0334L64.5869 29.6961H62.9097L61.612 26.2926H56.9598L55.7379 29.6961H54.1746ZM57.3848 25.0814H61.1566L59.9955 21.9692C59.6413 21.0237 59.3782 20.2469 59.2062 19.6388C59.0645 20.3594 58.8647 21.0748 58.6067 21.7852L57.3848 25.0814Z" fill="#DC0533"/>
<path d="M65.5887 32.816V21.5552H66.8333V22.6131C67.1268 22.1991 67.4582 21.8899 67.8275 21.6855C68.1969 21.476 68.6446 21.3712 69.1708 21.3712C69.8589 21.3712 70.466 21.5501 70.9922 21.9078C71.5184 22.2656 71.9156 22.7715 72.1837 23.4256C72.4519 24.0746 72.5859 24.7875 72.5859 25.5643C72.5859 26.3973 72.4367 27.1486 72.1382 27.818C71.8447 28.4824 71.4147 28.9934 70.848 29.3511C70.2864 29.7038 69.6945 29.8801 69.0722 29.8801C68.6168 29.8801 68.207 29.783 67.8427 29.5888C67.4835 29.3946 67.1875 29.1493 66.9548 28.8529V32.816H65.5887ZM66.8257 25.6716C66.8257 26.7193 67.0357 27.4935 67.4557 27.9943C67.8756 28.4951 68.3841 28.7456 68.9811 28.7456C69.5882 28.7456 70.1068 28.4875 70.5369 27.9713C70.972 27.4501 71.1895 26.6452 71.1895 25.5567C71.1895 24.5192 70.977 23.7425 70.552 23.2263C70.1321 22.7102 69.6287 22.4521 69.0418 22.4521C68.46 22.4521 67.9439 22.728 67.4936 23.28C67.0484 23.8268 66.8257 24.624 66.8257 25.6716Z" fill="#DC0533"/>
<path d="M74.2404 32.816V21.5552H75.485V22.6131C75.7785 22.1991 76.1099 21.8899 76.4792 21.6855C76.8485 21.476 77.2963 21.3712 77.8225 21.3712C78.5106 21.3712 79.1177 21.5501 79.6439 21.9078C80.1701 22.2656 80.5673 22.7715 80.8354 23.4256C81.1036 24.0746 81.2376 24.7875 81.2376 25.5643C81.2376 26.3973 81.0884 27.1486 80.7899 27.818C80.4964 28.4824 80.0664 28.9934 79.4997 29.3511C78.9381 29.7038 78.3461 29.8801 77.7238 29.8801C77.2685 29.8801 76.8587 29.783 76.4944 29.5888C76.1352 29.3946 75.8392 29.1493 75.6064 28.8529V32.816H74.2404ZM75.4774 25.6716C75.4774 26.7193 75.6874 27.4935 76.1073 27.9943C76.5273 28.4951 77.0357 28.7456 77.6328 28.7456C78.2399 28.7456 78.7585 28.4875 79.1885 27.9713C79.6237 27.4501 79.8412 26.6452 79.8412 25.5567C79.8412 24.5192 79.6287 23.7425 79.2037 23.2263C78.7838 22.7102 78.2804 22.4521 77.6935 22.4521C77.1116 22.4521 76.5956 22.728 76.1453 23.28C75.7 23.8268 75.4774 24.624 75.4774 25.6716Z" fill="#DC0533"/>
<path d="M88.2728 25.2884V23.9699L92.9857 23.9622V28.1323C92.2622 28.7149 91.5159 29.1544 90.7469 29.4508C89.9779 29.7421 89.1886 29.8877 88.3791 29.8877C87.2862 29.8877 86.292 29.6527 85.3965 29.1825C84.506 28.7072 83.8331 28.0224 83.3778 27.1281C82.9224 26.2338 82.6948 25.2347 82.6948 24.1309C82.6948 23.0372 82.9199 22.0177 83.3702 21.0723C83.8255 20.1217 84.4782 19.4165 85.3282 18.9566C86.1782 18.4966 87.1572 18.2667 88.2652 18.2667C89.0697 18.2667 89.7957 18.3995 90.4433 18.6653C91.096 18.9259 91.607 19.2913 91.9763 19.7615C92.3457 20.2316 92.6265 20.8449 92.8187 21.6012L91.4906 21.9692C91.3237 21.3968 91.1162 20.9471 90.8683 20.62C90.6204 20.2929 90.2662 20.0323 89.8058 19.8381C89.3454 19.6388 88.8344 19.5392 88.2728 19.5392C87.5999 19.5392 87.0181 19.6439 86.5273 19.8534C86.0365 20.0579 85.6394 20.3287 85.3358 20.666C85.0373 21.0033 84.8046 21.3738 84.6376 21.7775C84.3543 22.4725 84.2126 23.2263 84.2126 24.0389C84.2126 25.0405 84.3821 25.8786 84.7211 26.5532C85.0651 27.2278 85.5635 27.7286 86.2161 28.0556C86.8688 28.3827 87.562 28.5462 88.2956 28.5462C88.9331 28.5462 89.5554 28.4236 90.1625 28.1783C90.7697 27.9279 91.2301 27.6621 91.5438 27.3811V25.2884H88.2728Z" fill="#DC0533"/>
<path d="M100.249 28.6919C99.7426 29.1263 99.2544 29.4329 98.7838 29.6118C98.3184 29.7906 97.8175 29.8801 97.2812 29.8801C96.3958 29.8801 95.7153 29.6629 95.2397 29.2285C94.7641 28.789 94.5263 28.2294 94.5263 27.5497C94.5263 27.1511 94.6148 26.7883 94.7919 26.4612C94.9741 26.129 95.2093 25.8633 95.4977 25.664C95.7912 25.4647 96.12 25.3139 96.4843 25.2117C96.7525 25.1402 97.1572 25.0712 97.6986 25.0047C98.8016 24.8719 99.6136 24.7134 100.135 24.5295C100.14 24.3404 100.142 24.2203 100.142 24.1692C100.142 23.607 100.013 23.211 99.7553 22.981C99.4062 22.6693 98.8876 22.5134 98.1995 22.5134C97.5569 22.5134 97.0813 22.6284 96.7727 22.8584C96.4691 23.0832 96.244 23.4844 96.0973 24.0619L94.7616 23.8779C94.883 23.3004 95.0829 22.8354 95.3611 22.4827C95.6394 22.125 96.0416 21.8516 96.5678 21.6625C97.094 21.4683 97.7037 21.3712 98.3968 21.3712C99.0849 21.3712 99.644 21.453 100.074 21.6165C100.504 21.7801 100.82 21.987 101.023 22.2374C101.225 22.4827 101.367 22.7945 101.448 23.1727C101.493 23.4077 101.516 23.8319 101.516 24.4451V26.2849C101.516 27.5676 101.544 28.3802 101.599 28.7226C101.66 29.0598 101.777 29.3844 101.949 29.6961H100.522C100.38 29.4099 100.289 29.0752 100.249 28.6919ZM100.135 25.6103C99.6389 25.8147 98.8952 25.9885 97.9035 26.1316C97.3419 26.2133 96.9447 26.3053 96.712 26.4075C96.4793 26.5098 96.2997 26.6605 96.1732 26.8598C96.0467 27.054 95.9834 27.2712 95.9834 27.5114C95.9834 27.8793 96.12 28.186 96.3933 28.4313C96.6715 28.6766 97.0763 28.7992 97.6075 28.7992C98.1337 28.7992 98.6017 28.6842 99.0115 28.4543C99.4213 28.2192 99.7224 27.8998 99.9146 27.4961C100.061 27.1843 100.135 26.7244 100.135 26.1163V25.6103Z" fill="#DC0533"/>
<path d="M103.611 29.6961V18.4583H104.977V29.6961H103.611Z" fill="#DC0533"/>
<path d="M107.071 29.6961V18.4583H108.437V29.6961H107.071Z" fill="#DC0533"/>
<path d="M116.08 27.0745L117.491 27.2508C117.269 28.0838 116.856 28.7302 116.254 29.1902C115.652 29.6501 114.883 29.8801 113.947 29.8801C112.768 29.8801 111.832 29.5147 111.139 28.7839C110.451 28.048 110.107 27.0182 110.107 25.6946C110.107 24.3251 110.456 23.2621 111.154 22.5057C111.852 21.7494 112.758 21.3712 113.871 21.3712C114.949 21.3712 115.829 21.7417 116.512 22.4827C117.195 23.2238 117.537 24.2663 117.537 25.6103C117.537 25.6921 117.534 25.8147 117.529 25.9783H111.519C111.569 26.8726 111.82 27.5574 112.27 28.0327C112.72 28.5079 113.282 28.7456 113.955 28.7456C114.456 28.7456 114.883 28.6127 115.237 28.3469C115.591 28.0812 115.872 27.657 116.08 27.0745ZM111.594 24.8438H116.095C116.034 24.159 115.862 23.6454 115.579 23.303C115.144 22.7715 114.579 22.5057 113.886 22.5057C113.259 22.5057 112.73 22.7178 112.3 23.142C111.875 23.5662 111.64 24.1334 111.594 24.8438Z" fill="#DC0533"/>
<path d="M119.199 29.6961V21.5552H120.428V22.7894C120.742 22.2119 121.03 21.8312 121.293 21.6472C121.562 21.4632 121.855 21.3712 122.174 21.3712C122.634 21.3712 123.102 21.5194 123.578 21.8158L123.107 23.096C122.773 22.8967 122.439 22.797 122.105 22.797C121.807 22.797 121.539 22.889 121.301 23.073C121.063 23.2519 120.894 23.5023 120.793 23.8242C120.641 24.3148 120.565 24.8514 120.565 25.434V29.6961H119.199Z" fill="#DC0533"/>
<path d="M124.329 32.8313L124.177 31.5358C124.476 31.6176 124.736 31.6585 124.959 31.6585C125.263 31.6585 125.505 31.6074 125.688 31.5052C125.87 31.403 126.019 31.2599 126.135 31.0759C126.221 30.9379 126.36 30.5955 126.553 30.0487C126.578 29.9721 126.618 29.8596 126.674 29.7114L123.616 21.5552H125.088L126.765 26.2696C126.983 26.8675 127.178 27.4961 127.35 28.1553C127.506 27.5216 127.694 26.9033 127.911 26.3002L129.634 21.5552H131L127.934 29.8341C127.605 30.7284 127.35 31.3442 127.167 31.6815C126.925 32.1363 126.646 32.4685 126.333 32.678C126.019 32.8927 125.645 33 125.209 33C124.946 33 124.653 32.9438 124.329 32.8313Z" fill="#DC0533"/>
</svg>
