<svg width="50" height="50" viewBox="0 0 50 50" fill="none" xmlns="http://www.w3.org/2000/svg">
<circle cx="25" cy="25" r="24.5" stroke="#DC0533"/>
<path fill-rule="evenodd" clip-rule="evenodd" d="M25 35C27.6522 35 30.1957 33.9464 32.0711 32.0711C33.9464 30.1957 35 27.6522 35 25C35 22.3478 33.9464 19.8043 32.0711 17.9289C30.1957 16.0536 27.6522 15 25 15C22.3478 15 19.8043 16.0536 17.9289 17.9289C16.0536 19.8043 15 22.3478 15 25C15 27.6522 16.0536 30.1957 17.9289 32.0711C19.8043 33.9464 22.3478 35 25 35ZM26.25 20C26.25 19.6685 26.1183 19.3505 25.8839 19.1161C25.6495 18.8817 25.3315 18.75 25 18.75C24.6685 18.75 24.3505 18.8817 24.1161 19.1161C23.8817 19.3505 23.75 19.6685 23.75 20V25C23.7501 25.3315 23.8818 25.6494 24.1163 25.8837L27.6513 29.42C27.7674 29.5361 27.9053 29.6283 28.057 29.6911C28.2087 29.754 28.3714 29.7863 28.5356 29.7863C28.6999 29.7863 28.8625 29.754 29.0142 29.6911C29.166 29.6283 29.3039 29.5361 29.42 29.42C29.5361 29.3039 29.6283 29.166 29.6911 29.0142C29.754 28.8625 29.7863 28.6999 29.7863 28.5356C29.7863 28.3714 29.754 28.2087 29.6911 28.057C29.6283 27.9053 29.5361 27.7674 29.42 27.6513L26.25 24.4825V20Z" fill="#1E1E1E"/>
</svg>
