<svg width="40" height="40" viewBox="0 0 40 40" fill="none" xmlns="http://www.w3.org/2000/svg">
<circle cx="20" cy="20" r="19.5" stroke="#DC0533"/>
<path d="M21.0998 27.7001C21.0999 27.8875 21.1479 28.0718 21.2392 28.2355C21.3306 28.3992 21.4622 28.5368 21.6216 28.6353C21.7811 28.7338 21.9631 28.79 22.1503 28.7984C22.3376 28.8068 22.5238 28.7673 22.6915 28.6835L27.0915 26.4835C27.2742 26.3922 27.4279 26.2519 27.5353 26.0782C27.6427 25.9045 27.6997 25.7043 27.6998 25.5001V19.1597C27.6997 18.9723 27.6517 18.788 27.5604 18.6243C27.4691 18.4606 27.3374 18.323 27.178 18.2245C27.0185 18.126 26.8365 18.0698 26.6493 18.0614C26.4621 18.053 26.2758 18.0925 26.1081 18.1763L21.7081 20.3763C21.5254 20.4676 21.3717 20.6079 21.2643 20.7816C21.1569 20.9553 21.0999 21.1555 21.0998 21.3597V27.7001ZM25.7319 15.9037C25.9144 15.8122 26.0678 15.6718 26.175 15.4982C26.2822 15.3245 26.339 15.1244 26.339 14.9203C26.339 14.7162 26.2822 14.5161 26.175 14.3424C26.0678 14.1688 25.9144 14.0283 25.7319 13.9369L20.4915 11.3167C20.3388 11.2404 20.1705 11.2007 19.9998 11.2007C19.8291 11.2007 19.6608 11.2404 19.5081 11.3167L14.2677 13.9369C14.0852 14.0283 13.9318 14.1688 13.8246 14.3424C13.7174 14.5161 13.6606 14.7162 13.6606 14.9203C13.6606 15.1244 13.7174 15.3245 13.8246 15.4982C13.9318 15.6718 14.0852 15.8122 14.2677 15.9037L19.5081 18.5239C19.6608 18.6002 19.8291 18.6399 19.9998 18.6399C20.1705 18.6399 20.3388 18.6002 20.4915 18.5239L25.7319 15.9037ZM13.8915 18.1763C13.7238 18.0925 13.5376 18.053 13.3503 18.0614C13.1631 18.0698 12.9811 18.126 12.8216 18.2245C12.6622 18.323 12.5306 18.4606 12.4392 18.6243C12.3479 18.788 12.2999 18.9723 12.2998 19.1597V25.5001C12.2999 25.7043 12.3569 25.9045 12.4643 26.0782C12.5717 26.2519 12.7254 26.3922 12.9081 26.4835L17.3081 28.6835C17.4758 28.7673 17.6621 28.8068 17.8493 28.7984C18.0365 28.79 18.2185 28.7338 18.378 28.6353C18.5374 28.5368 18.6691 28.3992 18.7604 28.2355C18.8517 28.0718 18.8997 27.8875 18.8998 27.7001V21.3597C18.8997 21.1555 18.8427 20.9553 18.7353 20.7816C18.6279 20.6079 18.4742 20.4676 18.2915 20.3763L13.8915 18.1763Z" fill="#18181B"/>
</svg>
