<svg width="40" height="40" viewBox="0 0 40 40" fill="none" xmlns="http://www.w3.org/2000/svg">
<g id="chart">
<circle id="Ellipse 190" cx="20" cy="20" r="19.5" stroke="#DC0533"/>
<g id="chart-square-bar">
<path id="Vector" fill-rule="evenodd" clip-rule="evenodd" d="M14.4998 12.2998C13.9163 12.2998 13.3567 12.5316 12.9442 12.9442C12.5316 13.3567 12.2998 13.9163 12.2998 14.4998V25.4998C12.2998 26.0833 12.5316 26.6429 12.9442 27.0554C13.3567 27.468 13.9163 27.6998 14.4998 27.6998H25.4998C26.0833 27.6998 26.6429 27.468 27.0554 27.0554C27.468 26.6429 27.6998 26.0833 27.6998 25.4998V14.4998C27.6998 13.9163 27.468 13.3567 27.0554 12.9442C26.6429 12.5316 26.0833 12.2998 25.4998 12.2998H14.4998ZM24.3998 16.6998C24.3998 16.4081 24.2839 16.1283 24.0776 15.922C23.8713 15.7157 23.5915 15.5998 23.2998 15.5998C23.0081 15.5998 22.7283 15.7157 22.522 15.922C22.3157 16.1283 22.1998 16.4081 22.1998 16.6998V23.2998C22.1998 23.5915 22.3157 23.8713 22.522 24.0776C22.7283 24.2839 23.0081 24.3998 23.2998 24.3998C23.5915 24.3998 23.8713 24.2839 24.0776 24.0776C24.2839 23.8713 24.3998 23.5915 24.3998 23.2998V16.6998ZM21.0998 18.8998C21.0998 18.6081 20.9839 18.3283 20.7776 18.122C20.5713 17.9157 20.2915 17.7998 19.9998 17.7998C19.7081 17.7998 19.4283 17.9157 19.222 18.122C19.0157 18.3283 18.8998 18.6081 18.8998 18.8998V23.2998C18.8998 23.5915 19.0157 23.8713 19.222 24.0776C19.4283 24.2839 19.7081 24.3998 19.9998 24.3998C20.2915 24.3998 20.5713 24.2839 20.7776 24.0776C20.9839 23.8713 21.0998 23.5915 21.0998 23.2998V18.8998ZM17.7998 22.1998C17.7998 21.9081 17.6839 21.6283 17.4776 21.422C17.2713 21.2157 16.9915 21.0998 16.6998 21.0998C16.4081 21.0998 16.1283 21.2157 15.922 21.422C15.7157 21.6283 15.5998 21.9081 15.5998 22.1998V23.2998C15.5998 23.5915 15.7157 23.8713 15.922 24.0776C16.1283 24.2839 16.4081 24.3998 16.6998 24.3998C16.9915 24.3998 17.2713 24.2839 17.4776 24.0776C17.6839 23.8713 17.7998 23.5915 17.7998 23.2998V22.1998Z" fill="#1E1E1E"/>
</g>
</g>
</svg>
