<svg width="50" height="50" viewBox="0 0 50 50" fill="none" xmlns="http://www.w3.org/2000/svg">
<circle cx="25" cy="25" r="24.5" stroke="#DC0533"/>
<path d="M26.9643 15.1786H19.1071C18.5861 15.1786 18.0865 15.3855 17.7181 15.7539C17.3498 16.1223 17.1428 16.6219 17.1428 17.1429V32.8572C17.1428 33.3781 17.3498 33.8777 17.7181 34.2461C18.0865 34.6145 18.5861 34.8214 19.1071 34.8214H30.8928C31.4138 34.8214 31.9134 34.6145 32.2818 34.2461C32.6502 33.8777 32.8571 33.3781 32.8571 32.8572V21.0714M26.9643 15.1786L32.8571 21.0714M26.9643 15.1786V21.0714H32.8571M25 30.8929V25M22.0535 27.9464H27.9464" stroke="#1E1E1E" stroke-width="1.5" stroke-linecap="round" stroke-linejoin="round"/>
</svg>
