<svg width="24" height="24" viewBox="0 0 24 24" fill="none" xmlns="http://www.w3.org/2000/svg">
<path d="M23.8067 8.41218C23.522 6.19112 22.7248 4.16938 21.3298 2.68868C19.8493 1.29339 17.8279 0.49609 15.6072 0.211339C13.4719 -0.0734125 12.0199 0.0120129 12.0199 0.0120129C12.0199 0.0120129 10.5679 -0.0449373 8.43264 0.211339C6.21195 0.49609 4.19055 1.29339 2.71008 2.68868C1.31503 4.16938 0.517859 6.19112 0.233154 8.41218C-0.05155 10.5478 0.00539085 12 0.00539085 12C0.00539085 12 -0.05155 13.4523 0.204684 15.5879C0.489388 17.8087 1.28656 19.8307 2.68161 21.3114C4.16208 22.7067 6.18348 23.5037 8.40417 23.7885C10.5395 24.0732 11.9914 23.9881 11.9914 23.9881C11.9914 23.9881 13.4434 24.0447 15.5787 23.7885C17.7994 23.5037 19.8208 22.7067 21.3013 21.3114C22.6963 19.831 23.4935 17.8087 23.7782 15.5879C24.0629 13.4523 23.9775 12 23.9775 12C23.9775 12 24.0914 10.5478 23.8067 8.41218Z" fill="#1E4BC6"/>
<path d="M4.41846 8.49756H6.58221C6.92386 8.49756 7.20856 8.55451 7.49327 8.66841C7.77797 8.78231 8.00573 8.95316 8.20503 9.15249C8.40432 9.35181 8.57514 9.57961 8.68902 9.86437C8.80291 10.1491 8.85985 10.4339 8.85985 10.7471C8.85985 11.0603 8.80291 11.3451 8.68902 11.6298C8.57514 11.9146 8.40432 12.1427 8.20503 12.3417C8.00573 12.5407 7.7495 12.7122 7.49327 12.8255C7.23703 12.9394 6.92386 12.9969 6.58221 12.9969H5.61422V14.7906H4.44693V8.49756H4.41846ZM5.58575 9.5799V11.8864H6.4968C6.66762 11.8864 6.83844 11.8579 6.9808 11.801C7.12315 11.744 7.23703 11.6586 7.35091 11.5447C7.46479 11.4308 7.52174 11.3169 7.57868 11.1745C7.63562 11.0321 7.66409 10.8898 7.66409 10.7189C7.66409 10.5481 7.63562 10.4057 7.57868 10.2633C7.52174 10.1209 7.43632 10.007 7.35091 9.89312C7.23703 9.77922 7.12315 9.6938 6.9808 9.63685C6.83844 9.5799 6.66762 9.55142 6.4968 9.55142H5.58575V9.5799ZM11.5645 14.7906C11.2514 14.7906 10.9667 14.7339 10.6535 14.6197C10.3688 14.5058 10.0841 14.335 9.85631 14.1359C9.62855 13.9078 9.42926 13.6516 9.2869 13.3383C9.14455 13.0251 9.05914 12.6549 9.05914 12.2563C9.05914 11.8576 9.11608 11.4874 9.25843 11.1742C9.40078 10.861 9.60008 10.6047 9.82784 10.3769C10.0556 10.1491 10.3403 10.0067 10.625 9.89284C10.9382 9.77894 11.2229 9.72199 11.5645 9.72199C11.9062 9.72199 12.2194 9.77894 12.4756 9.89284C12.7603 10.0067 12.9881 10.1776 13.1874 10.3769V9.72199H14.3546V14.7903H13.1874V14.0784C13.0165 14.3065 12.7603 14.4771 12.4756 14.6194C12.1909 14.7339 11.9062 14.7906 11.5645 14.7906ZM11.7638 13.7373C11.9916 13.7373 12.1909 13.7088 12.3617 13.6234C12.5325 13.5379 12.7034 13.4525 12.8457 13.3101C12.9881 13.1678 13.0735 13.0254 13.1589 12.8545C13.2443 12.6831 13.2728 12.4841 13.2728 12.285C13.2728 12.0854 13.2443 11.8861 13.1589 11.7155C13.0735 11.5447 12.9881 11.3738 12.8457 11.2599C12.7034 11.1176 12.561 11.0321 12.3617 10.9467C12.1624 10.8328 11.9631 10.8043 11.7638 10.8043C11.5645 10.8043 11.3652 10.8328 11.166 10.9182C10.9667 11.0037 10.8243 11.0891 10.682 11.2315C10.5396 11.3738 10.4257 11.5162 10.3688 11.6871C10.2834 11.8579 10.2549 12.0572 10.2549 12.2566C10.2549 12.4559 10.2834 12.6549 10.3688 12.8258C10.4542 12.9972 10.5681 13.1678 10.682 13.3101C10.8243 13.4525 10.9951 13.5377 11.166 13.6234C11.3368 13.68 11.5361 13.7373 11.7638 13.7373ZM15.9775 9.75046L17.401 13.196L18.7106 9.75046H19.9348L16.9455 17.097H15.7497L16.8031 14.563L14.7532 9.75046H15.9775Z" fill="white"/>
</svg>
