<svg width="36" height="36" viewBox="0 0 36 36" fill="none" xmlns="http://www.w3.org/2000/svg">
<path fill-rule="evenodd" clip-rule="evenodd" d="M12.4742 0.000244141H23.5258C33.6119 0.000244141 36 2.38839 36 12.4745V23.526C36 33.6121 33.6119 36.0002 23.5258 36.0002H12.4742C2.38814 36.0002 0 33.6121 0 23.526V12.4745C0 2.38839 2.38814 0.000244141 12.4742 0.000244141Z" fill="#2C2C2C"/>
<path fill-rule="evenodd" clip-rule="evenodd" d="M18.2457 18.2892C15.592 18.2892 13.4337 16.2062 13.4337 13.6454C13.4337 11.0838 15.592 9.00024 18.2457 9.00024C20.9 9.00024 23.0576 11.0838 23.0576 13.6454C23.0576 16.2062 20.9 18.2892 18.2457 18.2892ZM18.246 11.723C19.3447 11.723 20.2384 12.5854 20.2384 13.6459C20.2384 14.7056 19.3447 15.5686 18.246 15.5686C17.1482 15.5686 16.2536 14.7056 16.2536 13.6459C16.2536 12.5854 17.1482 11.723 18.246 11.723ZM22.8944 24.6767L20.2044 22.0798C21.1839 21.8645 22.1285 21.4904 22.9986 20.9629C23.6571 20.5621 23.8555 19.722 23.4406 19.0863C23.026 18.4493 22.1562 18.2576 21.4966 18.6583C19.5255 19.8548 16.9878 19.8545 15.0179 18.6583C14.3583 18.2576 13.4882 18.4493 13.0744 19.0863C12.6596 19.7225 12.8573 20.5621 13.5158 20.9629C14.3859 21.4898 15.3305 21.8645 16.31 22.0798L13.6198 24.6767C13.0698 25.2081 13.0698 26.0697 13.6203 26.6011C13.8959 26.8665 14.2563 26.9993 14.6168 26.9993C14.9779 26.9993 15.3389 26.8665 15.6144 26.6011L18.2569 24.0492L20.9017 26.6011C21.4516 27.1325 22.3439 27.1325 22.8944 26.6011C23.4455 26.0697 23.4455 25.2076 22.8944 24.6767Z" fill="#797979"/>
</svg>
