<svg width="36" height="36" viewBox="0 0 36 36" fill="none" xmlns="http://www.w3.org/2000/svg">
<path fill-rule="evenodd" clip-rule="evenodd" d="M12.4742 0.000244141H23.5258C33.6119 0.000244141 36 2.38839 36 12.4745V23.526C36 33.6121 33.6119 36.0002 23.5258 36.0002H12.4742C2.38814 36.0002 0 33.6121 0 23.526V12.4745C0 2.38839 2.38814 0.000244141 12.4742 0.000244141Z" fill="#2C2C2C"/>
<path fill-rule="evenodd" clip-rule="evenodd" d="M26.516 12.3748C26.6685 11.9218 26.516 11.5924 25.8407 11.5924H23.5966C23.0302 11.5924 22.7687 11.8806 22.6162 12.1895C22.6162 12.1895 21.4615 14.825 19.8493 16.5339C19.3264 17.0281 19.0868 17.1928 18.8036 17.1928C18.651 17.1928 18.455 17.0281 18.455 16.5751V12.3542C18.455 11.8189 18.2807 11.5718 17.8013 11.5718H14.2719C13.9233 11.5718 13.7055 11.8189 13.7055 12.0659C13.7055 12.5807 14.5116 12.7042 14.5987 14.1455V17.2751C14.5987 17.9546 14.468 18.0781 14.1848 18.0781C13.4222 18.0781 11.5704 15.4221 10.4593 12.3954C10.2414 11.7983 10.0235 11.5718 9.45709 11.5718H7.19124C6.53765 11.5718 6.42871 11.8601 6.42871 12.1689C6.42871 12.7248 7.19124 15.525 9.97992 19.2312C11.8318 21.7637 14.468 23.1226 16.8428 23.1226C18.2807 23.1226 18.455 22.8138 18.455 22.2991V20.3842C18.455 19.7665 18.5857 19.6636 19.0432 19.6636C19.37 19.6636 19.9582 19.8282 21.2872 21.043C22.8123 22.4843 23.0737 23.1432 23.9234 23.1432H26.1675C26.821 23.1432 27.1261 22.8344 26.9518 22.2372C26.7557 21.6402 26.015 20.7754 25.0563 19.7459C24.5334 19.1694 23.7491 18.5311 23.5095 18.2222C23.1827 17.8105 23.2698 17.6458 23.5095 17.2751C23.4877 17.2751 26.2328 13.6102 26.516 12.3748Z" fill="#797979"/>
</svg>
