<svg width="50" height="50" viewBox="0 0 50 50" fill="none" xmlns="http://www.w3.org/2000/svg">
<circle cx="25" cy="25" r="24.5" stroke="#DC0533"/>
<path fill-rule="evenodd" clip-rule="evenodd" d="M19.1064 13.8984C18.0019 13.8984 17.1064 14.7939 17.1064 15.8984V34.1016C17.1064 35.2061 18.0019 36.1016 19.1064 36.1016H30.8936C31.9981 36.1016 32.8936 35.2061 32.8936 34.1016V15.8984C32.8936 14.7939 31.9981 13.8984 30.8936 13.8984H19.1064ZM20.6191 16.5015C20.0669 16.5015 19.6191 16.9492 19.6191 17.5015V22.7869C19.6191 23.3392 20.0669 23.7869 20.6191 23.7869H29.3804C29.9327 23.7869 30.3804 23.3392 30.3804 22.7869V17.5015C30.3804 16.9492 29.9327 16.5015 29.3804 16.5015H20.6191ZM23.8145 26.8675C23.8145 26.6466 23.9935 26.4675 24.2145 26.4675H25.786C26.0069 26.4675 26.186 26.6466 26.186 26.8675V27.9708C26.186 28.1917 26.0069 28.3708 25.786 28.3708H24.2145C23.9935 28.3708 23.8145 28.1917 23.8145 27.9708V26.8675ZM24.2145 29.9216C23.9935 29.9216 23.8145 30.1007 23.8145 30.3216V31.4249C23.8145 31.6458 23.9935 31.8249 24.2145 31.8249H25.786C26.0069 31.8249 26.186 31.6458 26.186 31.4249V30.3216C26.186 30.1007 26.0069 29.9216 25.786 29.9216H24.2145ZM19.6191 26.8675C19.6191 26.6466 19.7982 26.4675 20.0191 26.4675H21.5907C21.8116 26.4675 21.9907 26.6466 21.9907 26.8675V27.9708C21.9907 28.1917 21.8116 28.3708 21.5907 28.3708H20.0191C19.7982 28.3708 19.6191 28.1917 19.6191 27.9708V26.8675ZM20.0191 29.9216C19.7982 29.9216 19.6191 30.1007 19.6191 30.3216V31.4249C19.6191 31.6458 19.7982 31.8249 20.0191 31.8249H21.5907C21.8116 31.8249 21.9907 31.6458 21.9907 31.4249V30.3216C21.9907 30.1007 21.8116 29.9216 21.5907 29.9216H20.0191ZM28.0098 26.8675C28.0098 26.6466 28.1889 26.4675 28.4098 26.4675H29.9813C30.2023 26.4675 30.3813 26.6466 30.3813 26.8675V27.9708C30.3813 28.1917 30.2023 28.3708 29.9813 28.3708H28.4098C28.1889 28.3708 28.0098 28.1917 28.0098 27.9708V26.8675ZM28.4098 29.9216C28.1889 29.9216 28.0098 30.1007 28.0098 30.3216V31.4249C28.0098 31.6458 28.1889 31.8249 28.4098 31.8249H29.9813C30.2023 31.8249 30.3813 31.6458 30.3813 31.4249V30.3216C30.3813 30.1007 30.2023 29.9216 29.9813 29.9216H28.4098Z" fill="#1E1E1E"/>
</svg>
