<svg width="50" height="50" viewBox="0 0 50 50" fill="none" xmlns="http://www.w3.org/2000/svg">
<circle cx="25" cy="25" r="24.5" stroke="#DC0533"/>
<path fill-rule="evenodd" clip-rule="evenodd" d="M17.5 17.5C17.5 16.837 17.7634 16.2011 18.2322 15.7322C18.7011 15.2634 19.337 15 20 15H25.7325C26.3955 15.0001 27.0313 15.2636 27.5 15.7325L31.7675 20C32.2364 20.4687 32.4999 21.1045 32.5 21.7675V32.5C32.5 33.163 32.2366 33.7989 31.7678 34.2678C31.2989 34.7366 30.663 35 30 35H20C19.337 35 18.7011 34.7366 18.2322 34.2678C17.7634 33.7989 17.5 33.163 17.5 32.5V17.5ZM20 25C20 24.6685 20.1317 24.3505 20.3661 24.1161C20.6005 23.8817 20.9185 23.75 21.25 23.75H28.75C29.0815 23.75 29.3995 23.8817 29.6339 24.1161C29.8683 24.3505 30 24.6685 30 25C30 25.3315 29.8683 25.6495 29.6339 25.8839C29.3995 26.1183 29.0815 26.25 28.75 26.25H21.25C20.9185 26.25 20.6005 26.1183 20.3661 25.8839C20.1317 25.6495 20 25.3315 20 25ZM21.25 28.75C20.9185 28.75 20.6005 28.8817 20.3661 29.1161C20.1317 29.3505 20 29.6685 20 30C20 30.3315 20.1317 30.6495 20.3661 30.8839C20.6005 31.1183 20.9185 31.25 21.25 31.25H28.75C29.0815 31.25 29.3995 31.1183 29.6339 30.8839C29.8683 30.6495 30 30.3315 30 30C30 29.6685 29.8683 29.3505 29.6339 29.1161C29.3995 28.8817 29.0815 28.75 28.75 28.75H21.25Z" fill="#1E1E1E"/>
</svg>
