<svg width="50" height="50" viewBox="0 0 50 50" fill="none" xmlns="http://www.w3.org/2000/svg">
<circle cx="25" cy="25" r="24.5" stroke="#DC0533"/>
<path d="M32.4024 14H17.5976C16.4439 14 15.5 14.9065 15.5 16.0145V31.5629C15.5 32.5535 16.2552 33.3809 17.2395 33.5456V34.2924C17.2395 35.2316 18.0397 36 19.0176 36C19.9955 36 20.7956 35.2316 20.7956 34.2924V33.5774H29.2044V34.2924C29.2044 35.2316 30.0045 36 30.9824 36C31.9603 36 32.7605 35.2316 32.7605 34.2924V33.5456C33.7448 33.3809 34.5 32.5535 34.5 31.5629V16.0145C34.5 14.9065 33.5561 14 32.4024 14ZM19.0176 31.1334C18.3302 31.1334 17.7729 30.5983 17.7729 29.9381C17.7729 29.278 18.3302 28.7428 19.0176 28.7428C19.705 28.7428 20.2622 29.278 20.2622 29.9381C20.2622 30.5983 19.705 31.1334 19.0176 31.1334ZM30.9824 31.1334C30.295 31.1334 29.7378 30.5983 29.7378 29.9381C29.7378 29.278 30.295 28.7428 30.9824 28.7428C31.6698 28.7428 32.2271 29.278 32.2271 29.9381C32.2271 30.5983 31.6698 31.1334 30.9824 31.1334ZM32.7605 26.3949H17.2395V20.5358C17.2395 20.2481 17.4825 20.0148 17.7821 20.0148H32.2179C32.5176 20.0148 32.7605 20.2481 32.7605 20.5358V26.3949ZM33.0678 17.0364C33.0678 17.7812 32.4332 18.3907 31.6576 18.3907H18.6786C17.9014 18.3907 17.2656 17.78 17.2656 17.0337V16.9943C17.2656 16.2479 17.9014 15.6373 18.6786 15.6373H31.6576C32.4332 15.6373 33.0678 16.2467 33.0678 16.9916V17.0364Z" fill="#1E1E1E"/>
</svg>
