<svg width="40" height="40" viewBox="0 0 40 40" fill="none" xmlns="http://www.w3.org/2000/svg">
<g id="coin">
<circle id="Ellipse 191" cx="20" cy="20" r="19.5" stroke="#DC0533"/>
<g id="database">
<path id="Vector" d="M12.5996 21.6001V24.6001C12.5996 26.2571 15.7336 27.6001 19.5996 27.6001C23.4656 27.6001 26.5996 26.2571 26.5996 24.6001V21.6001C26.5996 23.2571 23.4656 24.6001 19.5996 24.6001C15.7336 24.6001 12.5996 23.2571 12.5996 21.6001Z" fill="#18181B"/>
<path id="Vector_2" d="M12.5996 16.6001V19.6001C12.5996 21.2571 15.7336 22.6001 19.5996 22.6001C23.4656 22.6001 26.5996 21.2571 26.5996 19.6001V16.6001C26.5996 18.2571 23.4656 19.6001 19.5996 19.6001C15.7336 19.6001 12.5996 18.2571 12.5996 16.6001Z" fill="#18181B"/>
<path id="Vector_3" d="M26.5996 14.6001C26.5996 16.2571 23.4656 17.6001 19.5996 17.6001C15.7336 17.6001 12.5996 16.2571 12.5996 14.6001C12.5996 12.9431 15.7336 11.6001 19.5996 11.6001C23.4656 11.6001 26.5996 12.9431 26.5996 14.6001Z" fill="#18181B"/>
</g>
</g>
</svg>
