<svg width="40" height="40" viewBox="0 0 40 40" fill="none" xmlns="http://www.w3.org/2000/svg">
<circle cx="20" cy="20" r="19.5" stroke="#DC0533"/>
<g clip-path="url(#clip0_612_5635)">
<path fill-rule="evenodd" clip-rule="evenodd" d="M28 15.8248L23.6251 15.8045L21.5169 14.5042L19.2303 10.4L28 15.8248ZM17.0047 19.9368L15.0402 18.7099L15.0335 21.1883L17.0047 19.9368ZM12.7998 14.5313L19.2183 18.5552L19.2302 10.4L21.5168 14.5042L21.5199 17.1166L23.6252 15.8045L28.0001 15.8248L21.5236 19.9019L21.5227 19.5026L21.5232 20.0002L27.9668 24.0398L23.6182 24.0669L21.5234 22.7587V25.3672V25.3673L23.6184 24.067L27.9669 24.0399L19.217 29.6001L19.2296 21.3322L12.8199 25.3194L12.8196 25.3198L12.8196 25.3196L12.8193 25.3197L12.8196 25.3192L12.7998 14.5313Z" fill="#1E1E1E"/>
</g>
<defs>
<clipPath id="clip0_612_5635">
<rect width="15.2" height="19.2" fill="white" transform="translate(12.7998 10.4)"/>
</clipPath>
</defs>
</svg>
