<svg width="50" height="50" viewBox="0 0 50 50" fill="none" xmlns="http://www.w3.org/2000/svg">
<circle cx="25" cy="25" r="24.5" stroke="#DC0533"/>
<path fill-rule="evenodd" clip-rule="evenodd" d="M21.2813 16.3188C22.9892 15.6279 24.8406 15.367 26.6729 15.5591C28.5053 15.7512 30.2624 16.3904 31.7899 17.4204C33.3174 18.4505 34.5685 19.8399 35.4334 21.4667C36.2983 23.0934 36.7504 24.9077 36.75 26.75C36.75 27.0815 36.6183 27.3995 36.3839 27.6339C36.1495 27.8683 35.8315 28 35.5 28C35.1685 28 34.8505 27.8683 34.6161 27.6339C34.3817 27.3995 34.25 27.0815 34.25 26.75C34.2506 25.3169 33.8992 23.9056 33.2266 22.6401C32.5541 21.3747 31.581 20.2937 30.3929 19.4924C29.2048 18.691 27.838 18.1937 26.4127 18.0442C24.9875 17.8947 23.5473 18.0976 22.2188 18.635C22.0656 18.7027 21.9004 18.7388 21.733 18.7414C21.5656 18.7439 21.3993 18.7128 21.2442 18.6499C21.089 18.587 20.9481 18.4936 20.8297 18.3751C20.7114 18.2567 20.618 18.1157 20.5552 17.9605C20.4924 17.8053 20.4614 17.6391 20.464 17.4716C20.4667 17.3042 20.503 17.1391 20.5707 16.9859C20.6384 16.8328 20.7362 16.6949 20.8583 16.5802C20.9803 16.4656 21.1242 16.3767 21.2813 16.3188V16.3188ZM18.8275 19.1988C19.0759 19.4181 19.227 19.7271 19.2476 20.0579C19.2682 20.3886 19.1567 20.714 18.9375 20.9625C17.5248 22.5591 16.7466 24.6182 16.75 26.75C16.75 27.0815 16.6183 27.3995 16.3839 27.6339C16.1495 27.8683 15.8315 28 15.5 28C15.1685 28 14.8505 27.8683 14.6161 27.6339C14.3817 27.3995 14.25 27.0815 14.25 26.75C14.2465 24.0092 15.247 21.3621 17.0625 19.3088C17.1711 19.1856 17.303 19.0851 17.4505 19.0129C17.598 18.9407 17.7583 18.8983 17.9222 18.888C18.0861 18.8778 18.2504 18.9 18.4058 18.9533C18.5611 19.0066 18.7044 19.0901 18.8275 19.1988V19.1988Z" fill="#18181B"/>
<path fill-rule="evenodd" clip-rule="evenodd" d="M19.2505 26.75C19.2505 25.0924 19.909 23.5027 21.0811 22.3306C22.2532 21.1585 23.8429 20.5 25.5005 20.5C27.1581 20.5 28.7478 21.1585 29.9199 22.3306C31.092 23.5027 31.7505 25.0924 31.7505 26.75C31.7505 27.0815 31.6188 27.3995 31.3844 27.6339C31.1499 27.8683 30.832 28 30.5005 28C30.169 28 29.851 27.8683 29.6166 27.6339C29.3822 27.3995 29.2505 27.0815 29.2505 26.75C29.2505 25.7554 28.8554 24.8016 28.1521 24.0983C27.4489 23.3951 26.495 23 25.5005 23C24.5059 23 23.5521 23.3951 22.8488 24.0983C22.1456 24.8016 21.7505 25.7554 21.7505 26.75C21.7505 28.8462 21.3192 30.845 20.5405 32.6612C20.4097 32.9659 20.1632 33.2062 19.8553 33.3291C19.5474 33.4521 19.2033 33.4477 18.8986 33.3169C18.5939 33.1861 18.3537 32.9396 18.2307 32.6317C18.1078 32.3238 18.1122 31.9797 18.243 31.675C18.9101 30.1189 19.2529 28.4431 19.2505 26.75V26.75ZM30.4017 29.265C30.5639 29.2907 30.7195 29.3481 30.8595 29.434C30.9995 29.5198 31.1212 29.6325 31.2177 29.7654C31.3142 29.8983 31.3835 30.0489 31.4217 30.2086C31.4599 30.3684 31.4663 30.5341 31.4405 30.6962C31.2775 31.7245 31.0499 32.7415 30.7592 33.7412C30.7165 33.9023 30.642 34.0532 30.5401 34.1851C30.4383 34.317 30.311 34.4271 30.166 34.5091C30.0209 34.5911 29.8609 34.6433 29.6954 34.6625C29.5298 34.6818 29.3621 34.6677 29.2021 34.6212C29.0421 34.5747 28.893 34.4967 28.7636 34.3917C28.6342 34.2867 28.527 34.157 28.4485 34.01C28.37 33.863 28.3216 33.7018 28.3063 33.5359C28.2909 33.3699 28.3089 33.2026 28.3592 33.0437C28.618 32.1525 28.823 31.2375 28.9717 30.3037C29.024 29.9766 29.2039 29.6836 29.472 29.4891C29.7402 29.2946 30.0745 29.2144 30.4017 29.2662V29.265Z" fill="#18181B"/>
<path fill-rule="evenodd" clip-rule="evenodd" d="M25.4997 25.5C25.8312 25.5 26.1491 25.6317 26.3835 25.8661C26.618 26.1005 26.7497 26.4185 26.7497 26.75C26.7497 29.545 26.1747 32.21 25.1372 34.63C25.0724 34.7809 24.9786 34.9175 24.861 35.0321C24.7434 35.1467 24.6045 35.237 24.452 35.2979C24.2995 35.3587 24.1366 35.389 23.9724 35.3869C23.8083 35.3848 23.6461 35.3504 23.4953 35.2856C23.3444 35.2209 23.2078 35.127 23.0932 35.0095C22.9786 34.8919 22.8883 34.7529 22.8274 34.6005C22.7665 34.448 22.7363 34.285 22.7384 34.1209C22.7405 33.9567 22.7749 33.7946 22.8397 33.6437C23.7732 31.4655 24.2529 29.1198 24.2497 26.75C24.2497 26.4185 24.3813 26.1005 24.6158 25.8661C24.8502 25.6317 25.1681 25.5 25.4997 25.5V25.5Z" fill="#18181B"/>
</svg>
