<svg width="151" height="40" viewBox="0 0 151 40" fill="none" xmlns="http://www.w3.org/2000/svg">
<rect width="151" height="40" rx="20" fill="#F2F2F2"/>
<path d="M38.7614 19.2383C38.7728 18.3675 39.009 17.5137 39.4479 16.7563C39.8867 15.9989 40.5141 15.3626 41.2715 14.9065C40.7903 14.2334 40.1555 13.6794 39.4176 13.2887C38.6796 12.8979 37.8588 12.6811 37.0203 12.6554C35.2316 12.4715 33.4976 13.7037 32.5862 13.7037C31.6571 13.7037 30.2537 12.6736 28.7426 12.7041C27.7651 12.735 26.8125 13.0134 25.9775 13.5122C25.1426 14.0109 24.4538 14.713 23.9782 15.5501C21.9182 19.0435 23.4548 24.1776 25.4281 27.0014C26.4154 28.3841 27.5693 29.9287 29.0791 29.8739C30.5565 29.8139 31.1083 28.9511 32.8917 28.9511C34.6585 28.9511 35.1762 29.8739 36.7166 29.8391C38.302 29.8139 39.3008 28.4502 40.2535 27.0544C40.9628 26.0691 41.5087 24.9802 41.8708 23.828C40.9498 23.4464 40.1638 22.8077 39.6108 21.9916C39.0579 21.1754 38.7625 20.2178 38.7614 19.2383Z" fill="#DC0533"/>
<path d="M35.8518 10.7983C36.7162 9.78187 37.142 8.47547 37.0389 7.15649C35.7183 7.29235 34.4984 7.91057 33.6224 8.88796C33.194 9.36545 32.866 9.92094 32.6569 10.5227C32.4479 11.1244 32.362 11.7606 32.4041 12.3949C33.0647 12.4016 33.7182 12.2613 34.3153 11.9848C34.9125 11.7082 35.4379 11.3025 35.8518 10.7983Z" fill="#DC0533"/>
<path d="M57.4371 26.3734H52.3953L51.1846 29.8752H49.049L53.8246 16.9195H56.0433L60.8188 29.8752H58.6469L57.4371 26.3734ZM52.9175 24.7575H56.914L54.9438 19.0744H54.8887L52.9175 24.7575Z" fill="#DC0533"/>
<path d="M71.1322 25.1528C71.1322 28.0881 69.5283 29.974 67.1078 29.974C66.4946 30.0054 65.8848 29.8671 65.3482 29.5748C64.8116 29.2825 64.3698 28.8482 64.0735 28.3214H64.0277V33H62.0482V20.4294H63.9643V22.0005H64.0007C64.3106 21.4763 64.7598 21.0441 65.3005 20.7501C65.8412 20.456 66.4532 20.3111 67.0713 20.3306C69.5189 20.3306 71.1322 22.2257 71.1322 25.1528ZM69.0976 25.1528C69.0976 23.2404 68.0886 21.9832 66.5492 21.9832C65.0367 21.9832 64.0194 23.2669 64.0194 25.1528C64.0194 27.056 65.0367 28.3306 66.5492 28.3306C68.0887 28.3306 69.0976 27.0825 69.0976 25.1528Z" fill="#DC0533"/>
<path d="M81.7463 25.1529C81.7463 28.0882 80.1423 29.974 77.7218 29.974C77.1087 30.0055 76.4989 29.8671 75.9623 29.5748C75.4256 29.2826 74.9839 28.8482 74.6876 28.3215H74.6418V33H72.6623V20.4295H74.5783V22.0005H74.6147C74.9247 21.4763 75.3739 21.0442 75.9146 20.7502C76.4553 20.4561 77.0673 20.3111 77.6854 20.3307C80.133 20.3307 81.7463 22.2257 81.7463 25.1529ZM79.7117 25.1529C79.7117 23.2405 78.7027 21.9832 77.1632 21.9832C75.6508 21.9832 74.6335 23.267 74.6335 25.1529C74.6335 27.0561 75.6508 28.3307 77.1632 28.3307C78.7027 28.3307 79.7117 27.0826 79.7117 25.1529H79.7117Z" fill="#DC0533"/>
<path d="M88.7613 26.2654C88.908 27.5502 90.1823 28.3938 91.9235 28.3938C93.592 28.3938 94.7924 27.5502 94.7924 26.3917C94.7924 25.3861 94.0684 24.784 92.3542 24.3713L90.6399 23.9669C88.2111 23.3922 87.0835 22.2796 87.0835 20.4742C87.0835 18.2389 89.0724 16.7035 91.8965 16.7035C94.6914 16.7035 96.6075 18.2389 96.672 20.4742H94.6738C94.5541 19.1813 93.463 18.4009 91.8684 18.4009C90.2738 18.4009 89.1826 19.1905 89.1826 20.3398C89.1826 21.2557 89.8795 21.7947 91.5844 22.2073L93.0417 22.5578C95.7555 23.1864 96.8831 24.2542 96.8831 26.1492C96.8831 28.573 94.9119 30.0911 91.7768 30.0911C88.8435 30.0911 86.863 28.6087 86.735 26.2653L88.7613 26.2654Z" fill="#DC0533"/>
<path d="M101.155 18.1941V20.4294H102.989V21.9648H101.155V27.1722C101.155 27.9811 101.522 28.3581 102.329 28.3581C102.546 28.3544 102.764 28.3394 102.98 28.3133V29.8395C102.617 29.9058 102.249 29.9359 101.88 29.9291C99.9278 29.9291 99.1663 29.2109 99.1663 27.379V21.9648H97.7642V20.4294H99.1663V18.1941H101.155Z" fill="#DC0533"/>
<path d="M104.051 25.1528C104.051 22.1808 105.838 20.3133 108.625 20.3133C111.421 20.3133 113.2 22.1808 113.2 25.1528C113.2 28.1329 111.43 29.9923 108.625 29.9923C105.82 29.9923 104.051 28.1329 104.051 25.1528ZM111.183 25.1528C111.183 23.1141 110.229 21.9108 108.625 21.9108C107.021 21.9108 106.068 23.1233 106.068 25.1528C106.068 27.1997 107.021 28.3938 108.625 28.3938C110.229 28.3938 111.183 27.1997 111.183 25.1528H111.183Z" fill="#DC0533"/>
<path d="M114.832 20.4295H116.72V22.0372H116.765C116.893 21.5351 117.193 21.0913 117.616 20.7805C118.038 20.4697 118.557 20.3109 119.085 20.3306C119.313 20.3298 119.541 20.3541 119.763 20.403V22.2165C119.475 22.1303 119.175 22.0907 118.874 22.0993C118.586 22.0879 118.299 22.1376 118.033 22.2449C117.767 22.3523 117.528 22.5147 117.332 22.7212C117.136 22.9277 116.988 23.1732 116.898 23.441C116.808 23.7088 116.778 23.9925 116.811 24.2725V29.8752H114.832L114.832 20.4295Z" fill="#DC0533"/>
<path d="M128.89 27.1009C128.623 28.8156 126.919 29.9923 124.737 29.9923C121.932 29.9923 120.191 28.1513 120.191 25.1976C120.191 22.2348 121.941 20.3133 124.654 20.3133C127.322 20.3133 129 22.1085 129 24.9725V25.6368H122.189V25.7539C122.157 26.1016 122.202 26.4518 122.319 26.7813C122.437 27.1108 122.624 27.4121 122.869 27.6651C123.115 27.9182 123.412 28.1172 123.742 28.249C124.072 28.3808 124.427 28.4423 124.783 28.4294C125.251 28.4724 125.72 28.3662 126.122 28.1269C126.523 27.8875 126.834 27.5276 127.01 27.1008L128.89 27.1009ZM122.198 24.2817H127.019C127.037 23.9691 126.989 23.6563 126.877 23.363C126.766 23.0696 126.594 22.8019 126.372 22.5768C126.149 22.3517 125.882 22.174 125.587 22.0548C125.291 21.9357 124.974 21.8776 124.654 21.8844C124.332 21.8825 124.012 21.9431 123.714 22.0628C123.416 22.1826 123.144 22.3589 122.916 22.5818C122.688 22.8047 122.507 23.0697 122.384 23.3614C122.26 23.6532 122.197 23.966 122.198 24.2817V24.2817Z" fill="#DC0533"/>
<path d="M49.7657 14.3718H49.0655V12.3794H49.6656C50.1657 11.9809 50.4658 11.184 50.4658 10.0882V7.09961H54.4665V12.3794H55.1666V14.3718H54.4665V13.0767H49.8657V14.3718H49.7657ZM51.1659 10.0882C51.1659 10.9847 50.9659 11.7817 50.5658 12.3794H53.5663V7.79694H51.0659V10.0882H51.1659Z" fill="#DC0533" stroke="#DC0533" stroke-width="0.173913" stroke-miterlimit="10"/>
<path d="M61.0677 12.2798C60.4676 12.8775 59.7674 13.1764 58.8673 13.1764C57.9671 13.1764 57.267 12.8775 56.6669 12.2798C56.0668 11.6821 55.7667 10.9847 55.7667 10.0882C55.7667 9.19161 56.0668 8.49428 56.6669 7.89657C57.267 7.29886 57.9671 7 58.8673 7C59.7674 7 60.4676 7.29886 61.0677 7.89657C61.6678 8.49428 61.9678 9.19161 61.9678 10.0882C61.9678 10.9847 61.6678 11.6821 61.0677 12.2798ZM57.267 11.7817C57.6671 12.1802 58.2672 12.479 58.8673 12.479C59.4674 12.479 60.0675 12.2798 60.4676 11.7817C60.8676 11.3832 61.1677 10.7855 61.1677 10.0882C61.1677 9.39085 60.9677 8.79314 60.4676 8.39466C60.0675 7.99619 59.4674 7.69733 58.8673 7.69733C58.2672 7.69733 57.6671 7.89657 57.267 8.39466C56.8669 8.79314 56.5669 9.39085 56.5669 10.0882C56.5669 10.7855 56.7669 11.3832 57.267 11.7817Z" fill="#DC0533" stroke="#DC0533" stroke-width="0.173913" stroke-miterlimit="10"/>
<path d="M65.8685 13.1764C64.9684 13.1764 64.2682 12.8775 63.6681 12.2798C63.068 11.6821 62.768 10.9847 62.768 10.0882C62.768 9.19161 63.068 8.49428 63.6681 7.89657C64.2682 7.29886 64.9684 7 65.8685 7C66.7687 7 67.4688 7.29886 68.0689 7.99619L67.5688 8.49428C67.1688 7.99619 66.5687 7.69733 65.8685 7.69733C65.1684 7.69733 64.6683 7.89657 64.1682 8.39466C63.6681 8.79314 63.4681 9.39085 63.4681 10.0882C63.4681 10.7855 63.6681 11.3832 64.1682 11.7817C64.5683 12.1802 65.1684 12.479 65.8685 12.479C66.5687 12.479 67.1688 12.1802 67.6689 11.5825L68.1689 12.0806C67.8689 12.3794 67.5688 12.6783 67.1688 12.8775C66.7687 13.0767 66.3686 13.1764 65.8685 13.1764Z" fill="#DC0533" stroke="#DC0533" stroke-width="0.173913" stroke-miterlimit="10"/>
<path d="M71.3695 13.0767H70.5694V7.79694H68.8691V7.09961H72.9698V7.79694H71.2695V13.0767H71.3695Z" fill="#DC0533" stroke="#DC0533" stroke-width="0.173913" stroke-miterlimit="10"/>
<path d="M78.2708 7.09961L75.9704 12.1802C75.6703 12.8775 75.1702 13.276 74.5701 13.276C74.3701 13.276 74.17 13.276 73.97 13.1764L74.17 12.479C74.2701 12.5786 74.4701 12.5786 74.5701 12.5786C74.7701 12.5786 74.8702 12.5786 74.9702 12.479C75.0702 12.3794 75.1702 12.2798 75.2702 12.0805L75.4703 11.5825L73.4699 7.19923H74.3701L75.8703 10.5863L77.3706 7.09961H78.2708Z" fill="#DC0533" stroke="#DC0533" stroke-width="0.173913" stroke-miterlimit="10"/>
<path d="M79.1709 13.0767V7.09961H83.4717V13.0767H82.6715V7.79694H79.871V13.0767H79.1709Z" fill="#DC0533" stroke="#DC0533" stroke-width="0.173913" stroke-miterlimit="10"/>
<path d="M84.8719 13.0767V7.09961H85.6721V9.6897H88.6726V7.09961H89.4728V13.0767H88.6726V10.387H85.6721V13.0767H84.8719Z" fill="#DC0533" stroke="#DC0533" stroke-width="0.173913" stroke-miterlimit="10"/>
<path d="M95.7739 12.2798C95.1738 12.8775 94.4737 13.1764 93.5735 13.1764C92.6733 13.1764 91.9732 12.8775 91.3731 12.2798C90.773 11.6821 90.4729 10.9847 90.4729 10.0882C90.4729 9.19161 90.773 8.49428 91.3731 7.89657C91.9732 7.29886 92.6733 7 93.5735 7C94.4737 7 95.1738 7.29886 95.7739 7.89657C96.374 8.49428 96.6741 9.19161 96.6741 10.0882C96.574 10.9847 96.274 11.6821 95.7739 12.2798ZM91.8732 11.7817C92.2733 12.1802 92.8734 12.479 93.4735 12.479C94.0736 12.479 94.6737 12.2798 95.0738 11.7817C95.4739 11.3832 95.7739 10.7855 95.7739 10.0882C95.7739 9.39085 95.5739 8.79314 95.0738 8.39466C94.6737 7.99619 94.0736 7.69733 93.4735 7.69733C92.8734 7.69733 92.2733 7.89657 91.8732 8.39466C91.4731 8.79314 91.1731 9.39085 91.1731 10.0882C91.1731 10.7855 91.4731 11.3832 91.8732 11.7817Z" fill="#DC0533" stroke="#DC0533" stroke-width="0.173913" stroke-miterlimit="10"/>
<path d="M99.7746 13.0767V7.09961H101.975C102.475 7.09961 102.875 7.29885 103.175 7.5977C103.475 7.89656 103.675 8.29503 103.675 8.69351C103.675 8.99237 103.575 9.1916 103.475 9.49046C103.375 9.6897 103.175 9.88893 102.875 9.98855C103.175 10.0882 103.375 10.2874 103.575 10.4866C103.775 10.6859 103.875 10.9847 103.875 11.3832C103.875 11.8813 103.675 12.2798 103.375 12.5786C102.975 12.8775 102.575 13.0767 102.075 13.0767H99.7746ZM100.575 9.6897H101.975C102.275 9.6897 102.475 9.59008 102.675 9.39084C102.875 9.1916 102.975 8.99236 102.975 8.79313C102.975 8.59389 102.775 8.29503 102.675 8.0958C102.475 7.89656 102.275 7.79694 101.975 7.79694H100.575V9.6897ZM100.575 12.3794H102.175C102.475 12.3794 102.675 12.2798 102.875 12.0805C103.075 11.8813 103.175 11.6821 103.175 11.3832C103.175 11.184 103.075 10.8851 102.875 10.6859C102.675 10.4866 102.475 10.387 102.175 10.387H100.675V12.3794H100.575Z" fill="#DC0533" stroke="#DC0533" stroke-width="0.173913" stroke-miterlimit="10"/>
</svg>
