<svg width="40" height="40" viewBox="0 0 40 40" fill="none" xmlns="http://www.w3.org/2000/svg">
<circle cx="20" cy="20" r="19.5" stroke="#DC0533"/>
<path fill-rule="evenodd" clip-rule="evenodd" d="M13.3158 11.4286C13.5925 11.4286 13.8578 11.5386 14.0535 11.7342C14.2492 11.9299 14.3591 12.1953 14.3591 12.472V14.6639C15.2271 13.7785 16.3063 13.1285 17.495 12.7753C18.6836 12.4221 19.9426 12.3773 21.1534 12.6451C22.3641 12.913 23.4868 13.4845 24.4156 14.3061C25.3444 15.1276 26.0488 16.1721 26.4624 17.3411C26.5126 17.4712 26.5362 17.6101 26.5318 17.7495C26.5273 17.889 26.495 18.0261 26.4366 18.1528C26.3783 18.2795 26.2951 18.3932 26.192 18.4872C26.089 18.5812 25.9681 18.6536 25.8366 18.7001C25.705 18.7466 25.5655 18.7662 25.4263 18.7578C25.287 18.7494 25.1509 18.7132 25.0259 18.6513C24.9009 18.5893 24.7895 18.503 24.6985 18.3973C24.6075 18.2916 24.5385 18.1687 24.4958 18.0359C24.1809 17.1458 23.6303 16.3578 22.9029 15.7558C22.1754 15.1539 21.2983 14.7606 20.3649 14.6179C19.4316 14.4752 18.477 14.5883 17.6029 14.9454C16.7288 15.3024 15.9679 15.8898 15.4013 16.6452H18.5323C18.809 16.6452 19.0744 16.7551 19.27 16.9507C19.4657 17.1464 19.5756 17.4118 19.5756 17.6885C19.5756 17.9652 19.4657 18.2305 19.27 18.4262C19.0744 18.6219 18.809 18.7318 18.5323 18.7318H13.3158C13.0391 18.7318 12.7737 18.6219 12.578 18.4262C12.3824 18.2305 12.2725 17.9652 12.2725 17.6885V12.472C12.2725 12.1953 12.3824 11.9299 12.578 11.7342C12.7737 11.5386 13.0391 11.4286 13.3158 11.4286Z" fill="#1E1E1E"/>
<path fill-rule="evenodd" clip-rule="evenodd" d="M13.3243 20.8776C13.4535 20.832 13.5904 20.8122 13.7273 20.8195C13.8641 20.8268 13.9982 20.861 14.1218 20.9201C14.2454 20.9792 14.3562 21.0621 14.4478 21.164C14.5393 21.2659 14.61 21.3848 14.6556 21.514C14.9705 22.4042 15.5211 23.1922 16.2485 23.7941C16.976 24.396 17.8531 24.7893 18.7865 24.932C19.7198 25.0747 20.6744 24.9616 21.5485 24.6046C22.4226 24.2476 23.1835 23.6601 23.7501 22.9048H20.6191C20.3424 22.9048 20.077 22.7948 19.8814 22.5992C19.6857 22.4035 19.5758 22.1382 19.5758 21.8615C19.5758 21.5847 19.6857 21.3194 19.8814 21.1237C20.077 20.9281 20.3424 20.8181 20.6191 20.8181H25.8356C26.1123 20.8181 26.3777 20.9281 26.5734 21.1237C26.769 21.3194 26.8789 21.5847 26.8789 21.8615V27.078C26.8789 27.3547 26.769 27.62 26.5734 27.8157C26.3777 28.0114 26.1123 28.1213 25.8356 28.1213C25.5589 28.1213 25.2936 28.0114 25.0979 27.8157C24.9023 27.62 24.7923 27.3547 24.7923 27.078V24.886C23.9243 25.7715 22.8451 26.4214 21.6564 26.7746C20.4678 27.1278 19.2088 27.1726 17.998 26.9048C16.7873 26.637 15.6646 26.0654 14.7358 25.2438C13.807 24.4223 13.1026 23.3779 12.689 22.2089C12.6433 22.0797 12.6236 21.9427 12.6309 21.8059C12.6382 21.6691 12.6723 21.535 12.7314 21.4114C12.7905 21.2878 12.8734 21.177 12.9753 21.0854C13.0772 20.9939 13.1962 20.9232 13.3254 20.8776H13.3243Z" fill="#1E1E1E"/>
</svg>
