<svg width="197" height="36" viewBox="0 0 197 36" fill="none" xmlns="http://www.w3.org/2000/svg">
<g clip-path="url(#clip0_3031_7103)">
<path fill-rule="evenodd" clip-rule="evenodd" d="M192.841 32.8855C192.841 31.8504 193.474 31.0655 194.437 31.0655C195.404 31.0655 196.063 31.8504 196.063 32.8855C196.063 33.9286 195.404 34.7002 194.432 34.7002C193.471 34.7002 192.841 33.9286 192.841 32.8855ZM194.384 35.3955C195.12 35.3955 195.672 35.0373 196.031 34.5081V35.285H196.736V33.0121H196.741V30.4706H196.018V31.2314C195.665 30.7155 195.115 30.3677 194.384 30.3677C193.076 30.3677 192.123 31.4792 192.123 32.883C192.123 34.2889 193.07 35.3955 194.384 35.3955ZM187.702 35.285H188.425V33.1753H189.436L191.04 35.285H191.882L189.994 32.7934L191.64 30.4706H190.789L189.422 32.4879H188.425V30.4706H187.702V35.285ZM181.81 35.285H182.531V33.157H185.402V35.285H186.128V30.4706H185.402V32.5015H182.531V30.4706H181.81V35.285ZM176.336 32.8855C176.336 31.8504 176.967 31.0655 177.932 31.0655C178.898 31.0655 179.556 31.8504 179.556 32.8855C179.556 33.9286 178.898 34.7002 177.926 34.7002C176.964 34.7002 176.336 33.9286 176.336 32.8855ZM177.879 35.3955C178.613 35.3955 179.167 35.0373 179.524 34.5081V35.285H180.231V33.0121H180.236V30.4706H179.511V31.2314C179.159 30.7155 178.608 30.3677 177.879 30.3677C176.57 30.3677 175.616 31.4792 175.616 32.883C175.616 34.2889 176.564 35.3955 177.879 35.3955ZM170.289 32.8909C170.289 31.845 171.109 31.0422 172.138 31.0422C173.165 31.0422 173.98 31.845 173.98 32.8909C173.98 33.9419 173.165 34.7372 172.138 34.7372C171.109 34.7372 170.289 33.9419 170.289 32.8909ZM169.573 31.3584V32.8909V32.8959C169.573 34.2943 170.679 35.4109 172.13 35.4109C173.59 35.4109 174.701 34.2997 174.701 32.8959C174.701 31.4871 173.59 30.3677 172.149 30.3677C171.354 30.3677 170.653 30.7524 170.266 31.4452V31.3659C170.266 29.8754 170.977 29.2877 171.869 29.1722C172.655 29.0722 173.176 28.9825 173.742 28.69L173.547 28.1084C173.067 28.3504 172.707 28.4351 171.759 28.5505C170.534 28.6983 169.573 29.5358 169.573 31.3584ZM165.376 33.1699H168.297V32.4908H165.376V33.1699ZM160.66 34.6052V32.1666H162.39C163.11 32.1666 163.673 32.617 163.673 33.3993C163.673 34.1788 163.213 34.6052 162.385 34.6052H160.66ZM159.936 35.285H162.395C163.654 35.285 164.403 34.537 164.403 33.3993C164.403 32.2773 163.612 31.5614 162.398 31.5614H160.66V29.4516H163.715V28.7534H159.936V35.285ZM153.685 35.285H154.456V32.2086L155.828 32.2035L157.957 35.285H158.833L156.408 31.845L158.709 28.7534H157.825L155.828 31.5054L154.456 31.5108V28.7534H153.685V35.285ZM150.175 35.393C151.055 35.393 151.812 35.048 152.387 34.5553L151.96 33.9734C151.432 34.4029 150.86 34.6528 150.175 34.6528C148.759 34.6528 147.592 33.5098 147.592 32.0217C147.592 30.5312 148.759 29.3827 150.175 29.3827C150.86 29.3827 151.482 29.6462 151.952 30.0385L152.387 29.4674C151.812 28.9692 151.055 28.648 150.175 28.648C148.297 28.648 146.814 30.1253 146.814 32.0163C146.814 33.9049 148.297 35.393 150.175 35.393ZM140.143 32.0321C140.143 31.4925 140.543 31.0866 141.148 31.0866H142.481V32.9934H141.199C140.543 32.9934 140.143 32.5563 140.143 32.0321ZM143.206 35.285V30.4706H141.13C140.143 30.4706 139.443 31.116 139.443 32.0138C139.443 32.7435 139.855 33.1699 140.361 33.3889L139.327 35.285H140.143L141.042 33.5654C141.133 33.5758 141.23 33.5783 141.325 33.5783H142.481V35.285H143.206ZM132.802 35.285H133.526L133.952 31.5581L135.44 35.285H136.022L137.508 31.5581L137.932 35.285H138.656L138.077 30.4706H137.239L135.727 34.2814L134.208 30.4706H133.375L132.802 35.285ZM131.802 35.285V30.4706H131.101L128.233 34.0943V30.4706H127.517V35.285H128.185L131.077 31.5764V35.285H131.802ZM120.236 32.4879C120.376 31.6215 120.972 31.0475 121.751 31.0475C122.523 31.0475 123.07 31.6133 123.202 32.4879H120.236ZM121.859 35.4059C122.593 35.4059 123.197 35.1319 123.653 34.7027L123.271 34.1735C122.933 34.5081 122.454 34.7264 121.896 34.7264C121.027 34.7264 120.334 34.0892 120.223 33.1412H123.918C123.931 33.0437 123.936 32.9619 123.936 32.878C123.936 31.4319 123.076 30.3677 121.727 30.3677C120.442 30.3677 119.508 31.4871 119.508 32.8959C119.508 34.2889 120.521 35.4059 121.859 35.4059ZM114.394 32.8909C114.394 31.8558 115.17 31.0551 116.137 31.0551C117.096 31.0551 117.87 31.8558 117.87 32.8909C117.87 33.9314 117.096 34.7214 116.137 34.7214C115.17 34.7214 114.394 33.9314 114.394 32.8909ZM116.129 35.4109C117.498 35.4109 118.592 34.2997 118.592 32.8959C118.592 31.4821 117.498 30.3677 116.132 30.3677C114.762 30.3677 113.674 31.4821 113.674 32.8959C113.674 34.2997 114.762 35.4109 116.129 35.4109ZM109.564 32.5065V31.0791H110.96C111.458 31.0791 111.782 31.3817 111.782 31.7901C111.782 32.1928 111.4 32.5065 110.949 32.5065H109.564ZM109.564 34.6661V33.0544H111.094C111.616 33.0544 112.032 33.3782 112.032 33.8573C112.032 34.3682 111.611 34.6661 111.15 34.6661H109.564ZM108.835 35.285H111.186C112.005 35.285 112.754 34.8217 112.754 33.9286C112.754 33.3412 112.335 32.854 111.793 32.7249C112.182 32.5854 112.493 32.1716 112.493 31.7295C112.493 30.9629 111.904 30.4656 110.973 30.4656H108.835V35.285ZM103.392 32.8909C103.392 31.8558 104.169 31.0551 105.136 31.0551C106.094 31.0551 106.868 31.8558 106.868 32.8909C106.868 33.9314 106.094 34.7214 105.136 34.7214C104.169 34.7214 103.392 33.9314 103.392 32.8909ZM105.128 35.4109C106.498 35.4109 107.59 34.2997 107.59 32.8959C107.59 31.4821 106.498 30.3677 105.131 30.3677C103.761 30.3677 102.673 31.4821 102.673 32.8959C102.673 34.2997 103.761 35.4109 105.128 35.4109ZM97.1094 35.285H97.8312V33.157H100.701V35.285H101.429V30.4706H100.701V32.5015H97.8312V30.4706H97.1094V35.285Z" fill="#231F20"/>
<path d="M30.8418 15.5568C30.8418 11.3211 34.1631 7.89258 38.4752 7.89258C40.6851 7.89258 42.4825 8.70042 43.7625 9.91917L41.8583 12.6772C40.9593 11.9002 39.9536 11.4277 38.6889 11.4277C36.5096 11.4277 34.6813 13.1799 34.6813 15.5568C34.6813 17.9037 36.5096 19.6556 38.6889 19.6556C39.9988 19.6556 41.0045 19.1529 41.8734 18.4372L43.778 21.1799C42.4825 22.3678 40.6395 23.2061 38.506 23.2061C34.0871 23.2061 30.8418 19.732 30.8418 15.5568Z" fill="#231F20"/>
<path d="M59.7376 22.764H55.8665V13.8656L49.1936 22.764H45.6582V8.24292H49.5282V16.5777L55.9432 8.24292H59.7376V22.764Z" fill="#231F20"/>
<path d="M62.5371 22.7641V8.24304H66.4229V13.5308H72.7156V8.24304H76.586V22.7641H72.7156V17.0041H66.4229V22.7641H62.5371Z" fill="#231F20"/>
<path d="M90.4441 15.5268C90.4441 13.1953 88.7069 11.5191 86.5124 11.5191C84.3187 11.5191 82.6579 13.1953 82.6579 15.5268C82.6579 17.8578 84.3187 19.5036 86.5124 19.5036C88.6918 19.5036 90.4441 17.8578 90.4441 15.5268ZM90.7639 8.24289H94.0856V22.7643H90.7488L90.5201 21.058C89.4383 22.3071 87.9302 23.1301 86.0104 23.1301C82.0637 23.1301 78.8184 19.7625 78.8184 15.5117C78.8184 11.2911 82.0792 7.89258 86.0104 7.89258C87.9302 7.89258 89.4383 8.71513 90.5201 9.96543L90.7639 8.24289Z" fill="#231F20"/>
<path d="M108.315 15.5004C108.315 13.1689 106.653 11.4927 104.459 11.4927C102.265 11.4927 100.528 13.1689 100.528 15.5004C100.528 17.8314 102.28 19.4772 104.459 19.4772C106.653 19.4772 108.315 17.8314 108.315 15.5004ZM112.154 15.4853C112.154 19.7361 108.908 23.1037 104.963 23.1037C103.209 23.1037 101.808 22.4178 100.757 21.3514V28.1469H96.8867V8.21653H100.148L100.407 9.99935C101.488 8.71958 103.012 7.86621 104.963 7.86621C108.893 7.86621 112.154 11.2647 112.154 15.4853Z" fill="#231F20"/>
<path d="M125.36 15.5268C125.36 13.1953 123.623 11.5191 121.429 11.5191C119.234 11.5191 117.574 13.1953 117.574 15.5268C117.574 17.8578 119.234 19.5036 121.429 19.5036C123.608 19.5036 125.36 17.8578 125.36 15.5268ZM125.679 8.24289H129.002V22.7643H125.664L125.437 21.058C124.354 22.3071 122.846 23.1301 120.926 23.1301C116.98 23.1301 113.734 19.7625 113.734 15.5117C113.734 11.2911 116.995 7.89258 120.926 7.89258C122.846 7.89258 124.354 8.71513 125.437 9.96543L125.679 8.24289Z" fill="#231F20"/>
<path d="M148.694 15.6329C148.694 12.6156 146.348 10.2849 143.377 10.2849C140.375 10.2849 138.013 12.6156 138.013 15.6329C138.013 18.6649 140.375 20.9658 143.377 20.9658C146.348 20.9658 148.694 18.6649 148.694 15.6329ZM151.041 15.6479C151.041 19.8535 147.704 23.1749 143.347 23.1749C138.988 23.1749 135.682 19.8381 135.682 15.6479V15.6329V10.4979C135.682 4.73864 138.41 1.90384 142.507 1.40113C145.448 1.00492 146.53 0.73098 147.948 -0.000488281L148.557 1.85901C146.896 2.77263 145.281 3.04694 142.736 3.41267C139.857 3.83901 137.906 5.78923 137.906 10.5739V11.1225C139.079 9.15721 141.122 8.09013 143.422 8.09013C147.704 8.09013 151.041 11.4273 151.041 15.6479Z" fill="#231F20"/>
<path d="M164.037 15.6171C164.037 12.6002 162.178 10.3599 159.39 10.3599C156.586 10.3599 154.757 12.6002 154.757 15.6171C154.757 18.6491 156.586 20.8436 159.375 20.8436C162.178 20.8436 164.037 18.6491 164.037 15.6171ZM163.854 8.4251H166.231V22.7633H163.93V20.584C162.878 22.1233 161.263 23.114 159.161 23.114C155.26 23.114 152.426 19.8223 152.426 15.6021C152.426 11.4119 155.26 8.08984 159.146 8.08984C161.217 8.08984 162.803 9.0343 163.854 10.4972V8.4251Z" fill="#231F20"/>
<path d="M168.684 22.7639V8.42578H171.045V14.3686H179.319V8.42578H181.681V22.7639H179.319V16.5021H171.045V22.7639H168.684Z" fill="#231F20"/>
<path d="M184.125 22.7639V8.42578H186.471V14.3381H189.32L193.267 8.42578H196.01L191.195 15.3439L196.741 22.7639H194.015L189.351 16.6085H186.471V22.7639H184.125Z" fill="#231F20"/>
<path d="M21.636 26.7855C22.5468 26.7855 23.2847 26.0471 23.2847 25.1364V5.11893C23.2847 4.20746 22.5439 3.50073 21.622 3.50073C21.4546 3.50073 21.0025 3.56097 20.8432 3.58105C18.016 3.94248 13.2439 5.15765 9.58762 8.65113C5.16294 12.8797 7.53879 16.3978 11.2485 15.9942C11.351 15.9874 11.3733 16.096 11.2381 16.1293C9.07774 16.6044 5.02275 16.5202 3.6369 12.0858C2.31596 7.85871 5.51111 3.50073 5.51111 3.50073H1.63648C0.732544 3.50073 0 4.23363 0 5.13721V25.1705C0 25.9582 0.660832 26.9009 1.89895 26.7715C4.57849 26.4907 9.81064 25.348 13.6967 21.6351C18.1221 17.4065 15.7607 13.8994 12.0502 14.3031C11.9492 14.3096 11.9061 14.1916 12.0398 14.1579C14.2002 13.6828 18.2623 13.7664 19.6481 18.2004C20.9691 22.4275 17.774 26.7855 17.774 26.7855H21.636Z" fill="#ED153E"/>
</g>
<defs>
<clipPath id="clip0_3031_7103">
<rect width="197" height="36" fill="white"/>
</clipPath>
</defs>
</svg>
