<svg width="40" height="40" viewBox="0 0 40 40" fill="none" xmlns="http://www.w3.org/2000/svg">
<g id="world">
<circle id="Ellipse 191" cx="20" cy="20" r="19.5" stroke="#DC0533"/>
<g id="globe">
<path id="Vector" fill-rule="evenodd" clip-rule="evenodd" d="M20.0002 28.8002C22.3341 28.8002 24.5724 27.8731 26.2227 26.2227C27.8731 24.5724 28.8002 22.3341 28.8002 20.0002C28.8002 17.6663 27.8731 15.428 26.2227 13.7777C24.5724 12.1273 22.3341 11.2002 20.0002 11.2002C17.6663 11.2002 15.428 12.1273 13.7777 13.7777C12.1273 15.428 11.2002 17.6663 11.2002 20.0002C11.2002 22.3341 12.1273 24.5724 13.7777 26.2227C15.428 27.8731 17.6663 28.8002 20.0002 28.8002ZM13.7654 17.8299C14.1738 16.6603 14.9026 15.6289 15.8686 14.8533C16.1634 15.3032 16.6716 15.6002 17.2502 15.6002C17.6878 15.6002 18.1075 15.774 18.4169 16.0835C18.7264 16.3929 18.9002 16.8126 18.9002 17.2502V17.8002C18.9002 18.3837 19.132 18.9432 19.5446 19.3558C19.9571 19.7684 20.5167 20.0002 21.1002 20.0002C21.6837 20.0002 22.2432 19.7684 22.6558 19.3558C23.0684 18.9432 23.3002 18.3837 23.3002 17.8002C23.3 17.3079 23.465 16.8297 23.7687 16.4422C24.0724 16.0547 24.4974 15.7803 24.9755 15.6629C26.0252 16.8637 26.6027 18.4052 26.6002 20.0002C26.6002 20.3742 26.5694 20.7427 26.5089 21.1002H25.5002C24.9167 21.1002 24.3571 21.332 23.9446 21.7446C23.532 22.1571 23.3002 22.7167 23.3002 23.3002V25.7169C22.2973 26.2971 21.1588 26.6019 20.0002 26.6002V24.4002C20.0002 23.8167 19.7684 23.2571 19.3558 22.8446C18.9432 22.432 18.3837 22.2002 17.8002 22.2002C17.2167 22.2002 16.6571 21.9684 16.2446 21.5558C15.832 21.1432 15.6002 20.5837 15.6002 20.0002C15.6004 19.4799 15.4162 18.9764 15.0803 18.579C14.7443 18.1817 14.2785 17.9163 13.7654 17.8299Z" fill="#18181B"/>
</g>
</g>
</svg>
