<svg width="24" height="24" viewBox="0 0 24 24" fill="none" xmlns="http://www.w3.org/2000/svg">
<path d="M24.0003 12.1855C24.0014 11.3616 23.9308 10.5392 23.7895 9.72723H12.2432V14.3835H18.8564C18.721 15.1272 18.4346 15.8361 18.0143 16.4675C17.5941 17.099 17.0487 17.6398 16.4111 18.0575V21.08H20.3579C22.6688 18.976 24.0003 15.8645 24.0003 12.1855Z" fill="#4285F4"/>
<path d="M24.0003 12.1855C24.0014 11.3616 23.9308 10.5392 23.7895 9.72723H12.2432V14.3835H18.8564C18.721 15.1272 18.4346 15.8361 18.0143 16.4675C17.5941 17.099 17.0487 17.6398 16.4111 18.0575V21.08H20.3579C22.6688 18.976 24.0003 15.8645 24.0003 12.1855Z" fill="#4285F4"/>
<path d="M12.2424 24C15.5465 24 18.3285 22.9287 20.3572 21.0817L16.4103 18.0592C15.3118 18.7946 13.897 19.2144 12.2424 19.2144C9.04894 19.2144 6.33836 17.0886 5.36908 14.224H1.30322V17.3388C2.32227 19.3412 3.88486 21.0244 5.81655 22.2007C7.74824 23.377 9.973 23.9999 12.2424 24Z" fill="#34A853"/>
<path d="M12.2424 24C15.5465 24 18.3285 22.9287 20.3572 21.0817L16.4103 18.0592C15.3118 18.7946 13.897 19.2144 12.2424 19.2144C9.04894 19.2144 6.33836 17.0886 5.36908 14.224H1.30322V17.3388C2.32227 19.3412 3.88486 21.0244 5.81655 22.2007C7.74824 23.377 9.973 23.9999 12.2424 24Z" fill="#34A853"/>
<path d="M5.36958 14.224C4.85716 12.7229 4.85716 11.0973 5.36958 9.59621V6.48138H1.30371C0.446459 8.16583 0 10.0249 0 11.9101C0 13.7953 0.446459 15.6543 1.30371 17.3388L5.36958 14.224Z" fill="#FBBC04"/>
<path d="M5.36958 14.224C4.85716 12.7229 4.85716 11.0973 5.36958 9.59621V6.48138H1.30371C0.446459 8.16583 0 10.0249 0 11.9101C0 13.7953 0.446459 15.6543 1.30371 17.3388L5.36958 14.224Z" fill="#FBBC04"/>
<path d="M12.2678 4.78638C14.0139 4.75821 15.701 5.40964 16.9646 6.59986L20.4591 3.1492C18.2432 1.09405 15.3077 -0.0342659 12.2678 0.00079321C9.99839 0.000895345 7.77363 0.62385 5.84194 1.80011C3.91025 2.97637 2.34766 4.65964 1.32861 6.66199L5.39448 9.77681C6.36375 6.91218 9.07433 4.78638 12.2678 4.78638Z" fill="#EA4335"/>
<path d="M12.2678 4.78638C14.0139 4.75821 15.701 5.40964 16.9646 6.59986L20.4591 3.1492C18.2432 1.09405 15.3077 -0.0342659 12.2678 0.00079321C9.99839 0.000895345 7.77363 0.62385 5.84194 1.80011C3.91025 2.97637 2.34766 4.65964 1.32861 6.66199L5.39448 9.77681C6.36375 6.91218 9.07433 4.78638 12.2678 4.78638Z" fill="#EA4335"/>
</svg>
