<svg width="26" height="26" viewBox="0 0 26 26" fill="none" xmlns="http://www.w3.org/2000/svg">
<path fill-rule="evenodd" clip-rule="evenodd" d="M6.66566 5.26501C8.37232 3.55834 10.6871 2.59955 13.1007 2.59955C15.5142 2.59955 17.829 3.55834 19.5357 5.26501C21.2423 6.97168 22.2011 9.28642 22.2011 11.7C22.2011 14.1136 21.2423 16.4283 19.5357 18.135L13.1007 24.57L6.66566 18.135C5.82055 17.29 5.15016 16.2868 4.69278 15.1826C4.23541 14.0785 4 12.8951 4 11.7C4 10.5049 4.23541 9.3215 4.69278 8.21738C5.15016 7.11326 5.82055 6.11004 6.66566 5.26501ZM13.1006 17C15.862 17 18.1006 14.7614 18.1006 12C18.1006 9.23858 15.862 7 13.1006 7C10.3392 7 8.10059 9.23858 8.10059 12C8.10059 14.7614 10.3392 17 13.1006 17Z" fill="#DC0533"/>
<circle cx="13.1006" cy="12" r="3" fill="#FFCC00"/>
</svg>
