<svg width="40" height="40" viewBox="0 0 40 40" fill="none" xmlns="http://www.w3.org/2000/svg">
<circle cx="20" cy="20" r="19.5" stroke="#DC0533"/>
<path fill-rule="evenodd" clip-rule="evenodd" d="M18.3087 12H22.3401C24.3558 12 25.9998 13.6 25.9998 15.552V24.448C25.9998 26.408 24.3558 28 22.3236 28H18.3004C16.2847 28 14.6325 26.408 14.6325 24.456V20.616H19.7544L18.4326 21.896C18.1848 22.136 18.1848 22.528 18.4326 22.768C18.5565 22.888 18.7217 22.944 18.887 22.944C19.0439 22.944 19.2091 22.888 19.3331 22.768L21.7453 20.44C21.8692 20.328 21.9353 20.168 21.9353 20C21.9353 19.84 21.8692 19.68 21.7453 19.568L19.3331 17.24C19.0852 17 18.6804 17 18.4326 17.24C18.1848 17.48 18.1848 17.872 18.4326 18.112L19.7544 19.384H14.6325V15.56C14.6325 13.6 16.2847 12 18.3087 12ZM10.7998 19.9999C10.7998 19.6639 11.084 19.3839 11.425 19.3839H14.6322V20.6159H11.425C11.084 20.6159 10.7998 20.3439 10.7998 19.9999Z" fill="#1E1E1E"/>
</svg>
