<svg width="151" height="40" viewBox="0 0 151 40" fill="none" xmlns="http://www.w3.org/2000/svg">
<rect width="151" height="40" rx="20" fill="#F2F2F2"/>
<path d="M66.0328 26.8395C67.9009 26.3635 69.1285 24.9357 69.1285 23.0672C69.1285 20.758 67.2782 19.1363 64.6807 19.1363H60.0549V31.5636H62.1899V26.9981H63.7021L67.0114 31.5636H69.5199L66.0328 26.8395ZM64.6807 21.0753C66.0151 21.0753 66.9402 21.8862 66.9402 23.0672C66.9402 24.2483 66.0151 25.0591 64.6807 25.0591H62.1899V21.0753H64.6807Z" fill="#DC0533"/>
<path d="M74.3247 31.7399C75.4456 31.7399 76.4775 31.1581 77.0646 30.1887L77.4738 31.5636H79.0039V22.3973H76.9579V27.7032C76.9579 29.0076 76.0861 29.9243 74.8941 29.9243C73.7199 29.9243 72.9015 29.0076 72.9015 27.7032V22.3973H70.8555V27.9323C70.8555 30.1358 72.35 31.7399 74.3247 31.7399Z" fill="#DC0533"/>
<path d="M85.5331 31.7397C87.8994 31.7397 89.8564 30.4 89.8564 28.1789C89.8564 25.6935 87.8105 24.9708 86.0491 24.3715C84.6792 23.9131 83.4872 23.4901 83.4872 22.3795C83.4872 21.41 84.3945 20.8989 85.462 20.8989C86.5829 20.8989 87.3835 21.4805 87.8283 22.4677L89.8564 22.1328C89.2157 20.1938 87.597 18.9598 85.3909 18.9598C83.1135 18.9598 81.2988 20.2643 81.2988 22.4853C81.2988 24.9884 83.3449 25.6758 85.1062 26.2576C86.4583 26.6983 87.6682 27.1213 87.6682 28.2495C87.6682 29.2366 86.7608 29.8006 85.551 29.8006C84.1632 29.8006 83.416 29.1485 82.7577 27.9674L80.6939 28.32C81.2988 30.4176 83.2203 31.7397 85.5331 31.7397Z" fill="#DC0533"/>
<path d="M95.4227 29.801C94.7289 29.801 94.391 29.4662 94.391 28.7787V24.1604H97.1483V22.3976H94.391V19.7535H92.8609L92.3447 22.3976H90.8325V24.1604H92.3447V28.7787C92.3447 30.5767 93.3944 31.5638 95.4227 31.5638H97.1483L97.3265 29.801H95.4227Z" fill="#DC0533"/>
<path d="M103.173 31.7398C106.073 31.7398 108.119 29.7655 108.119 26.9804C108.119 24.1953 106.073 22.221 103.173 22.221C100.273 22.221 98.2268 24.1953 98.2268 26.9804C98.2268 29.7655 100.273 31.7398 103.173 31.7398ZM103.173 29.8889C101.5 29.8889 100.362 28.7079 100.362 26.9804C100.362 25.2529 101.5 24.0719 103.173 24.0719C104.845 24.0719 105.984 25.2529 105.984 26.9804C105.984 28.7079 104.845 29.8889 103.173 29.8889Z" fill="#DC0533"/>
<path d="M111.944 31.5636V26.152C111.944 24.9886 112.513 24.3364 113.758 24.3364H114.932L114.755 22.3973H114.363C113.278 22.3973 112.442 22.697 111.819 23.7194L111.428 22.3973H109.897V31.5636H111.944Z" fill="#DC0533"/>
<path d="M125 26.8746C125 24.2306 123.007 22.221 120.196 22.221C117.385 22.221 115.393 24.2129 115.393 26.9804C115.393 29.7479 117.385 31.7398 120.196 31.7398C122.117 31.7398 123.932 30.8408 124.626 29.0957L122.705 28.7784C122.26 29.4306 121.406 29.8889 120.321 29.8889C118.755 29.8889 117.723 28.937 117.528 27.5269H124.964C124.982 27.3329 125 27.1214 125 26.8746ZM120.196 23.9837C121.477 23.9837 122.438 24.7946 122.776 25.9404H117.652C117.99 24.7593 118.951 23.9837 120.196 23.9837Z" fill="#DC0533"/>
<path fill-rule="evenodd" clip-rule="evenodd" d="M39.4885 33H39.4885H40.5292H40.5293C46.4164 33 49.3599 33 51.1888 31.1723C53.0178 29.3447 53.0178 26.4031 53.0178 20.52V20.5199V19.4799V19.4799C53.0178 13.5968 53.0178 10.6552 51.1888 8.82754C49.3599 7 46.4164 7 40.5292 7H39.4885C33.6014 7 30.6578 7 28.8289 8.82754C27 10.6552 27 13.5968 27 19.4799V20.5199C27 26.4031 27 29.3447 28.8289 31.1723C30.6578 33 33.6014 33 39.4885 33ZM43.9104 23.4891V25.0151C43.9104 25.8314 43.1385 26.4301 42.3423 26.2314L39.1652 25.4383V26.9643C39.1652 27.7806 38.3934 28.3793 37.5972 28.1806L32.5551 26.9219C31.8541 26.7469 31.3625 26.1203 31.3625 25.4016V16.9345C31.3625 16.1181 32.1344 15.5194 32.9306 15.7182L36.1077 16.5113V14.9853C36.1077 14.1689 36.8795 13.5702 37.6758 13.769L40.8523 14.562V13.0359C40.8523 12.2196 41.6242 11.6209 42.4204 11.8197L47.4625 13.0784C48.1635 13.2534 48.655 13.88 48.655 14.5987V23.0658C48.655 23.8821 47.8831 24.4808 47.0869 24.282L43.9104 23.4891Z" fill="#DC0533"/>
<path d="M40.5998 25.7993C40.379 25.7431 40.2219 25.548 40.2141 25.3205L39.9948 18.8541C39.9313 17.9984 39.2956 17.3177 38.6313 17.1173C38.594 17.106 38.5542 17.1212 38.5321 17.1532C38.5096 17.1859 38.5183 17.231 38.5496 17.2551C38.7137 17.382 39.1652 17.7962 39.1652 18.5105L39.1638 25.4357L40.5998 25.7993Z" fill="#DC0533"/>
<path d="M45.346 23.8476C45.1253 23.7924 44.968 23.5978 44.9603 23.3707L44.7409 16.9049C44.6774 16.0491 44.0418 15.3685 43.3774 15.168C43.3401 15.1568 43.3003 15.1719 43.2782 15.204C43.2558 15.2366 43.2644 15.2817 43.2958 15.3059C43.4598 15.4328 43.9113 15.8469 43.9113 16.5613L43.91 23.4888L45.346 23.8476Z" fill="#DC0533"/>
<path d="M60.7437 14.353H60.043V12.354H60.6436C61.1441 11.9542 61.4444 11.1545 61.4444 10.0551V7.05652H65.4484V12.354H66.1491V14.353H65.4484V13.0536H60.8438V14.353H60.7437ZM62.1451 10.0551C62.1451 10.9546 61.9449 11.7543 61.5445 12.354H64.5475V7.75618H62.045V10.0551H62.1451Z" fill="#DC0533" stroke="#DC0533" stroke-width="0.173913" stroke-miterlimit="10"/>
<path d="M72.0549 12.254C71.4543 12.8537 70.7536 13.1536 69.8527 13.1536C68.9518 13.1536 68.2511 12.8537 67.6505 12.254C67.0499 11.6543 66.7496 10.9546 66.7496 10.0551C66.7496 9.15548 67.0499 8.45582 67.6505 7.85611C68.2511 7.2564 68.9518 6.95654 69.8527 6.95654C70.7536 6.95654 71.4543 7.2564 72.0549 7.85611C72.6555 8.45582 72.9558 9.15548 72.9558 10.0551C72.9558 10.9546 72.6555 11.6543 72.0549 12.254ZM68.2511 11.7542C68.6515 12.154 69.2521 12.4539 69.8527 12.4539C70.4533 12.4539 71.0539 12.254 71.4543 11.7542C71.8547 11.3544 72.155 10.7547 72.155 10.0551C72.155 9.35539 71.9548 8.75568 71.4543 8.35587C71.0539 7.95606 70.4533 7.65621 69.8527 7.65621C69.2521 7.65621 68.6515 7.85611 68.2511 8.35587C67.8507 8.75568 67.5504 9.35539 67.5504 10.0551C67.5504 10.7547 67.7506 11.3544 68.2511 11.7542Z" fill="#DC0533" stroke="#DC0533" stroke-width="0.173913" stroke-miterlimit="10"/>
<path d="M76.8597 13.1536C75.9588 13.1536 75.2581 12.8537 74.6575 12.254C74.0569 11.6543 73.7566 10.9546 73.7566 10.0551C73.7566 9.15548 74.0569 8.45582 74.6575 7.85611C75.2581 7.2564 75.9588 6.95654 76.8597 6.95654C77.7606 6.95654 78.4613 7.2564 79.0619 7.95606L78.5614 8.45582C78.161 7.95606 77.5604 7.65621 76.8597 7.65621C76.159 7.65621 75.6585 7.85611 75.158 8.35587C74.6575 8.75568 74.4573 9.35539 74.4573 10.0551C74.4573 10.7547 74.6575 11.3544 75.158 11.7542C75.5584 12.154 76.159 12.4539 76.8597 12.4539C77.5604 12.4539 78.161 12.154 78.6615 11.5543L79.162 12.0541C78.8617 12.3539 78.5614 12.6538 78.161 12.8537C77.7606 13.0536 77.3602 13.1536 76.8597 13.1536Z" fill="#DC0533" stroke="#DC0533" stroke-width="0.173913" stroke-miterlimit="10"/>
<path d="M82.3653 13.0536H81.5645V7.75618H79.8628V7.05652H83.9669V7.75618H82.2652V13.0536H82.3653Z" fill="#DC0533" stroke="#DC0533" stroke-width="0.173913" stroke-miterlimit="10"/>
<path d="M89.2721 7.05652L86.9698 12.1541C86.6695 12.8537 86.169 13.2535 85.5684 13.2535C85.3682 13.2535 85.168 13.2535 84.9678 13.1536L85.168 12.4539C85.2681 12.5539 85.4683 12.5539 85.5684 12.5539C85.7686 12.5539 85.8687 12.5539 85.9688 12.4539C86.0689 12.354 86.169 12.254 86.2691 12.0541L86.4693 11.5544L84.4673 7.15647H85.3682L86.8697 10.5548L88.3712 7.05652H89.2721Z" fill="#DC0533" stroke="#DC0533" stroke-width="0.173913" stroke-miterlimit="10"/>
<path d="M90.173 13.0536V7.05652H94.4773V13.0536H93.6765V7.75618H90.8737V13.0536H90.173Z" fill="#DC0533" stroke="#DC0533" stroke-width="0.173913" stroke-miterlimit="10"/>
<path d="M95.8787 13.0536V7.05652H96.6795V9.65527H99.6825V7.05652H100.483V13.0536H99.6825V10.3549H96.6795V13.0536H95.8787Z" fill="#DC0533" stroke="#DC0533" stroke-width="0.173913" stroke-miterlimit="10"/>
<path d="M106.79 12.254C106.189 12.8537 105.488 13.1536 104.587 13.1536C103.687 13.1536 102.986 12.8537 102.385 12.254C101.785 11.6543 101.484 10.9546 101.484 10.0551C101.484 9.15548 101.785 8.45582 102.385 7.85611C102.986 7.2564 103.687 6.95654 104.587 6.95654C105.488 6.95654 106.189 7.2564 106.79 7.85611C107.39 8.45582 107.691 9.15548 107.691 10.0551C107.59 10.9546 107.29 11.6543 106.79 12.254ZM102.886 11.7542C103.286 12.154 103.887 12.4539 104.487 12.4539C105.088 12.4539 105.689 12.254 106.089 11.7542C106.489 11.3544 106.79 10.7547 106.79 10.0551C106.79 9.35539 106.589 8.75568 106.089 8.35587C105.689 7.95606 105.088 7.65621 104.487 7.65621C103.887 7.65621 103.286 7.85611 102.886 8.35587C102.485 8.75568 102.185 9.35539 102.185 10.0551C102.185 10.7547 102.485 11.3544 102.886 11.7542Z" fill="#DC0533" stroke="#DC0533" stroke-width="0.173913" stroke-miterlimit="10"/>
<path d="M110.794 13.0536V7.05652H112.996C113.496 7.05652 113.897 7.25642 114.197 7.55628C114.497 7.85613 114.697 8.25594 114.697 8.65575C114.697 8.9556 114.597 9.15551 114.497 9.45536C114.397 9.65527 114.197 9.85517 113.897 9.95512C114.197 10.0551 114.397 10.255 114.597 10.4549C114.798 10.6548 114.898 10.9546 114.898 11.3544C114.898 11.8542 114.697 12.254 114.397 12.5539C113.997 12.8537 113.596 13.0536 113.096 13.0536H110.794ZM111.594 9.65527H112.996C113.296 9.65527 113.496 9.55532 113.696 9.35541C113.897 9.15551 113.997 8.9556 113.997 8.7557C113.997 8.5558 113.797 8.25594 113.696 8.05604C113.496 7.85613 113.296 7.75618 112.996 7.75618H111.594V9.65527ZM111.594 12.354H113.196C113.496 12.354 113.696 12.254 113.897 12.0541C114.097 11.8542 114.197 11.6543 114.197 11.3544C114.197 11.1545 114.097 10.8547 113.897 10.6548C113.696 10.4549 113.496 10.3549 113.196 10.3549H111.694V12.354H111.594Z" fill="#DC0533" stroke="#DC0533" stroke-width="0.173913" stroke-miterlimit="10"/>
</svg>
