<svg width="10" height="11" viewBox="0 0 10 11" fill="none" xmlns="http://www.w3.org/2000/svg">
<path d="M4.35997 0.985061C4.56174 0.338313 5.43809 0.338313 5.63919 0.985061L6.35884 3.29678C6.4028 3.43757 6.48827 3.56024 6.60303 3.64726C6.71778 3.73429 6.85595 3.78121 6.99778 3.78132H9.32621C9.97793 3.78132 10.2483 4.65207 9.72168 5.05234L7.83849 6.48066C7.7235 6.56776 7.63788 6.69063 7.5939 6.83167C7.54992 6.97271 7.54984 7.12466 7.59367 7.26575L8.31332 9.57747C8.51509 10.2242 7.80553 10.7628 7.27757 10.3626L5.39438 8.93423C5.27951 8.84716 5.14119 8.80026 4.99924 8.80026C4.85729 8.80026 4.71898 8.84716 4.60411 8.93423L2.72092 10.3626C2.19363 10.7628 1.48474 10.2242 1.68584 9.57747L2.40548 7.26575C2.44932 7.12466 2.44924 6.97271 2.40526 6.83167C2.36128 6.69063 2.27566 6.56776 2.16067 6.48066L0.278152 5.05304C-0.248468 4.65277 0.0225767 3.78202 0.673622 3.78202H3.00138C3.14332 3.78206 3.28164 3.73521 3.39653 3.64817C3.51142 3.56114 3.59699 3.43838 3.64099 3.29748L4.36064 0.985763L4.35997 0.985061Z" fill="#DC0533"/>
</svg>
