<svg width="50" height="60" viewBox="0 0 50 60" fill="none" xmlns="http://www.w3.org/2000/svg">
<path d="M7.85152 7.81114L7.85155 7.81111C12.3989 3.29046 18.5674 0.75 25.0003 0.75C31.4331 0.75 37.6016 3.29046 42.149 7.81111C46.6962 12.3316 49.25 18.4618 49.25 24.8528C49.25 31.2438 46.6962 37.374 42.149 41.8945L25.0003 58.9425L7.85155 41.8945L7.85152 41.8945C5.59979 39.6562 3.81384 36.9992 2.59544 34.0752C1.37704 31.1512 0.75 28.0175 0.75 24.8528C0.75 21.6882 1.37704 18.5544 2.59544 15.6304C3.81384 12.7065 5.59979 10.0494 7.85152 7.81114ZM25.0003 32.7033C27.092 32.7033 29.099 31.8772 30.5795 30.4055C32.0601 28.9336 32.8927 26.9363 32.8927 24.8528C32.8927 22.7693 32.0601 20.7721 30.5795 19.3002C29.099 17.8284 27.092 17.0024 25.0003 17.0024C22.9085 17.0024 20.9015 17.8284 19.421 19.3002C17.9405 20.7721 17.1078 22.7693 17.1078 24.8528C17.1078 26.9363 17.9405 28.9336 19.421 30.4055C20.9015 31.8772 22.9085 32.7033 25.0003 32.7033Z" fill="#DC0533" stroke="white" stroke-width="1.5"/>
<rect x="9.21069" y="9.33337" width="31.5789" height="32" rx="10" fill="#DC0533"/>
<path d="M23.7877 20.551L21.9804 24.4865L24.9229 25.7667L24.9019 27.8176L15.5264 29.1334V34.9334C15.5264 34.9334 22.3843 34.8377 26.6715 30.6863C30.2731 27.2002 28.3426 24.2895 25.3227 24.6221C25.2401 24.6288 25.2251 24.5522 25.3353 24.5249C27.093 24.1336 30.3866 24.1973 31.5141 27.8534C32.5896 31.3397 29.9887 34.9334 29.9887 34.9334H34.4737V15.7334L23.7877 20.551Z" fill="#DC0533"/>
<path d="M15.5264 34.9334H15.5314C15.74 34.9295 22.4519 34.7731 26.6719 30.6865C30.2733 27.2001 28.3429 24.2896 25.3231 24.6229C25.2406 24.629 25.2256 24.5531 25.3348 24.5248C27.0927 24.1334 30.3861 24.1974 31.5136 27.8543C32.5888 31.3397 29.989 34.9334 29.989 34.9334H34.4737V15.7334L23.7876 20.5508L21.9801 24.4866L24.9227 25.7673L24.9024 27.8175L15.5264 29.1336V34.9334Z" fill="white"/>
<path d="M23.3272 20.0235C19.7285 23.5468 21.6579 26.4869 24.677 26.15C24.7602 26.1449 24.7738 26.2206 24.6643 26.25C22.9074 26.6454 19.6133 26.5792 18.4859 22.8861C17.4104 19.3645 20.0114 15.7334 20.0114 15.7334H15.5264V30.6143C18.4193 31.1054 21.0017 30.935 24.0864 29.4355C27.1709 27.9363 27.2568 25.3384 24.9277 25.3384C22.7427 25.3384 22.0283 23.8113 24.3664 21.9211C27.4201 19.4548 34.4737 20.4577 34.4737 20.4577V15.7334C34.4737 15.7334 27.6162 15.8299 23.3272 20.0235Z" fill="#DC0533"/>
<path d="M15.5264 15.7334V30.6137C18.4184 31.1058 21.0015 30.9351 24.0862 29.435C27.1719 27.9349 27.2558 25.338 24.9277 25.338C22.7424 25.338 22.0281 23.8103 24.3665 21.9208C27.4199 19.4547 34.4737 20.4576 34.4737 20.4576V15.7334C34.4737 15.7334 27.616 15.8289 23.3272 20.0233C19.7276 23.5465 21.6579 26.4865 24.676 26.1496C24.7602 26.1436 24.7729 26.2202 24.6643 26.2495C22.9074 26.645 19.6133 26.5788 18.4856 22.8858C17.4104 19.3643 20.0104 15.7334 20.0104 15.7334H15.5264Z" fill="white"/>
</svg>
