<svg width="40" height="40" viewBox="0 0 40 40" fill="none" xmlns="http://www.w3.org/2000/svg">
<g id="chart-2">
<circle id="Ellipse 193" cx="20" cy="20" r="19.5" stroke="#DC0533"/>
<g id="Iconly/Bold/Activity">
<g id="Activity">
<path id="Activity_2" fill-rule="evenodd" clip-rule="evenodd" d="M24.3161 13.6748C24.3161 12.5665 25.2161 11.6665 26.3244 11.6665C27.4328 11.6665 28.3328 12.5665 28.3328 13.6748C28.3328 14.7832 27.4328 15.6832 26.3244 15.6832C25.2161 15.6832 24.3161 14.7832 24.3161 13.6748ZM21.1077 22.2993L23.516 19.1918L23.4827 19.2084C23.616 19.0251 23.641 18.7918 23.5493 18.5834C23.4585 18.3751 23.2577 18.2334 23.0418 18.2168C22.816 18.1918 22.5918 18.2918 22.4577 18.4751L20.4418 21.0834L18.1327 19.2668C17.991 19.1584 17.8243 19.1159 17.6577 19.1334C17.4918 19.1584 17.3418 19.2493 17.241 19.3826L14.7752 22.5918L14.7243 22.6668C14.5827 22.9326 14.6493 23.2743 14.8993 23.4584C15.016 23.5334 15.141 23.5834 15.2827 23.5834C15.4752 23.5918 15.6577 23.4909 15.7743 23.3334L17.866 20.6409L20.241 22.4251L20.316 22.4743C20.5827 22.6159 20.916 22.5501 21.1077 22.2993ZM22.8743 13.1501C22.841 13.3584 22.8243 13.5668 22.8243 13.7751C22.8243 15.6501 24.341 17.1659 26.2077 17.1659C26.416 17.1659 26.616 17.1418 26.8243 17.1084V23.8326C26.8243 26.6584 25.1577 28.3334 22.3243 28.3334H16.1668C13.3327 28.3334 11.666 26.6584 11.666 23.8326V17.6668C11.666 14.8334 13.3327 13.1501 16.1668 13.1501H22.8743Z" fill="#1E1E1E"/>
</g>
</g>
</g>
</svg>
