<svg width="50" height="50" viewBox="0 0 50 50" fill="none" xmlns="http://www.w3.org/2000/svg">
<circle cx="25" cy="25" r="24.5" stroke="#DC0533"/>
<path fill-rule="evenodd" clip-rule="evenodd" d="M27.0864 15.438C26.5544 13.254 23.4464 13.254 22.9144 15.438C22.835 15.7662 22.6792 16.071 22.4597 16.3276C22.2403 16.5842 21.9633 16.7853 21.6514 16.9147C21.3395 17.044 21.0015 17.0979 20.6648 17.0719C20.3282 17.0459 20.0024 16.9408 19.714 16.7652C17.7932 15.5948 15.5952 17.7928 16.7656 19.7136C17.5216 20.954 16.851 22.5724 15.4398 22.9154C13.2544 23.446 13.2544 26.5554 15.4398 27.0846C15.7681 27.1641 16.0729 27.32 16.3295 27.5397C16.5861 27.7593 16.7872 28.0365 16.9165 28.3485C17.0457 28.6606 17.0994 28.9988 17.0732 29.3355C17.047 29.6723 16.9416 29.9981 16.7656 30.2864C15.5952 32.2072 17.7932 34.4052 19.714 33.2348C20.0023 33.0588 20.3281 32.9535 20.6649 32.9272C21.0016 32.901 21.3398 32.9547 21.6519 33.084C21.964 33.2132 22.2411 33.4143 22.4607 33.6709C22.6804 33.9275 22.8363 34.2323 22.9158 34.5606C23.4464 36.746 26.5558 36.746 27.085 34.5606C27.1648 34.2325 27.3209 33.9279 27.5406 33.6714C27.7603 33.415 28.0374 33.214 28.3494 33.0849C28.6613 32.9557 28.9994 32.9019 29.336 32.928C29.6727 32.954 29.9984 33.0591 30.2868 33.2348C32.2076 34.4052 34.4056 32.2072 33.2352 30.2864C33.0596 29.998 32.9545 29.6722 32.9284 29.3356C32.9024 28.9989 32.9561 28.6609 33.0853 28.3489C33.2145 28.0369 33.4154 27.7598 33.6719 27.5402C33.9283 27.3205 34.2329 27.1644 34.561 27.0846C36.7464 26.554 36.7464 23.4446 34.561 22.9154C34.2328 22.8359 33.9279 22.6799 33.6713 22.4603C33.4147 22.2406 33.2136 21.9635 33.0844 21.6514C32.9552 21.3394 32.9015 21.0012 32.9277 20.6644C32.9539 20.3277 33.0593 20.0019 33.2352 19.7136C34.4056 17.7928 32.2076 15.5948 30.2868 16.7652C29.9985 16.9411 29.6727 17.0465 29.336 17.0727C28.9992 17.0989 28.661 17.0452 28.349 16.916C28.0369 16.7868 27.7598 16.5857 27.5401 16.3291C27.3205 16.0725 27.1646 15.7677 27.085 15.4394L27.0864 15.438ZM25.0004 29.2C26.1143 29.2 27.1826 28.7575 27.9703 27.9698C28.7579 27.1822 29.2004 26.1139 29.2004 25C29.2004 23.8861 28.7579 22.8178 27.9703 22.0301C27.1826 21.2425 26.1143 20.8 25.0004 20.8C23.8865 20.8 22.8182 21.2425 22.0306 22.0301C21.2429 22.8178 20.8004 23.8861 20.8004 25C20.8004 26.1139 21.2429 27.1822 22.0306 27.9698C22.8182 28.7575 23.8865 29.2 25.0004 29.2Z" fill="#1E1E1E"/>
</svg>
