<svg width="50" height="60" viewBox="0 0 50 60" fill="none" xmlns="http://www.w3.org/2000/svg">
<path d="M7.85152 7.81114L7.85155 7.81111C12.3989 3.29046 18.5674 0.75 25.0003 0.75C31.4331 0.75 37.6016 3.29046 42.149 7.81111C46.6962 12.3316 49.25 18.4618 49.25 24.8528C49.25 31.2438 46.6962 37.374 42.149 41.8945L25.0003 58.9425L7.85155 41.8945L7.85152 41.8945C5.59979 39.6562 3.81384 36.9992 2.59544 34.0752C1.37704 31.1512 0.75 28.0175 0.75 24.8528C0.75 21.6882 1.37704 18.5544 2.59544 15.6304C3.81384 12.7065 5.59979 10.0494 7.85152 7.81114ZM25.0003 32.7033C27.092 32.7033 29.099 31.8772 30.5795 30.4055C32.0601 28.9336 32.8927 26.9363 32.8927 24.8528C32.8927 22.7693 32.0601 20.7721 30.5795 19.3002C29.099 17.8284 27.092 17.0024 25.0003 17.0024C22.9085 17.0024 20.9015 17.8284 19.421 19.3002C17.9405 20.7721 17.1078 22.7693 17.1078 24.8528C17.1078 26.9363 17.9405 28.9336 19.421 30.4055C20.9015 31.8772 22.9085 32.7033 25.0003 32.7033Z" fill="#DC0533" stroke="white" stroke-width="1.5"/>
<rect x="9.21069" y="9.33331" width="31.5789" height="32" rx="10" fill="#DC0533"/>
<path d="M23.7879 20.5509L21.9806 24.4864L24.923 25.7666L24.902 27.8176L15.5265 29.1333V34.9333C15.5265 34.9333 22.3844 34.8376 26.6716 30.6863C30.2732 27.2002 28.3428 24.2894 25.3228 24.622C25.2402 24.6288 25.2252 24.5522 25.3354 24.5248C27.0931 24.1335 30.3867 24.1973 31.5143 27.8533C32.5898 31.3397 29.9889 34.9333 29.9889 34.9333H34.4739V15.7333L23.7879 20.5509Z" fill="#DC0533"/>
<path d="M15.5265 34.9333H15.5315C15.7402 34.9295 22.452 34.7731 26.672 30.6864C30.2734 27.2001 28.3431 24.2895 25.3232 24.6229C25.2407 24.6289 25.2257 24.553 25.335 24.5247C27.0928 24.1334 30.3862 24.1974 31.5137 27.8542C32.5889 31.3396 29.9891 34.9333 29.9891 34.9333H34.4739V15.7333L23.7877 20.5507L21.9802 24.4865L24.9228 25.7673L24.9025 27.8175L15.5265 29.1335V34.9333Z" fill="white"/>
<path d="M23.3274 20.0234C19.7287 23.5467 21.658 26.4868 24.6771 26.15C24.7604 26.1449 24.774 26.2206 24.6644 26.2499C22.9076 26.6454 19.6134 26.5792 18.486 22.886C17.4105 19.3644 20.0115 15.7333 20.0115 15.7333H15.5265V30.6142C18.4194 31.1054 21.0018 30.9349 24.0865 29.4355C27.1711 27.9362 27.2569 25.3384 24.9278 25.3384C22.7428 25.3384 22.0284 23.8113 24.3666 21.921C27.4203 19.4548 34.4739 20.4577 34.4739 20.4577V15.7333C34.4739 15.7333 27.6164 15.8298 23.3274 20.0234Z" fill="#DC0533"/>
<path d="M15.5265 15.7333V30.6136C18.4185 31.1058 21.0016 30.9351 24.0863 29.4349C27.172 27.9348 27.256 25.338 24.9278 25.338C22.7425 25.338 22.0282 23.8102 24.3666 21.9208C27.42 19.4546 34.4739 20.4575 34.4739 20.4575V15.7333C34.4739 15.7333 27.6161 15.8289 23.3274 20.0232C19.7277 23.5464 21.658 26.4864 24.6762 26.1496C24.7604 26.1435 24.773 26.2202 24.6644 26.2495C22.9076 26.6449 19.6134 26.5787 18.4858 22.8858C17.4105 19.3642 20.0106 15.7333 20.0106 15.7333H15.5265Z" fill="white"/>
</svg>
