<svg width="26" height="26" viewBox="0 0 26 26" fill="none" xmlns="http://www.w3.org/2000/svg">
<path fill-rule="evenodd" clip-rule="evenodd" d="M23.8293 9.07305H19.2418C17.1069 9.07681 15.3774 10.7631 15.3735 12.8446C15.3707 14.9308 17.1021 16.6246 19.2418 16.6274H23.8332V16.9589C23.8332 20.598 21.627 22.75 17.8936 22.75H8.10702C4.37265 22.75 2.1665 20.598 2.1665 16.9589V9.03268C2.1665 5.39351 4.37265 3.25 8.10702 3.25H17.8898C21.6232 3.25 23.8293 5.39351 23.8293 9.03268V9.07305ZM7.30102 9.0646H13.411H13.4149H13.4226C13.88 9.06273 14.2498 8.69937 14.2478 8.25246C14.2459 7.80648 13.8723 7.44594 13.4149 7.44782H7.30102C6.8465 7.4497 6.47769 7.8093 6.47576 8.25339C6.47384 8.69937 6.84362 9.06273 7.30102 9.0646Z" fill="#DC0533"/>
<path d="M17.3735 13.3214C17.6001 14.3518 18.5035 15.0768 19.535 15.058H23.0557C23.4849 15.058 23.833 14.7026 23.833 14.2632V11.5207C23.8321 11.0823 23.4849 10.7259 23.0557 10.725H19.4521C18.2788 10.7288 17.3312 11.7027 17.333 12.9028C17.333 13.0433 17.3468 13.1838 17.3735 13.3214Z" fill="#FFCC00"/>
<circle cx="19.4998" cy="12.8917" r="1.08333" fill="#DC0533"/>
</svg>
