<svg width="50" height="70" viewBox="0 0 50 70" fill="none" xmlns="http://www.w3.org/2000/svg">
<path d="M7.84899 7.74496L7.84902 7.74494C12.3959 3.26745 18.5651 0.75 25.0003 0.75C31.4354 0.75 37.6047 3.26745 42.1515 7.74494C46.698 12.222 49.25 18.2918 49.25 24.6183C49.25 30.9449 46.698 37.0146 42.1515 41.4918L25.0003 58.3813L7.84902 41.4918L7.84899 41.4917C5.59759 39.2749 3.81229 36.6437 2.59446 33.7487C1.37665 30.8537 0.75 27.7512 0.75 24.6183C0.75 21.4855 1.37665 18.383 2.59446 15.488C3.81229 12.593 5.59759 9.9618 7.84899 7.74496Z" fill="#DC0533" stroke="white" stroke-width="1.5"/>
<rect x="9.21045" y="9.24536" width="31.5789" height="31.6981" rx="10" fill="#DC0533"/>
<path d="M23.7875 20.3571L21.9802 24.2555L24.9227 25.5236L24.9016 27.5552L15.5261 28.8585V34.6038C15.5261 34.6038 22.384 34.509 26.6713 30.3968C30.2728 26.9436 28.3424 24.0603 25.3224 24.3898C25.2399 24.3965 25.2248 24.3206 25.3351 24.2935C27.0928 23.9059 30.3863 23.9691 31.5139 27.5906C32.5894 31.0441 29.9885 34.6038 29.9885 34.6038H34.4735V15.585L23.7875 20.3571Z" fill="#DC0533"/>
<path d="M15.5261 34.6038H15.5311C15.7398 34.6 22.4517 34.4451 26.6717 30.397C30.273 26.9435 28.3427 24.0604 25.3229 24.3906C25.2403 24.3966 25.2253 24.3214 25.3346 24.2934C27.0924 23.9057 30.3858 23.9692 31.5133 27.5915C32.5886 31.044 29.9887 34.6038 29.9887 34.6038H34.4735V15.585L23.7873 20.3569L21.9799 24.2556L24.9224 25.5242L24.9021 27.5551L15.5261 28.8587V34.6038Z" fill="white"/>
<path d="M23.327 19.8345C19.7283 23.3247 21.6576 26.237 24.6767 25.9033C24.76 25.8983 24.7736 25.9732 24.6641 26.0023C22.9072 26.394 19.6131 26.3285 18.4856 22.6702C17.4102 19.1818 20.0111 15.585 20.0111 15.585H15.5261V30.3254C18.4191 30.812 21.0014 30.6431 24.0862 29.1578C27.1707 27.6727 27.2565 25.0994 24.9274 25.0994C22.7424 25.0994 22.0281 23.5867 24.3662 21.7143C27.4199 19.2713 34.4735 20.2647 34.4735 20.2647V15.585C34.4735 15.585 27.616 15.6806 23.327 19.8345Z" fill="#DC0533"/>
<path d="M15.5261 15.585V30.3249C18.4181 30.8123 21.0012 30.6433 24.0859 29.1573C27.1716 27.6713 27.2556 25.099 24.9274 25.099C22.7422 25.099 22.0278 23.5856 24.3662 21.714C27.4197 19.2711 34.4735 20.2646 34.4735 20.2646V15.585C34.4735 15.585 27.6157 15.6796 23.327 19.8344C19.7273 23.3244 21.6576 26.2366 24.6758 25.9029C24.76 25.8969 24.7726 25.9728 24.6641 26.0019C22.9072 26.3936 19.6131 26.328 18.4854 22.6699C17.4102 19.1816 20.0102 15.585 20.0102 15.585H15.5261Z" fill="white"/>
<ellipse cx="25" cy="66.6981" rx="14.4737" ry="3.30188" fill="#DC0533"/>
</svg>
