<svg width="52" height="52" viewBox="0 0 52 52" fill="none" xmlns="http://www.w3.org/2000/svg">
<circle cx="26" cy="26" r="26" fill="#F1F1F1"/>
<path d="M32.4 32.3116C31.7786 33.2125 30.9546 33.9551 29.9943 34.4799C29.0339 35.0047 27.9638 35.2969 26.87 35.3333C23.7433 35.3333 21.0367 32.9999 19.87 29.4999H26.3333C26.6428 29.4999 26.9395 29.377 27.1583 29.1582C27.3771 28.9394 27.5 28.6427 27.5 28.3333C27.5 28.0238 27.3771 27.7271 27.1583 27.5083C26.9395 27.2895 26.6428 27.1666 26.3333 27.1666H19.3917C19.3917 26.7816 19.3333 26.3849 19.3333 25.9999C19.3333 25.6149 19.3333 25.2183 19.3917 24.8333H26.3333C26.6428 24.8333 26.9395 24.7103 27.1583 24.4915C27.3771 24.2728 27.5 23.976 27.5 23.6666C27.5 23.3572 27.3771 23.0604 27.1583 22.8416C26.9395 22.6228 26.6428 22.4999 26.3333 22.4999H19.8817C21.0483 18.9999 23.7433 16.6666 26.8817 16.6666C27.9735 16.7047 29.0412 16.9978 29.9994 17.5225C30.9577 18.0472 31.7798 18.7889 32.4 19.6883C32.4823 19.83 32.5936 19.9529 32.7266 20.0487C32.8596 20.1446 33.0113 20.2114 33.1718 20.2447C33.3324 20.278 33.4981 20.2771 33.6583 20.242C33.8184 20.207 33.9694 20.1386 34.1013 20.0413C34.2333 19.944 34.3432 19.8199 34.424 19.6773C34.5048 19.5346 34.5546 19.3766 34.5702 19.2134C34.5858 19.0501 34.5669 18.8855 34.5146 18.7301C34.4623 18.5747 34.3778 18.4321 34.2667 18.3116C33.4357 17.1113 32.3322 16.125 31.0465 15.4335C29.7608 14.7419 28.3295 14.3649 26.87 14.3333C22.4833 14.3333 18.7033 17.6466 17.455 22.4999H14.6667C14.3572 22.4999 14.0605 22.6228 13.8417 22.8416C13.6229 23.0604 13.5 23.3572 13.5 23.6666C13.5 23.976 13.6229 24.2728 13.8417 24.4915C14.0605 24.7103 14.3572 24.8333 14.6667 24.8333H17.0583V27.1666H14.6667C14.3572 27.1666 14.0605 27.2895 13.8417 27.5083C13.6229 27.7271 13.5 28.0238 13.5 28.3333C13.5 28.6427 13.6229 28.9394 13.8417 29.1582C14.0605 29.377 14.3572 29.4999 14.6667 29.4999H17.455C18.7267 34.3533 22.4833 37.6666 26.87 37.6666C28.3295 37.6349 29.7608 37.2579 31.0465 36.5664C32.3322 35.8749 33.4357 34.8885 34.2667 33.6883C34.411 33.4397 34.4585 33.1467 34.4001 32.8653C34.3417 32.5839 34.1815 32.334 33.9503 32.1634C33.719 31.9928 33.4329 31.9136 33.1468 31.941C32.8607 31.9683 32.5948 32.1003 32.4 32.3116Z" fill="#1E1E1E"/>
</svg>
