<svg width="40" height="40" viewBox="0 0 40 40" fill="none" xmlns="http://www.w3.org/2000/svg">
<circle cx="20" cy="20" r="19.5" stroke="#DC0533"/>
<path d="M13.7139 13.7142C13.1582 13.7142 12.6253 13.935 12.2323 14.3279C11.8394 14.7208 11.6187 15.2538 11.6187 15.8095V16.8571H28.3806V15.8095C28.3806 15.2538 28.1598 14.7208 27.7669 14.3279C27.3739 13.935 26.841 13.7142 26.2853 13.7142H13.7139Z" fill="#1E1E1E"/>
<path fill-rule="evenodd" clip-rule="evenodd" d="M28.3806 18.9524H11.6187V24.1905C11.6187 24.7462 11.8394 25.2791 12.2323 25.672C12.6253 26.065 13.1582 26.2857 13.7139 26.2857H26.2853C26.841 26.2857 27.3739 26.065 27.7669 25.672C28.1598 25.2791 28.3806 24.7462 28.3806 24.1905V18.9524ZM13.7139 23.1429C13.7139 22.865 13.8243 22.5986 14.0207 22.4021C14.2172 22.2056 14.4837 22.0952 14.7615 22.0952H15.8091C16.087 22.0952 16.3534 22.2056 16.5499 22.4021C16.7464 22.5986 16.8567 22.865 16.8567 23.1429C16.8567 23.4207 16.7464 23.6872 16.5499 23.8836C16.3534 24.0801 16.087 24.1905 15.8091 24.1905H14.7615C14.4837 24.1905 14.2172 24.0801 14.0207 23.8836C13.8243 23.6872 13.7139 23.4207 13.7139 23.1429ZM18.952 22.0952C18.6741 22.0952 18.4077 22.2056 18.2112 22.4021C18.0147 22.5986 17.9044 22.865 17.9044 23.1429C17.9044 23.4207 18.0147 23.6872 18.2112 23.8836C18.4077 24.0801 18.6741 24.1905 18.952 24.1905H19.9996C20.2775 24.1905 20.5439 24.0801 20.7404 23.8836C20.9369 23.6872 21.0472 23.4207 21.0472 23.1429C21.0472 22.865 20.9369 22.5986 20.7404 22.4021C20.5439 22.2056 20.2775 22.0952 19.9996 22.0952H18.952Z" fill="#1E1E1E"/>
</svg>
