<svg width="26" height="26" viewBox="0 0 26 26" fill="none" xmlns="http://www.w3.org/2000/svg">
<path d="M7.27578 24.9167H3.09188C2.95451 24.9167 2.81848 24.8887 2.69156 24.8343C2.56464 24.7798 2.44931 24.7001 2.35218 24.5994C2.25504 24.4988 2.178 24.3794 2.12545 24.248C2.07289 24.1165 2.04586 23.9756 2.0459 23.8333V17.3333C2.04586 17.1911 2.07289 17.0502 2.12545 16.9187C2.178 16.7873 2.25504 16.6678 2.35218 16.5672C2.44931 16.4666 2.56464 16.3868 2.69156 16.3324C2.81848 16.278 2.95451 16.25 3.09188 16.25H7.27578C7.41315 16.25 7.54918 16.278 7.6761 16.3324C7.80302 16.3868 7.91834 16.4666 8.01548 16.5672C8.11261 16.6678 8.18966 16.7873 8.24221 16.9187C8.29476 17.0502 8.3218 17.1911 8.32176 17.3333V23.8333C8.3218 23.9756 8.29476 24.1165 8.24221 24.248C8.18966 24.3794 8.11261 24.4988 8.01548 24.5994C7.91834 24.7001 7.80302 24.7798 7.6761 24.8343C7.54918 24.8887 7.41315 24.9167 7.27578 24.9167Z" fill="#FFCC00"/>
<path d="M15.6435 24.9167H11.4596C11.3222 24.9167 11.1862 24.8887 11.0592 24.8343C10.9323 24.7798 10.817 24.7001 10.7199 24.5994C10.6227 24.4988 10.5457 24.3794 10.4931 24.248C10.4406 24.1165 10.4135 23.9756 10.4136 23.8333V10.8333C10.4135 10.6911 10.4406 10.5502 10.4931 10.4187C10.5457 10.2873 10.6227 10.1678 10.7199 10.0672C10.817 9.96661 10.9323 9.88682 11.0592 9.83239C11.1862 9.77796 11.3222 9.74996 11.4596 9.75H15.6435C15.7808 9.74996 15.9169 9.77796 16.0438 9.83239C16.1707 9.88682 16.286 9.96661 16.3832 10.0672C16.4803 10.1678 16.5573 10.2873 16.6099 10.4187C16.6624 10.5502 16.6895 10.6911 16.6894 10.8333V23.8333C16.6895 23.9756 16.6624 24.1165 16.6099 24.248C16.5573 24.3794 16.4803 24.4988 16.3832 24.5994C16.286 24.7001 16.1707 24.7798 16.0438 24.8343C15.9169 24.8887 15.7808 24.9167 15.6435 24.9167Z" fill="#DC0533"/>
<path d="M24.0116 24.9166H19.8277C19.6903 24.9167 19.5543 24.8887 19.4274 24.8343C19.3005 24.7798 19.1852 24.7 19.088 24.5994C18.9909 24.4988 18.9138 24.3794 18.8613 24.2479C18.8087 24.1165 18.7817 23.9756 18.7817 23.8333V2.16665C18.7817 2.02437 18.8087 1.88348 18.8613 1.75203C18.9138 1.62058 18.9909 1.50114 19.088 1.40053C19.1852 1.29993 19.3005 1.22013 19.4274 1.1657C19.5543 1.11127 19.6903 1.08328 19.8277 1.08331H24.0116C24.149 1.08328 24.285 1.11127 24.4119 1.1657C24.5389 1.22013 24.6542 1.29993 24.7513 1.40053C24.8485 1.50114 24.9255 1.62058 24.9781 1.75203C25.0306 1.88348 25.0576 2.02437 25.0576 2.16665V23.8333C25.0576 23.9756 25.0306 24.1165 24.9781 24.2479C24.9255 24.3794 24.8485 24.4988 24.7513 24.5994C24.6542 24.7 24.5389 24.7798 24.4119 24.8343C24.285 24.8887 24.149 24.9167 24.0116 24.9166Z" fill="#DC0533"/>
</svg>
