<svg width="50" height="70" viewBox="0 0 50 70" fill="none" xmlns="http://www.w3.org/2000/svg">
<path d="M7.84899 7.74497L7.84902 7.74494C12.3959 3.26745 18.5651 0.75 25.0003 0.75C31.4354 0.75 37.6047 3.26745 42.1515 7.74494C46.698 12.222 49.25 18.2918 49.25 24.6184C49.25 30.9449 46.698 37.0147 42.1515 41.4918L25.0003 58.3814L7.84902 41.4918L7.84899 41.4917C5.59759 39.2749 3.81229 36.6437 2.59446 33.7487C1.37665 30.8537 0.75 27.7512 0.75 24.6184C0.75 21.4855 1.37665 18.383 2.59446 15.488C3.81229 12.593 5.59759 9.9618 7.84899 7.74497Z" fill="white" stroke="#F65E64" stroke-width="1.5"/>
<ellipse cx="25.0001" cy="66.6981" rx="14.4737" ry="3.30189" fill="#F65E64"/>
<path d="M30.1576 23.8055L22.225 15L19.5791 17.3828L27.7613 26.4653L30.1576 23.8055Z" fill="#00A0E3"/>
<path d="M30.1577 23.8056L19.5164 35.6172L22.1622 38L32.5517 26.4631L30.1577 23.8056Z" fill="#F65E64"/>
</svg>
