<svg width="50" height="50" viewBox="0 0 50 50" fill="none" xmlns="http://www.w3.org/2000/svg">
<circle cx="25" cy="25" r="24.5" stroke="#DC0533"/>
<path d="M18.8751 32C17.7558 31.9985 16.6796 31.5681 15.868 30.7972C15.0563 30.0264 14.5711 28.9738 14.512 27.856C14.4529 26.7382 14.8245 25.6403 15.5503 24.7882C16.2761 23.936 17.3009 23.3945 18.4139 23.275C18.0862 21.9899 18.2824 20.6272 18.9594 19.4867C19.6364 18.3463 20.7387 17.5215 22.0239 17.1938C23.309 16.8661 24.6717 17.0623 25.8121 17.7393C26.9526 18.4163 27.7774 19.5186 28.1051 20.8038C28.8694 20.6973 29.6474 20.7493 30.3908 20.9565C31.1342 21.1636 31.827 21.5215 32.4261 22.0079C33.0252 22.4942 33.5178 23.0987 33.8733 23.7836C34.2289 24.4685 34.4396 25.2192 34.4926 25.9891C34.5455 26.759 34.4395 27.5315 34.1811 28.2586C33.9227 28.9857 33.5174 29.6519 32.9905 30.2157C32.4637 30.7795 31.8264 31.2289 31.1184 31.5358C30.4104 31.8428 29.6468 32.0008 28.8751 32H18.8751Z" fill="#18181B"/>
</svg>
