<svg width="40" height="40" viewBox="0 0 40 40" fill="none" xmlns="http://www.w3.org/2000/svg">
<circle cx="20" cy="20" r="19.5" stroke="#DC0533"/>
<path d="M15 13C14.4696 13 13.9609 13.2107 13.5858 13.5858C13.2107 13.9609 13 14.4696 13 15V17C13 17.5304 13.2107 18.0391 13.5858 18.4142C13.9609 18.7893 14.4696 19 15 19H17C17.5304 19 18.0391 18.7893 18.4142 18.4142C18.7893 18.0391 19 17.5304 19 17V15C19 14.4696 18.7893 13.9609 18.4142 13.5858C18.0391 13.2107 17.5304 13 17 13H15ZM15 21C14.4696 21 13.9609 21.2107 13.5858 21.5858C13.2107 21.9609 13 22.4696 13 23V25C13 25.5304 13.2107 26.0391 13.5858 26.4142C13.9609 26.7893 14.4696 27 15 27H17C17.5304 27 18.0391 26.7893 18.4142 26.4142C18.7893 26.0391 19 25.5304 19 25V23C19 22.4696 18.7893 21.9609 18.4142 21.5858C18.0391 21.2107 17.5304 21 17 21H15ZM21 15C21 14.4696 21.2107 13.9609 21.5858 13.5858C21.9609 13.2107 22.4696 13 23 13H25C25.5304 13 26.0391 13.2107 26.4142 13.5858C26.7893 13.9609 27 14.4696 27 15V17C27 17.5304 26.7893 18.0391 26.4142 18.4142C26.0391 18.7893 25.5304 19 25 19H23C22.4696 19 21.9609 18.7893 21.5858 18.4142C21.2107 18.0391 21 17.5304 21 17V15ZM21 23C21 22.4696 21.2107 21.9609 21.5858 21.5858C21.9609 21.2107 22.4696 21 23 21H25C25.5304 21 26.0391 21.2107 26.4142 21.5858C26.7893 21.9609 27 22.4696 27 23V25C27 25.5304 26.7893 26.0391 26.4142 26.4142C26.0391 26.7893 25.5304 27 25 27H23C22.4696 27 21.9609 26.7893 21.5858 26.4142C21.2107 26.0391 21 25.5304 21 25V23Z" fill="#1E1E1E"/>
</svg>
