<svg width="50" height="50" viewBox="0 0 50 50" fill="none" xmlns="http://www.w3.org/2000/svg">
<circle cx="25" cy="25" r="24.5" stroke="#DC0533"/>
<g clip-path="url(#clip0_898_9235)">
<path d="M39.1357 18.6453L39.9682 16.425C40.0068 16.3219 40.0104 16.209 39.9783 16.1037C39.9462 15.9984 39.8802 15.9066 39.7906 15.8426C39.7011 15.7787 39.5929 15.746 39.4829 15.7498C39.3729 15.7536 39.2672 15.7935 39.1822 15.8635L31.1699 22.4625C30.951 22.6434 30.788 22.8827 30.6997 23.1525C30.6114 23.4224 30.6013 23.7117 30.6708 23.987C30.7157 24.1631 30.7659 24.3577 30.8145 24.5437C30.8509 24.6841 30.8426 24.8322 30.7908 24.9676C30.7389 25.1029 30.6462 25.2187 30.5254 25.2989L30.5057 25.312C30.3777 25.3974 30.2245 25.4371 30.0711 25.4247C29.9176 25.4122 29.7729 25.3483 29.6603 25.2432L28.4697 23.5489L28.1837 22.1187C28.1346 21.8766 28.134 21.6272 28.1819 21.3848C28.2299 21.1425 28.3254 20.9121 28.463 20.7069C28.6955 20.3594 29.0366 20.0989 29.433 19.966C29.6005 19.9096 29.7776 19.8871 29.9539 19.8996C30.1302 19.9121 30.3022 19.9595 30.4601 20.039L31.7765 20.6971C31.862 20.7399 31.958 20.7572 32.0531 20.7471C32.1481 20.7369 32.2383 20.6997 32.3129 20.6399C32.3874 20.5801 32.4433 20.5001 32.4738 20.4095C32.5044 20.3189 32.5083 20.2214 32.4851 20.1287L32.1643 18.8454C32.06 18.4281 31.8302 18.0528 31.506 17.7701L31.9053 15.7829C31.9527 15.5434 31.9113 15.2949 31.7886 15.0838C31.666 14.8727 31.4707 14.7135 31.2392 14.6359L30.5692 14.4109L30.563 14.4089C30.5423 14.4023 30.5212 14.3973 30.5005 14.3914V13.75C30.5005 13.6174 30.4478 13.4902 30.354 13.3964C30.2603 13.3027 30.1331 13.25 30.0005 13.25C29.8679 13.25 29.7407 13.3027 29.6469 13.3964C29.5532 13.4902 29.5005 13.6174 29.5005 13.75V14.3912C29.4796 14.3971 29.4584 14.402 29.438 14.4086L29.4317 14.4107L28.763 14.6354C28.5312 14.7128 28.3356 14.8721 28.2128 15.0834C28.09 15.2947 28.0485 15.5435 28.0959 15.7832L28.4176 17.3839C28.1676 17.4444 27.9229 17.5252 27.686 17.6256L27.0528 16.6756L27.6772 14.8021C27.7979 14.4392 27.7754 14.0439 27.6145 13.6969C27.4536 13.3499 27.1664 13.0774 26.8114 12.9351L25.5011 12.411V11.75C25.5011 11.6174 25.4485 11.4902 25.3547 11.3964C25.2609 11.3027 25.1337 11.25 25.0011 11.25C24.8685 11.25 24.7413 11.3027 24.6476 11.3964C24.5538 11.4902 24.5011 11.6174 24.5011 11.75V12.4112L23.1898 12.9353C22.8349 13.0777 22.5476 13.3502 22.3867 13.6971C22.2258 14.0441 22.2033 14.4394 22.3239 14.8023L22.9485 16.6758L22.3152 17.6258C22.0783 17.5254 21.8336 17.4445 21.5836 17.3841L21.9054 15.7829C21.9528 15.5434 21.9114 15.2948 21.7887 15.0836C21.6661 14.8725 21.4708 14.7132 21.2392 14.6357L20.5692 14.4107L20.563 14.4086C20.5423 14.4019 20.5211 14.3971 20.5005 14.3912V13.75C20.5005 13.6174 20.4478 13.4902 20.354 13.3964C20.2603 13.3027 20.1331 13.25 20.0005 13.25C19.8679 13.25 19.7407 13.3027 19.6469 13.3964C19.5531 13.4902 19.5005 13.6174 19.5005 13.75V14.3912C19.4795 14.3971 19.4584 14.402 19.438 14.4086L19.4317 14.4107L18.763 14.6354C18.5312 14.7128 18.3356 14.8721 18.2128 15.0834C18.09 15.2946 18.0484 15.5435 18.0959 15.7832L18.4951 17.7698C18.1709 18.0525 17.9412 18.4279 17.8369 18.8452L17.516 20.1284C17.4928 20.2212 17.4967 20.3187 17.5272 20.4093C17.5578 20.4999 17.6136 20.5799 17.6882 20.6397C17.7628 20.6995 17.853 20.7367 17.9481 20.7468C18.0431 20.757 18.1391 20.7396 18.2247 20.6969L19.541 20.0387C19.6989 19.9593 19.871 19.9119 20.0473 19.8994C20.2236 19.8868 20.4006 19.9094 20.5682 19.9657C20.9645 20.0986 21.3057 20.3592 21.5381 20.7067C21.6757 20.9119 21.7712 21.1423 21.8192 21.3846C21.8671 21.627 21.8665 21.8764 21.8174 22.1185L21.5315 23.5484L20.3408 25.2428C20.2282 25.3478 20.0834 25.4118 19.9299 25.4243C19.7764 25.4368 19.6232 25.397 19.4951 25.3115L19.4757 25.2986C19.355 25.2185 19.2622 25.1027 19.2104 24.9673C19.1586 24.832 19.1502 24.6839 19.1865 24.5436C19.2353 24.3575 19.2853 24.1629 19.3303 23.9868C19.3997 23.7115 19.3897 23.4221 19.3014 23.1523C19.2131 22.8825 19.05 22.6432 18.8312 22.4622L10.8179 15.8637C10.733 15.7937 10.6273 15.7537 10.5173 15.7499C10.4073 15.7461 10.2991 15.7787 10.2095 15.8427C10.1199 15.9067 10.0539 15.9984 10.0218 16.1037C9.98964 16.209 9.99315 16.3219 10.0318 16.425L10.8643 18.6451C11.3327 19.8925 12.1169 20.997 13.1402 21.8506L13.3697 22.0417L11.0619 21.7533C10.9669 21.7414 10.8704 21.7571 10.784 21.7984C10.6976 21.8398 10.6249 21.9051 10.5746 21.9866C10.5242 22.0681 10.4983 22.1623 10.5 22.2581C10.5016 22.3538 10.5307 22.4471 10.5839 22.5268C11.2904 23.591 12.3154 24.4044 13.5123 24.8506L13.8666 24.9834L11.4447 25.2525C11.3407 25.2641 11.243 25.3079 11.1653 25.378C11.0875 25.448 11.0337 25.5406 11.0114 25.6428C10.9891 25.745 10.9994 25.8517 11.0409 25.9477C11.0824 26.0438 11.153 26.1244 11.2427 26.1782L12.1193 26.7044C13.1685 27.3351 14.3206 27.7761 15.5229 28.0071C14.7574 28.5329 14.0994 29.1999 13.5839 29.9724C13.5337 30.0477 13.5048 30.1352 13.5004 30.2257C13.496 30.3161 13.5162 30.4061 13.5589 30.4859C13.6017 30.5658 13.6653 30.6325 13.743 30.679C13.8207 30.7255 13.9096 30.7501 14.0001 30.75H14.1973C15.1679 30.7509 16.1261 30.5322 17.0001 30.1102V31.25C17.0001 31.3489 17.0295 31.4455 17.0844 31.5277C17.1393 31.6099 17.2174 31.674 17.3088 31.7118C17.4001 31.7497 17.5006 31.7596 17.5976 31.7403C17.6946 31.721 17.7837 31.6734 17.8536 31.6035L19.0001 30.4571L19.6465 31.1035C19.6988 31.1558 19.7621 31.1959 19.8318 31.2208C19.9014 31.2457 19.9757 31.2548 20.0493 31.2475C20.123 31.2402 20.194 31.2167 20.2575 31.1786C20.3209 31.1405 20.3751 31.0889 20.4161 31.0273L20.8614 30.3594C21.0165 30.1263 21.2395 29.9465 21.5001 29.8444V29.9199C21.4993 30.3177 21.3417 30.6991 21.0615 30.9814L20.7065 31.3364C20.3228 31.7182 20.0185 32.1723 19.8115 32.6724C19.6044 33.1725 19.4985 33.7087 19.5001 34.25C19.5002 34.3726 19.5453 34.491 19.6269 34.5825C19.7086 34.6741 19.821 34.7324 19.9428 34.7464L19.6557 35.3207L19.0316 35.4769L17.7558 34.0501C17.9284 33.7759 18.0075 33.4532 17.9813 33.1302C17.955 32.8073 17.8248 32.5015 17.6102 32.2588C17.3955 32.0161 17.1079 31.8495 16.7906 31.784C16.4733 31.7185 16.1433 31.7576 15.8501 31.8954C15.5568 32.0332 15.3162 32.2624 15.1641 32.5486C15.0121 32.8347 14.957 33.1624 15.0069 33.4826C15.0568 33.8027 15.2092 34.0981 15.4411 34.3243C15.673 34.5506 15.972 34.6956 16.2933 34.7376C16.3583 34.7461 16.4237 34.7504 16.4892 34.7504C16.6522 34.75 16.814 34.7227 16.9682 34.6698L17.935 35.751L17.8788 35.7651C17.8151 35.781 17.7551 35.8093 17.7024 35.8484C17.6496 35.8875 17.6051 35.9366 17.5713 35.9929C17.5031 36.1066 17.4828 36.2428 17.515 36.3714C17.5471 36.5001 17.6291 36.6107 17.7428 36.6789C17.8565 36.7472 17.9927 36.7674 18.1213 36.7353L18.6901 36.5931L19.1289 37.0799C19.1729 37.1287 19.226 37.1683 19.2853 37.1966C19.3446 37.2248 19.4088 37.2411 19.4744 37.2445C19.54 37.2479 19.6056 37.2384 19.6675 37.2164C19.7294 37.1945 19.7863 37.1605 19.8351 37.1166C19.8839 37.0726 19.9235 37.0195 19.9517 36.9602C19.98 36.9009 19.9963 36.8366 19.9997 36.7711C20.0031 36.7055 19.9935 36.6399 19.9716 36.578C19.9496 36.5161 19.9157 36.4591 19.8717 36.4104L19.7888 36.3184L20.1216 36.2353C20.1916 36.2178 20.2569 36.1853 20.3132 36.1402C20.3694 36.095 20.4153 36.0383 20.4475 35.9737L21.0591 34.75H21.5001C21.5929 34.75 21.684 34.7241 21.7629 34.6753C21.8419 34.6265 21.9058 34.5566 21.9473 34.4736C22.1557 34.0541 22.4649 33.6929 22.8473 33.4223L22.9895 33.6356L21.8101 35.6995C21.2797 36.6287 21.0005 37.6801 21.0001 38.75C21.0001 38.8826 21.0528 39.0098 21.1465 39.1036C21.2403 39.1973 21.3675 39.25 21.5001 39.25C21.6327 39.25 21.7599 39.1973 21.8536 39.1036C21.9474 39.0098 22.0001 38.8826 22.0001 38.75C22.0005 37.8541 22.2342 36.9737 22.6784 36.1957L23.3613 35.0006L23.3015 35.1502C22.7619 36.4915 22.6616 37.9694 23.015 39.3713C23.0307 39.4352 23.0589 39.4954 23.0979 39.5485C23.1369 39.6015 23.186 39.6463 23.2424 39.6804C23.2988 39.7144 23.3614 39.7369 23.4265 39.7467C23.4916 39.7564 23.558 39.7532 23.6219 39.7373C23.6858 39.7213 23.7459 39.6928 23.7988 39.6536C23.8516 39.6143 23.8962 39.565 23.93 39.5084C23.9637 39.4519 23.986 39.3892 23.9954 39.3241C24.0049 39.2589 24.0014 39.1925 23.9851 39.1287C23.6832 37.9307 23.7689 36.6678 24.2299 35.5216L24.2362 35.5057L24.4999 35.9013V40.75C24.4999 40.8826 24.5526 41.0098 24.6464 41.1036C24.7402 41.1973 24.8673 41.25 24.9999 41.25C25.1326 41.25 25.2597 41.1973 25.3535 41.1036C25.4473 41.0098 25.4999 40.8826 25.4999 40.75V35.9011L25.7637 35.5054L25.7699 35.5213C26.231 36.6675 26.3167 37.9304 26.0148 39.1284C25.9985 39.1922 25.995 39.2586 26.0045 39.3238C26.0139 39.389 26.0362 39.4516 26.0699 39.5082C26.1037 39.5647 26.1483 39.6141 26.2011 39.6533C26.254 39.6926 26.3141 39.721 26.378 39.737C26.4419 39.753 26.5083 39.7562 26.5734 39.7464C26.6385 39.7366 26.7011 39.7141 26.7575 39.6801C26.8139 39.6461 26.863 39.6013 26.902 39.5482C26.941 39.4952 26.9692 39.435 26.9849 39.371C27.3382 37.9691 27.2379 36.4912 26.6984 35.1499L26.6385 34.9999L27.3215 36.1952C27.7658 36.9734 27.9997 37.8539 28.0001 38.75C28.0001 38.8826 28.0527 39.0098 28.1465 39.1036C28.2403 39.1973 28.3674 39.25 28.5001 39.25C28.6327 39.25 28.7598 39.1973 28.8536 39.1036C28.9474 39.0098 29 38.8826 29 38.75C28.9996 37.6801 28.7204 36.6287 28.19 35.6995L27.0106 33.6356L27.1527 33.4223C27.5351 33.6929 27.8443 34.0541 28.0527 34.4736C28.0943 34.5566 28.1581 34.6265 28.2371 34.6753C28.3161 34.7242 28.4072 34.75 28.5001 34.75H28.941L29.5529 35.9736C29.5851 36.038 29.6309 36.0947 29.6871 36.1399C29.7432 36.185 29.8085 36.2174 29.8784 36.2349L31.1718 36.5594C31.3089 36.8691 31.5224 37.139 31.7924 37.3437C32.0623 37.5483 32.3798 37.681 32.7151 37.7294C33.0504 37.7778 33.3924 37.7402 33.7092 37.6202C34.026 37.5002 34.3071 37.3017 34.5262 37.0433C34.7452 36.7849 34.8951 36.4751 34.9616 36.143C35.0282 35.8108 35.0093 35.4672 34.9068 35.1444C34.8042 34.8215 34.6213 34.53 34.3753 34.2972C34.1292 34.0643 33.828 33.8978 33.5 33.8132V33.25C33.5 33.1174 33.4474 32.9902 33.3536 32.8964C33.2598 32.8027 33.1326 32.75 33 32.75C32.8674 32.75 32.7402 32.8027 32.6465 32.8964C32.5527 32.9902 32.5 33.1174 32.5 33.25V33.8132C32.1143 33.9137 31.7672 34.1268 31.5032 34.4254C31.2391 34.724 31.07 35.0945 31.0175 35.4897L30.3445 35.3209L30.057 34.7465C30.1789 34.7325 30.2914 34.6742 30.3731 34.5826C30.4548 34.4911 30.5 34.3727 30.5 34.25C30.5016 33.7087 30.3958 33.1725 30.1888 32.6724C29.9817 32.1723 29.6775 31.7182 29.2938 31.3364L28.9388 30.9814C28.6586 30.6991 28.501 30.3177 28.5002 29.9199V29.8444C28.7609 29.9466 28.9838 30.1263 29.1389 30.3594L29.5842 31.0273C29.6253 31.0889 29.6795 31.1405 29.7429 31.1786C29.8063 31.2167 29.8774 31.2402 29.951 31.2475C30.0246 31.2548 30.0989 31.2457 30.1686 31.2208C30.2382 31.1959 30.3015 31.1558 30.3538 31.1035L31.0002 30.4571L32.1467 31.6035C32.2166 31.6734 32.3057 31.7209 32.4026 31.7402C32.4996 31.7594 32.6001 31.7495 32.6914 31.7117C32.7827 31.6739 32.8608 31.6098 32.9157 31.5276C32.9706 31.4455 33 31.3489 33 31.25V30.1099C33.8741 30.532 34.8322 30.7508 35.8028 30.75H36C36.0905 30.75 36.1793 30.7254 36.257 30.6789C36.3346 30.6324 36.3982 30.5657 36.4409 30.4859C36.4836 30.4061 36.5038 30.3162 36.4994 30.2258C36.4951 30.1354 36.4662 30.0479 36.416 29.9726C35.9006 29.2002 35.2426 28.5331 34.4771 28.0073C35.6794 27.7763 36.8315 27.3354 37.8807 26.7046L38.7573 26.1787C38.847 26.1249 38.9175 26.0443 38.959 25.9482C39.0005 25.8522 39.0108 25.7455 38.9885 25.6433C38.9662 25.5411 38.9124 25.4485 38.8347 25.3785C38.757 25.3084 38.6592 25.2646 38.5553 25.253L36.1334 24.9839L36.4876 24.8511C37.6845 24.4049 38.7095 23.5915 39.4161 22.5273C39.4693 22.4476 39.4985 22.3543 39.5002 22.2585C39.5019 22.1626 39.476 22.0683 39.4256 21.9868C39.3752 21.9053 39.3024 21.8399 39.216 21.7986C39.1295 21.7572 39.033 21.7416 38.9379 21.7536L36.6301 22.042L36.8596 21.8508C37.8829 20.9973 38.6672 19.8928 39.1357 18.6453ZM16.4234 33.7456C16.2978 33.7289 16.1832 33.6651 16.1028 33.567C16.0224 33.469 15.9823 33.3441 15.9905 33.2176C15.9987 33.0911 16.0546 32.9725 16.147 32.8857C16.2393 32.7989 16.3612 32.7504 16.488 32.75C16.5913 32.7498 16.6921 32.7817 16.7765 32.8412C16.861 32.9007 16.9249 32.985 16.9594 33.0824C16.9939 33.1797 16.9974 33.2854 16.9693 33.3849C16.9413 33.4843 16.8831 33.5726 16.8027 33.6375C16.793 33.6442 16.7835 33.6514 16.7741 33.6589C16.6722 33.7306 16.547 33.7615 16.4234 33.7456ZM33 36.75C32.8247 36.7498 32.6526 36.7034 32.5008 36.6157C32.349 36.5279 32.223 36.4018 32.1353 36.25H33.8647C33.7771 36.4018 33.651 36.5279 33.4993 36.6157C33.3475 36.7034 33.1753 36.7498 33 36.75ZM33.8647 35.25H33.5V34.8853C33.6512 34.9731 33.7769 35.0988 33.8647 35.25ZM32.5 34.8853V35.25H32.1353C32.2231 35.0987 32.3488 34.9729 32.5 34.8851V34.8853ZM22.5001 24.25H27.5001V30.0292C27.5002 30.1342 27.4672 30.2365 27.4058 30.3217C27.3444 30.4069 27.2578 30.4705 27.1582 30.5036L25.0001 31.223L22.842 30.5036C22.7423 30.4705 22.6557 30.4069 22.5943 30.3217C22.533 30.2365 22.5 30.1342 22.5001 30.0292V24.25ZM30.9074 19.1444C30.6321 19.0058 30.3322 18.9232 30.0248 18.9013C29.7175 18.8795 29.4088 18.9188 29.1168 19.0171C28.5096 19.2206 27.9871 19.6197 27.631 20.1519C27.4202 20.4662 27.2739 20.8191 27.2005 21.1903C27.127 21.5615 27.1279 21.9436 27.2031 22.3144L27.3902 23.25H25.5766L25.8311 21.4688C25.9587 20.5754 26.4042 19.7581 27.0859 19.1668C27.7676 18.5756 28.6397 18.25 29.5421 18.25H30.1209C30.3675 18.25 30.6071 18.3324 30.8016 18.4841C30.9961 18.6358 31.1342 18.8482 31.1942 19.0875L31.2514 19.3161L30.9074 19.1444ZM29.0792 15.5837L29.7457 15.3599C29.9112 15.308 30.0886 15.308 30.2541 15.3599L30.9249 15.5863L30.5802 17.3014C30.4294 17.2674 30.2754 17.2501 30.1209 17.2498H29.5421C29.4982 17.2498 29.4545 17.2504 29.4109 17.2517L29.0792 15.5837ZM23.5613 13.8637L25.0001 13.2882L26.4389 13.8637C26.5572 13.9112 26.653 14.002 26.7066 14.1177C26.7603 14.2333 26.7678 14.3651 26.7276 14.4861L26.1397 16.25H23.8604L23.2726 14.4864C23.2323 14.3653 23.2397 14.2335 23.2934 14.1178C23.3471 14.0021 23.4429 13.9112 23.5613 13.8637ZM23.7675 17.2497H26.2324L26.8081 18.1133C25.9444 18.7234 25.3082 19.6036 24.9999 20.6151C24.6916 19.6036 24.0555 18.7234 23.1918 18.1133L23.7675 17.2497ZM19.7457 15.3599C19.9112 15.3079 20.0887 15.3079 20.2542 15.3599L20.9249 15.5862L20.5902 17.2516C20.5463 17.2504 20.5022 17.2498 20.458 17.2498H19.8793C19.725 17.25 19.5712 17.2673 19.4207 17.3012L19.0792 15.5837L19.7457 15.3599ZM20.8832 19.0171C20.5912 18.9188 20.2825 18.8795 19.9752 18.9013C19.6678 18.9232 19.3679 19.0058 19.0927 19.1444L18.7489 19.3163L18.806 19.0877C18.8659 18.8484 19.0041 18.636 19.1985 18.4842C19.393 18.3324 19.6326 18.25 19.8793 18.25H20.458C21.3604 18.25 22.2325 18.5755 22.9143 19.1668C23.596 19.7581 24.0415 20.5754 24.1691 21.4688L24.4236 23.25H22.61L22.797 22.3149C22.8722 21.9441 22.8731 21.562 22.7997 21.1908C22.7262 20.8196 22.5799 20.4667 22.3691 20.1524C22.0132 19.62 21.4906 19.2207 20.8833 19.0171H20.8832ZM20.0292 29.8046L19.9222 29.965L19.3535 29.3962C19.2597 29.3025 19.1325 29.2498 18.9999 29.2498C18.8673 29.2498 18.7402 29.3025 18.6464 29.3962L18 30.0427V29.25C18 29.1595 17.9754 29.0707 17.9289 28.993C17.8824 28.9154 17.8157 28.8518 17.7359 28.8091C17.6561 28.7664 17.5662 28.7462 17.4758 28.7505C17.3854 28.7549 17.2979 28.7837 17.2226 28.8339C16.5819 29.2619 15.8576 29.5488 15.0976 29.6756C15.5986 29.1504 16.1866 28.7158 16.8357 28.3909L17.2232 28.1972C17.3177 28.15 17.3947 28.0741 17.4434 27.9804C17.4921 27.8867 17.5098 27.78 17.4941 27.6756C17.4784 27.5712 17.4301 27.4745 17.356 27.3992C17.282 27.324 17.186 27.2741 17.0819 27.2568L15.9494 27.068C14.9345 26.8997 13.954 26.5664 13.0468 26.0813L16.0553 25.747C16.167 25.7346 16.2713 25.6849 16.3513 25.606C16.4313 25.5271 16.4824 25.4235 16.4963 25.3119C16.5102 25.2004 16.4861 25.0874 16.428 24.9913C16.3698 24.8951 16.2809 24.8213 16.1757 24.7819L13.8636 23.9145C13.2543 23.6871 12.6944 23.3445 12.2146 22.9054L14.938 23.2458C15.0452 23.2592 15.1539 23.2375 15.2478 23.184C15.3416 23.1304 15.4156 23.0479 15.4587 22.9488C15.5017 22.8496 15.5115 22.7392 15.4865 22.6341C15.4615 22.529 15.4031 22.4347 15.3201 22.3656L13.7806 21.0826C12.8904 20.3401 12.2083 19.3793 11.8008 18.2942L11.6241 17.8231L18.1946 23.2341C18.2672 23.294 18.3213 23.3732 18.3506 23.4627C18.38 23.5521 18.3834 23.648 18.3605 23.7393C18.3159 23.9135 18.2663 24.1061 18.2182 24.2902C18.1292 24.6319 18.149 24.9929 18.2749 25.3228C18.4007 25.6527 18.6264 25.9352 18.9203 26.1308L18.9397 26.1437C19.2672 26.3621 19.6609 26.4588 20.0523 26.417C20.4438 26.3752 20.8082 26.1975 21.0821 25.9149C21.1004 25.8961 21.1171 25.8758 21.1321 25.8543L21.5 25.3309V26.5L21.1422 26.7683C20.803 27.0221 20.3936 27.1647 19.9702 27.1764C19.5467 27.1882 19.13 27.0685 18.7773 26.8339C18.7227 26.7975 18.6614 26.7722 18.597 26.7595C18.5326 26.7467 18.4663 26.7468 18.4019 26.7597C18.3375 26.7726 18.2763 26.798 18.2217 26.8345C18.1672 26.8711 18.1203 26.918 18.0839 26.9726C18.0475 27.0273 18.0222 27.0885 18.0094 27.1529C17.9967 27.2174 17.9968 27.2836 18.0097 27.348C18.0225 27.4124 18.048 27.4736 18.0845 27.5282C18.121 27.5828 18.168 27.6296 18.2226 27.666C18.706 27.9876 19.2712 28.1646 19.8517 28.1763C20.4322 28.1879 21.004 28.0337 21.5 27.7318V28.8041C20.8982 28.9333 20.3705 29.2922 20.0293 29.8044L20.0292 29.8046ZM28.5864 32.0434C29.051 32.5054 29.357 33.103 29.4605 33.75H28.7949C28.4194 33.128 27.8744 32.626 27.2237 32.3027C27.1147 32.2483 26.9895 32.2354 26.8717 32.2667C26.754 32.298 26.6517 32.3712 26.5841 32.4726L25.0001 34.8486L23.4161 32.4724C23.3485 32.371 23.2462 32.2978 23.1284 32.2665C23.0106 32.2352 22.8855 32.248 22.7765 32.3025C22.1258 32.6258 21.5807 33.1279 21.2051 33.75H20.5396C20.6431 33.1031 20.9491 32.5057 21.4136 32.0438L21.7686 31.6887C21.9025 31.5544 22.0204 31.4052 22.12 31.2439C22.2438 31.3337 22.3806 31.404 22.5257 31.4524L24.8419 32.2246C24.9446 32.2588 25.0556 32.2588 25.1582 32.2246L27.4744 31.4524C27.6195 31.404 27.7563 31.3337 27.8801 31.2439C27.9798 31.4052 28.0977 31.5544 28.2315 31.6887L28.5864 32.0434ZM36.2195 21.0826L34.68 22.3656C34.5969 22.4347 34.5386 22.529 34.5136 22.6341C34.4886 22.7392 34.4984 22.8496 34.5414 22.9487C34.5844 23.0479 34.6584 23.1304 34.7523 23.1839C34.8461 23.2375 34.9548 23.2592 35.062 23.2458L37.7856 22.9054C37.3057 23.3445 36.7458 23.6871 36.1365 23.9145L33.8245 24.7816C33.7192 24.821 33.6303 24.8948 33.5722 24.991C33.514 25.0871 33.4899 25.2001 33.5038 25.3116C33.5178 25.4232 33.5688 25.5267 33.6488 25.6057C33.7289 25.6846 33.8331 25.7343 33.9448 25.7467L36.9533 26.0809C36.046 26.5661 35.0654 26.8995 34.0504 27.0678L32.9179 27.2565C32.8138 27.2739 32.7178 27.3237 32.6437 27.399C32.5697 27.4742 32.5213 27.571 32.5056 27.6754C32.49 27.7798 32.5077 27.8865 32.5564 27.9802C32.605 28.0738 32.6821 28.1497 32.7765 28.1969L33.164 28.3907C33.8131 28.7155 34.4011 29.1502 34.9021 29.6754C34.1421 29.5485 33.4178 29.2616 32.7771 28.8337C32.7018 28.7836 32.6143 28.7548 32.5239 28.7505C32.4335 28.7462 32.3437 28.7664 32.2639 28.8092C32.1842 28.8519 32.1175 28.9155 32.071 28.9931C32.0246 29.0707 32 29.1595 32 29.25V30.0429L31.3536 29.3964C31.3072 29.35 31.2521 29.3132 31.1914 29.288C31.1307 29.2629 31.0657 29.25 31 29.25C30.9344 29.25 30.8694 29.2629 30.8087 29.288C30.748 29.3132 30.6929 29.35 30.6465 29.3964L30.0777 29.9652L29.9707 29.8048C29.6296 29.2924 29.1019 28.9334 28.5001 28.8042V27.7313C28.996 28.0332 29.5678 28.1874 30.1483 28.1758C30.7288 28.1641 31.294 27.9871 31.7774 27.6655C31.8878 27.5919 31.9643 27.4776 31.9904 27.3475C32.0164 27.2175 31.9897 27.0825 31.9161 26.9721C31.8425 26.8618 31.7282 26.7852 31.5981 26.7592C31.4681 26.7332 31.3331 26.7599 31.2227 26.8334C30.87 27.068 30.4533 27.1877 30.0299 27.1759C29.6064 27.1642 29.197 27.0216 28.8579 26.7678L28.5001 26.5V25.3313L28.8679 25.8547C28.8829 25.8762 28.8996 25.8964 28.9179 25.9152C29.1919 26.1979 29.5563 26.3755 29.9478 26.4173C30.3392 26.459 30.7329 26.3622 31.0604 26.1438L31.0801 26.1307C31.374 25.9351 31.5996 25.6526 31.7254 25.3228C31.8512 24.9929 31.871 24.632 31.782 24.2903C31.7338 24.1062 31.6842 23.9136 31.6397 23.7393C31.6167 23.648 31.6201 23.5521 31.6495 23.4627C31.6789 23.3733 31.733 23.294 31.8055 23.2341L38.376 17.8231L38.1994 18.2942C37.7919 19.3793 37.1097 20.3401 36.2195 21.0826Z" fill="#1E1E1E"/>
</g>
<defs>
<clipPath id="clip0_898_9235">
<rect width="30" height="30" fill="white" transform="translate(10 11.25)"/>
</clipPath>
</defs>
</svg>
