<svg width="35" height="22" viewBox="0 0 35 22" fill="none" xmlns="http://www.w3.org/2000/svg">
<rect x="0.5" y="0.5" width="34" height="21" rx="10.5" stroke="#DC0533"/>
<path d="M16.8025 17.6125V15.0775H18.0025V17.6125H16.8025ZM16.8025 6.4075V3.7225H18.0025V6.4075H16.8025ZM17.44 16.1425C16.63 16.1425 15.8575 15.9825 15.1225 15.6625C14.3925 15.3425 13.7875 14.885 13.3075 14.29L14.1175 13.51C14.5125 13.985 15.0075 14.35 15.6025 14.605C16.1975 14.86 16.81 14.9875 17.44 14.9875C17.915 14.9875 18.3425 14.915 18.7225 14.77C19.1025 14.625 19.4 14.4125 19.615 14.1325C19.835 13.8475 19.945 13.5025 19.945 13.0975C19.945 12.7125 19.8325 12.4 19.6075 12.16C19.3825 11.915 19.085 11.72 18.715 11.575C18.345 11.425 17.84 11.265 17.2 11.095L17.065 11.0575C16.405 10.8875 15.845 10.7025 15.385 10.5025C14.93 10.3025 14.545 10.0125 14.23 9.6325C13.915 9.2475 13.7575 8.7525 13.7575 8.1475C13.7575 7.5975 13.9075 7.11 14.2075 6.685C14.5125 6.255 14.9375 5.92 15.4825 5.68C16.0275 5.44 16.655 5.32 17.365 5.32C18.035 5.32 18.68 5.4375 19.3 5.6725C19.92 5.9025 20.4575 6.23 20.9125 6.655L20.1775 7.5025C19.8275 7.1825 19.405 6.93 18.91 6.745C18.42 6.555 17.9225 6.46 17.4175 6.46C16.9725 6.46 16.565 6.53 16.195 6.67C15.825 6.805 15.53 7.005 15.31 7.27C15.095 7.53 14.9875 7.835 14.9875 8.185C14.9875 8.545 15.0975 8.8375 15.3175 9.0625C15.5375 9.2825 15.8175 9.4575 16.1575 9.5875C16.4975 9.7175 16.9675 9.8625 17.5675 10.0225C17.5775 10.0275 17.5875 10.0325 17.5975 10.0375C17.6125 10.0375 17.625 10.04 17.635 10.045C17.655 10.05 17.675 10.0575 17.695 10.0675C17.715 10.0725 17.735 10.0775 17.755 10.0825C18.49 10.2975 19.095 10.515 19.57 10.735C20.045 10.955 20.4325 11.255 20.7325 11.635C21.0375 12.01 21.19 12.49 21.19 13.075C21.19 13.715 21.025 14.2675 20.695 14.7325C20.365 15.1925 19.915 15.5425 19.345 15.7825C18.78 16.0225 18.145 16.1425 17.44 16.1425Z" fill="#DC0533"/>
</svg>
