<svg width="40" height="40" viewBox="0 0 40 40" fill="none" xmlns="http://www.w3.org/2000/svg">
<g id="heart">
<circle id="Ellipse 768" cx="20" cy="20" r="19.5" stroke="#DC0533"/>
<g id="Frame 12568">
<g id="Group">
<g id="Group_2">
<path id="Vector" d="M14.2053 19.0703C13.9885 18.9619 13.8259 18.8264 13.6634 18.6638C13.0672 18.0677 13.013 17.3361 13.5279 16.8212C14.1782 16.1709 17.7009 12.6482 18.6764 11.6727L18.8931 11.4559L18.6222 11.2663C17.5654 10.5075 16.3189 10.1011 15.0182 10.0469H14.7472H14.4763C12.7691 10.1011 11.1704 10.8056 9.97811 12.025C8.70453 13.2986 8 15.0057 8 16.7941C8 18.6096 8.70453 20.2897 9.97811 21.5633L11.2788 22.8639L11.4414 22.4846C11.5227 22.2678 11.6852 22.051 11.8478 21.8884L14.5034 19.2329L14.2053 19.0703ZM29.0547 12.025C27.7811 10.7514 26.0739 10.0469 24.2855 10.0469C22.47 10.0469 20.79 10.7514 19.5164 12.025C19.4893 12.0521 14.8827 16.6586 14.124 17.4174C14.0156 17.5257 13.9072 17.7425 14.2595 18.0948C14.5034 18.3387 14.9098 18.5284 15.2892 18.6096H15.3163C15.3434 18.6096 15.3705 18.6096 15.3976 18.6096H15.4247C15.4518 18.6096 15.5331 18.6096 15.5873 18.6096C16.1021 18.6096 16.5899 18.3929 16.9963 17.9864L19.3267 15.656C19.4622 15.5205 19.7603 15.5205 19.8957 15.656C20.6545 16.4148 21.4674 16.8754 22.199 16.9838C22.9307 17.0922 23.6352 16.8212 24.2313 16.2251C24.3668 16.0896 24.6649 16.0896 24.8004 16.2251C24.963 16.3877 24.963 16.6315 24.8004 16.7941C24.0416 17.5528 23.0661 17.9051 22.0906 17.7696C21.3319 17.6612 20.5461 17.2819 19.7874 16.6586L19.5977 16.496L17.5383 18.5554C16.9963 19.0974 16.3189 19.3955 15.6144 19.3955H15.4247L12.444 22.4846C12.0917 22.8368 12.0375 23.4059 12.3085 23.8394L12.2814 23.8665L12.4711 24.0562C12.6607 24.2459 12.9317 24.3543 13.2298 24.3543C13.5279 24.3543 13.7988 24.2459 13.9885 24.0562L18.3241 19.7206C18.4596 19.5851 18.7577 19.5851 18.8931 19.7206C18.9744 19.8019 19.0015 19.9103 19.0015 20.0187C19.0015 20.1271 18.9473 20.2355 18.8931 20.3168L14.5576 24.6524C14.124 25.0859 14.124 25.7633 14.5576 26.1969C14.7472 26.3866 15.0453 26.495 15.3163 26.495C15.6144 26.495 15.8853 26.3866 16.075 26.1969L20.4106 21.8613C20.5461 21.7258 20.8442 21.7258 20.9796 21.8613C21.0609 21.9426 21.088 22.051 21.088 22.1594C21.088 22.2678 21.0338 22.3762 20.9796 22.4575L16.6441 26.793C16.4273 27.0098 16.3189 27.2808 16.3189 27.5518C16.3189 27.8498 16.4273 28.1208 16.6441 28.3105C16.8337 28.5002 17.1318 28.6086 17.4028 28.6086C17.6738 28.6086 17.9718 28.5002 18.1615 28.3105L22.4971 23.9749C22.6326 23.8394 22.9307 23.8394 23.0661 23.9749C23.1474 24.0562 23.1745 24.1646 23.1745 24.273C23.1745 24.3814 23.1203 24.4898 23.0661 24.5711L18.7306 28.9066L18.6222 29.015C18.4867 29.2047 18.4054 29.4215 18.4054 29.6654C18.4054 29.9634 18.5138 30.2344 18.7306 30.4241C18.9202 30.6138 19.2183 30.7222 19.4893 30.7222C19.7874 30.7222 20.0583 30.6138 20.248 30.4241L29.0005 21.6446C30.274 20.371 30.9786 18.6638 30.9786 16.8754C31.0328 14.9786 30.3553 13.2986 29.0547 12.025Z" fill="#1E1E1E"/>
</g>
</g>
</g>
</g>
</svg>
