<svg width="35" height="22" viewBox="0 0 35 22" fill="none" xmlns="http://www.w3.org/2000/svg">
<rect x="0.5" y="0.5" width="34" height="21" rx="10.5" stroke="#DC0533"/>
<path d="M18.6836 11.8179H13.2271V10.668H18.6836C19.2158 10.668 19.6528 10.5825 19.9946 10.4116C20.3364 10.2407 20.5879 9.99902 20.749 9.68652C20.915 9.37402 20.998 9.00537 20.998 8.58057C20.998 8.23389 20.9199 7.90186 20.7637 7.58447C20.6123 7.26709 20.3657 7.00586 20.0239 6.80078C19.687 6.5957 19.2402 6.49316 18.6836 6.49316H16.1494V16H14.7432V5.33594H18.6836C19.4893 5.33594 20.168 5.4751 20.7197 5.75342C21.2715 6.02686 21.689 6.40771 21.9722 6.896C22.2603 7.37939 22.4043 7.93604 22.4043 8.56592C22.4043 9.24951 22.2603 9.83545 21.9722 10.3237C21.689 10.8071 21.2715 11.1782 20.7197 11.437C20.168 11.6909 19.4893 11.8179 18.6836 11.8179ZM18.5957 12.8213V13.9785H13.2271V12.8213H18.5957Z" fill="#DC0533"/>
</svg>
