<svg width="50" height="50" viewBox="0 0 50 50" fill="none" xmlns="http://www.w3.org/2000/svg">
<circle cx="25" cy="25" r="24.5" stroke="#DC0533"/>
<path fill-rule="evenodd" clip-rule="evenodd" d="M20 15C19.6685 15 19.3505 15.1317 19.1161 15.3661C18.8817 15.6005 18.75 15.9185 18.75 16.25V17.5H17.5C16.837 17.5 16.2011 17.7634 15.7322 18.2322C15.2634 18.7011 15 19.337 15 20V32.5C15 33.163 15.2634 33.7989 15.7322 34.2678C16.2011 34.7366 16.837 35 17.5 35H32.5C33.163 35 33.7989 34.7366 34.2678 34.2678C34.7366 33.7989 35 33.163 35 32.5V20C35 19.337 34.7366 18.7011 34.2678 18.2322C33.7989 17.7634 33.163 17.5 32.5 17.5H31.25V16.25C31.25 15.9185 31.1183 15.6005 30.8839 15.3661C30.6495 15.1317 30.3315 15 30 15C29.6685 15 29.3505 15.1317 29.1161 15.3661C28.8817 15.6005 28.75 15.9185 28.75 16.25V17.5H21.25V16.25C21.25 15.9185 21.1183 15.6005 20.8839 15.3661C20.6495 15.1317 20.3315 15 20 15ZM20 21.25C19.6685 21.25 19.3505 21.3817 19.1161 21.6161C18.8817 21.8505 18.75 22.1685 18.75 22.5C18.75 22.8315 18.8817 23.1495 19.1161 23.3839C19.3505 23.6183 19.6685 23.75 20 23.75H30C30.3315 23.75 30.6495 23.6183 30.8839 23.3839C31.1183 23.1495 31.25 22.8315 31.25 22.5C31.25 22.1685 31.1183 21.8505 30.8839 21.6161C30.6495 21.3817 30.3315 21.25 30 21.25H20Z" fill="#18181B"/>
</svg>
