<svg width="40" height="40" viewBox="0 0 40 40" fill="none" xmlns="http://www.w3.org/2000/svg">
<circle cx="20" cy="20" r="19.5" stroke="#DC0533"/>
<path d="M16.8567 12.6666C16.5789 12.6666 16.3124 12.777 16.116 12.9735C15.9195 13.1699 15.8091 13.4364 15.8091 13.7142C15.8091 13.9921 15.9195 14.2586 16.116 14.455C16.3124 14.6515 16.5789 14.7619 16.8567 14.7619H23.1425C23.4203 14.7619 23.6868 14.6515 23.8832 14.455C24.0797 14.2586 24.1901 13.9921 24.1901 13.7142C24.1901 13.4364 24.0797 13.1699 23.8832 12.9735C23.6868 12.777 23.4203 12.6666 23.1425 12.6666H16.8567ZM13.7139 16.8571C13.7139 16.5793 13.8243 16.3128 14.0207 16.1163C14.2172 15.9199 14.4837 15.8095 14.7615 15.8095H25.2377C25.5155 15.8095 25.782 15.9199 25.9785 16.1163C26.1749 16.3128 26.2853 16.5793 26.2853 16.8571C26.2853 17.1349 26.1749 17.4014 25.9785 17.5979C25.782 17.7943 25.5155 17.9047 25.2377 17.9047H14.7615C14.4837 17.9047 14.2172 17.7943 14.0207 17.5979C13.8243 17.4014 13.7139 17.1349 13.7139 16.8571ZM11.6187 21.0476C11.6187 20.4919 11.8394 19.959 12.2323 19.566C12.6253 19.1731 13.1582 18.9523 13.7139 18.9523H26.2853C26.841 18.9523 27.3739 19.1731 27.7669 19.566C28.1598 19.959 28.3806 20.4919 28.3806 21.0476V25.2381C28.3806 25.7937 28.1598 26.3267 27.7669 26.7196C27.3739 27.1125 26.841 27.3333 26.2853 27.3333H13.7139C13.1582 27.3333 12.6253 27.1125 12.2323 26.7196C11.8394 26.3267 11.6187 25.7937 11.6187 25.2381V21.0476Z" fill="#1E1E1E"/>
</svg>
