<svg width="36" height="36" viewBox="0 0 36 36" fill="none" xmlns="http://www.w3.org/2000/svg">
<path fill-rule="evenodd" clip-rule="evenodd" d="M12.4742 0.000244141H23.5258C33.6119 0.000244141 36 2.38839 36 12.4745V23.526C36 33.6121 33.6119 36.0002 23.5258 36.0002H12.4742C2.38814 36.0002 0 33.6121 0 23.526V12.4745C0 2.38839 2.38814 0.000244141 12.4742 0.000244141Z" fill="#2C2C2C"/>
<g clip-path="url(#clip0_657_1341)">
<path d="M19.9286 19.9288C18.3571 21.5502 18.2429 23.5717 18.1071 28.0002C22.2357 28.0002 25.0857 27.986 26.5571 26.5574C27.9857 25.086 28 22.1002 28 18.1074C23.5714 18.2502 21.55 18.3574 19.9286 19.9288ZM8 18.1074C8 22.1002 8.01429 25.086 9.44286 26.5574C10.9143 27.986 13.7643 28.0002 17.8929 28.0002C17.75 23.5717 17.6429 21.5502 16.0714 19.9288C14.45 18.3574 12.4286 18.2431 8 18.1074ZM17.8929 8.00024C13.7714 8.00024 10.9143 8.01453 9.44286 9.4431C8.01429 10.9145 8 13.9002 8 17.8931C12.4286 17.7502 14.45 17.6431 16.0714 16.0717C17.6429 14.4502 17.7571 12.4288 17.8929 8.00024ZM19.9286 16.0717C18.3571 14.4502 18.2429 12.4288 18.1071 8.00024C22.2357 8.00024 25.0857 8.01453 26.5571 9.4431C27.9857 10.9145 28 13.9002 28 17.8931C23.5714 17.7502 21.55 17.6431 19.9286 16.0717Z" fill="#797979"/>
<path d="M28 18.1074V17.8931C23.5714 17.7502 21.55 17.6431 19.9286 16.0717C18.3571 14.4502 18.2429 12.4288 18.1071 8.00024H17.8929C17.75 12.4288 17.6429 14.4502 16.0714 16.0717C14.45 17.6431 12.4286 17.7574 8 17.8931V18.1074C12.4286 18.2502 14.45 18.3574 16.0714 19.9288C17.6429 21.5502 17.7571 23.5717 17.8929 28.0002H18.1071C18.25 23.5717 18.3571 21.5502 19.9286 19.9288C21.55 18.3574 23.5714 18.2431 28 18.1074Z" fill="#1E1E1E"/>
</g>
<defs>
<clipPath id="clip0_657_1341">
<rect width="20" height="20" fill="white" transform="translate(8 8.00024)"/>
</clipPath>
</defs>
</svg>
