<svg width="44" height="44" viewBox="0 0 44 44" fill="none" xmlns="http://www.w3.org/2000/svg">
<path d="M30.25 30.25L24.75 24.75M26.5833 20.1667C26.5833 21.0093 26.4174 21.8437 26.0949 22.6222C25.7724 23.4007 25.2998 24.1081 24.7039 24.7039C24.1081 25.2998 23.4007 25.7724 22.6222 26.0949C21.8437 26.4174 21.0093 26.5833 20.1667 26.5833C19.324 26.5833 18.4896 26.4174 17.7111 26.0949C16.9326 25.7724 16.2252 25.2998 15.6294 24.7039C15.0336 24.1081 14.5609 23.4007 14.2384 22.6222C13.916 21.8437 13.75 21.0093 13.75 20.1667C13.75 18.4649 14.426 16.8328 15.6294 15.6294C16.8328 14.426 18.4649 13.75 20.1667 13.75C21.8685 13.75 23.5006 14.426 24.7039 15.6294C25.9073 16.8328 26.5833 18.4649 26.5833 20.1667Z" stroke="#18181B" stroke-width="2" stroke-linecap="round" stroke-linejoin="round"/>
<circle cx="22" cy="22" r="21.5" stroke="#DC0533"/>
</svg>
