<svg width="85" height="15" viewBox="0 0 85 15" fill="none" xmlns="http://www.w3.org/2000/svg">
<g clip-path="url(#clip0_1688_99930)">
<path d="M72.823 13.0846V9.22673H68.1559V13.0846H66.6807V4.15479H68.1559V7.85083H72.823V4.15479H74.2982V13.0846H72.823Z" fill="#F65E64"/>
<path d="M82.9075 13.0845L79.4474 9.28056H77.8381C77.8381 11.4119 77.8381 12.6798 77.8649 13.0845H76.3896C76.4165 12.1942 76.4165 10.7104 76.4165 8.63308C76.4165 6.55574 76.4165 5.07193 76.3896 4.18164H77.8649C77.8381 4.93704 77.8381 6.17804 77.8381 7.93164H79.4742L82.827 4.18164H84.6778L80.8153 8.52517L84.9728 13.1115H82.9075V13.0845Z" fill="#F65E64"/>
<path d="M62.0403 10.4676C61.3966 11.3579 60.3773 11.8975 59.2776 11.8975C58.4193 11.8975 57.8292 11.5198 57.8292 10.7914C57.8292 10.1978 58.2852 9.76618 59.0898 9.52337C59.7068 9.3615 60.6724 9.28057 62.0403 9.1187V10.4676ZM64.7225 11.5737C64.5616 11.8165 64.3738 11.9784 64.1324 11.9784C63.7569 11.9784 63.5155 11.7086 63.5155 11.3309V6.93345C63.5155 5.23381 62.0671 3.96582 60.0823 3.96582C58.8484 3.96582 57.8292 4.3705 57.2123 5.01798L58.2047 6.01618C58.5266 5.6115 59.1703 5.31474 59.975 5.31474C61.182 5.31474 62.0403 6.07014 62.0403 7.09532V7.76978C60.6724 7.93165 59.7068 8.03956 59.1435 8.17445C57.3732 8.55215 56.3271 9.4964 56.3271 10.9263C56.3271 12.3291 57.4269 13.2464 59.1435 13.2464C60.3505 13.2464 61.3161 13.0036 62.0939 12.0863C62.2549 12.8957 63.0327 13.2464 64.0252 13.2464C64.6957 13.2464 65.259 12.9496 65.6881 12.464L64.7225 11.5737Z" fill="#F65E64"/>
<path d="M50.7474 11.6547C49.0844 11.6547 47.7433 10.3058 47.7433 8.63309C47.7433 6.96043 49.0844 5.61151 50.7474 5.61151C52.4104 5.61151 53.7515 6.96043 53.7515 8.63309C53.7515 10.2788 52.4104 11.6547 50.7474 11.6547ZM50.7474 4.15468C49.5941 4.15468 48.548 4.58633 47.7702 5.31475C47.9579 3.69604 49.3258 2.42806 50.9888 2.42806C52.1154 2.3741 53.0005 2.23921 53.6711 2.02338C54.1539 1.86151 54.744 1.53777 55.1999 1.07914L54.127 0C53.8052 0.296763 53.4565 0.485612 53.0541 0.67446C52.5982 0.863309 52.0349 0.890288 50.9888 0.944245C48.4139 0.944245 46.3217 3.04856 46.2949 5.66547V8.63309C46.2949 11.1151 48.2798 13.1115 50.7474 13.1115C53.2151 13.1115 55.1999 11.1151 55.1999 8.63309C55.1999 6.15108 53.2151 4.15468 50.7474 4.15468Z" fill="#F65E64"/>
<path d="M6.65194 11.8707V5.50383H3.59419C3.54055 9.30778 3.27233 10.9535 2.17261 11.8707H6.65194ZM8.0467 11.8707H9.25371V15.0002H7.83212V13.1387H1.42158V15.0002H0V11.8707C0.885137 11.6279 1.39476 11.0344 1.68981 10.4139C1.82392 10.0902 1.93121 9.6585 1.98485 9.038C2.14579 7.82397 2.14579 6.6639 2.14579 4.23584H8.0467V11.8707Z" fill="#F65E64"/>
<path d="M26.5 13.1384V5.53044H23.0936C23.0936 8.44411 23.0399 10.3596 22.6376 11.5466C22.423 12.1941 21.8866 13.0304 21.216 13.4891L20.1699 12.4099C20.76 11.9513 21.0551 11.5196 21.2965 10.9261C21.4842 10.4405 21.511 9.82001 21.5647 8.60598C21.5647 7.39195 21.5915 6.2049 21.5915 4.2085H27.9484V13.1384H26.5Z" fill="#F65E64"/>
<path d="M11.7214 8.03968H17.8905C17.8101 7.23033 17.3809 6.58285 16.8713 6.09723C15.2619 4.61342 11.8019 5.55767 11.7214 8.03968ZM18.6952 11.5469C17.8905 12.68 16.5226 13.3274 14.9132 13.3274C12.2847 13.3274 10.2998 11.412 10.2998 8.68716C10.2998 5.96234 12.1774 4.04688 14.7791 4.04688C17.22 4.04688 19.3389 5.80047 19.3389 8.44436C19.3389 8.79508 19.3121 9.11882 19.2585 9.41558H11.7482C12.0164 11.0343 13.2503 12.0055 14.9401 12.0055C16.0934 12.0055 17.22 11.439 17.7028 10.5487L18.6952 11.5469Z" fill="#F65E64"/>
<path d="M40.0462 11.8434C38.3027 11.8434 36.908 10.4405 36.908 8.68691C36.908 6.93332 38.3027 5.53044 40.0462 5.53044C41.7896 5.53044 43.1844 6.93332 43.1844 8.68691C43.1844 10.4405 41.7896 11.8434 40.0462 11.8434ZM40.0998 4.2085H34.0648C31.5972 4.2085 29.6123 6.2049 29.6123 8.68691C29.6123 11.1689 31.5972 13.1653 34.0648 13.1653H40.0998C42.5675 13.1653 44.5523 11.1689 44.5523 8.68691C44.5523 6.2049 42.5675 4.2085 40.0998 4.2085Z" fill="#F65E64"/>
</g>
<defs>
<clipPath id="clip0_1688_99930">
<rect width="85" height="15" fill="white"/>
</clipPath>
</defs>
</svg>
