<svg width="50" height="50" viewBox="0 0 50 50" fill="none" xmlns="http://www.w3.org/2000/svg">
<circle cx="25" cy="25" r="24.5" stroke="#DC0533"/>
<g clip-path="url(#clip0_5841_3217)">
<path d="M16.8949 29.6353L16.369 29.1094C17.6139 25.838 19.6877 22.2007 23.064 18.8245C26.7598 15.1286 30.9796 13.3141 35.3653 14.5408C36.191 18.5256 34.7774 23.1462 31.0816 26.8421C27.7054 30.2183 23.997 32.2211 20.7104 33.4507L20.2708 33.0111M16.8949 29.6353L15.064 31.8882L18.0178 34.8421L20.2708 33.0111M16.8949 29.6353L18.5828 31.3232M20.2708 33.0111L18.5828 31.3232M18.5828 31.3232L23.9718 25.9342" stroke="black" stroke-width="1.5" stroke-linecap="round"/>
<path d="M22.9166 18.9716L19.4557 19.1752C19.3735 19.18 19.2945 19.2085 19.2281 19.2571L13.7818 23.2511C13.4823 23.4707 13.5864 23.9416 13.9507 24.0145L18.2749 24.8793" stroke="black" stroke-width="1.5" stroke-linecap="round"/>
<path d="M30.9193 26.9752L30.7157 30.4362C30.7109 30.5183 30.6824 30.5973 30.6337 30.6637L26.6398 36.11C26.4201 36.4095 25.9493 36.3054 25.8764 35.9412L25.0116 31.617" stroke="black" stroke-width="1.5" stroke-linecap="round"/>
<circle cx="29.667" cy="20.2375" r="2.52522" transform="rotate(45 29.667 20.2375)" stroke="black" stroke-width="1.5"/>
</g>
<defs>
<clipPath id="clip0_5841_3217">
<rect width="26" height="26" fill="white" transform="translate(12 12)"/>
</clipPath>
</defs>
</svg>
