<svg width="50" height="60" viewBox="0 0 50 60" fill="none" xmlns="http://www.w3.org/2000/svg">
<path d="M7.85152 7.81114L7.85155 7.81111C12.3989 3.29046 18.5674 0.75 25.0003 0.75C31.4331 0.75 37.6016 3.29046 42.149 7.81111C46.6962 12.3316 49.25 18.4618 49.25 24.8528C49.25 31.2438 46.6962 37.374 42.149 41.8945L25.0003 58.9425L7.85155 41.8945L7.85152 41.8945C5.59979 39.6562 3.81384 36.9992 2.59544 34.0752C1.37704 31.1512 0.75 28.0175 0.75 24.8528C0.75 21.6882 1.37704 18.5544 2.59544 15.6304C3.81384 12.7065 5.59979 10.0494 7.85152 7.81114Z" fill="white" stroke="#F65E64" stroke-width="1.5"/>
<path d="M30.1576 23.8055L22.225 15L19.5791 17.3828L27.7613 26.4653L30.1576 23.8055Z" fill="#00A0E3"/>
<path d="M30.1577 23.8056L19.5164 35.6172L22.1622 38L32.5517 26.4631L30.1577 23.8056Z" fill="#F65E64"/>
</svg>
