<svg width="52" height="52" viewBox="0 0 52 52" fill="none" xmlns="http://www.w3.org/2000/svg">
<circle cx="26" cy="26" r="26" fill="#F1F1F1"/>
<path d="M32.125 21C31.8762 20.294 31.4218 19.6787 30.8203 19.2332C30.2189 18.7876 29.4978 18.5323 28.75 18.5H23.75C22.7554 18.5 21.8016 18.8951 21.0983 19.5983C20.3951 20.3016 20 21.2554 20 22.25C20 23.2446 20.3951 24.1984 21.0983 24.9017C21.8016 25.6049 22.7554 26 23.75 26H28.75C29.7446 26 30.6984 26.3951 31.4017 27.0983C32.1049 27.8016 32.5 28.7554 32.5 29.75C32.5 30.7446 32.1049 31.6984 31.4017 32.4017C30.6984 33.1049 29.7446 33.5 28.75 33.5H23.75C23.0022 33.4677 22.2811 33.2124 21.6797 32.7668C21.0782 32.3213 20.6238 31.706 20.375 31M26.25 14.75V18.5M26.25 33.5V37.25" stroke="#1E1E1E" stroke-width="2" stroke-linecap="round" stroke-linejoin="round"/>
</svg>
